M48
;Layer_Color=9474304
;FILE_FORMAT=4:4
METRIC,LZ
;TYPE=PLATED
T1F00S00C0.2500
T2F00S00C0.3500
T3F00S00C0.5000
T4F00S00C0.9000
T5F00S00C0.9700
T6F00S00C1.0000
T7F00S00C1.2000
T8F00S00C1.3000
;TYPE=NON_PLATED
T9F00S00C1.7000
%
T01
X00112985Y00084
X00206Y00078
Y0007
X00214
Y00078
Y00062
Y00054
X00206
Y00062
X002115Y000958
X002195Y000918
X002275Y000958
X002365Y000958
X002445Y000918
X002525Y000958
X002565Y001038
X002525Y001118
X002445Y001158
X002365Y001118
X002275Y001118
X002195Y001158
X002115Y001118
X002075Y001038
X0025Y00078
Y0007
X00258
Y00078
Y00062
Y00054
X0025
Y00062
X00249678Y00136322
X00241678Y00140322
X00237678Y00148322
X00241678Y00156322
X00249678Y00160322
X00257678Y00156322
X00261678Y00148322
X00257678Y00140322
X00222322Y00175678
X00214322Y00171678
X00206322Y00175678
X00202322Y00183678
X00206322Y00191678
X00214322Y00195678
X00222322Y00191678
X00222322Y00244322
X00214322Y00240322
X00206322Y00244322
X00202322Y00252322
X00206322Y00260322
X00214322Y00264322
X00222322Y00260322
X00240506Y00279192
X00237678Y00287678
X00248991Y00276364
X00257477Y00279192
X00260305Y00287678
X00292Y0028
X002997
X0031Y0028742
X0032523Y002955
X00336Y0029
Y00256
X00328
Y00248
X00336
Y0024
X00328
Y00232
Y00224
X00336
Y00232
X00344
Y00224
Y00216
X00352
X0036
X00368
Y00224
Y00232
X0036
X00352
Y00224
X0036
Y0024
X00352
X00344
Y00248
Y00256
X00352
X0036
Y00248
X00352
X00368
Y00256
X003655Y002666
X00368Y0024
X00373Y00195
X003505Y00205364
X003405
X003305
X00315Y00195
X0031475Y001875
X003255Y001805
X0033Y00168
X0033Y00144
Y00136
Y00128
X00338
X00346
X00354
X00362
Y00136
Y00144
X00354
X00346
Y00136
X00354
X00338
Y00144
Y0012
Y00112
X00346
Y0012
X00354
Y00112
X00362
Y0012
X0033
Y00112
Y00084
X00338
X00346
X00354
Y00076
X00346
Y00068
X00354
Y0006
X00346
Y00052
X00346Y00046
X00354
X00354Y00052
X00362
X00362Y00046
X0037
X00378Y00044
X00382Y00038
X00384Y0003
X00385Y00022
X00384Y00014
X00382Y00006
X00406
X00404Y00014
X00403Y00022
X00404Y0003
X00406Y00038
X0041Y00044
X00418Y00046
X00426
X00434
X00442
X0045
X00458
X00466
X00474Y00044
X00478Y00038
X0048Y0003
X00481Y00022
X0048Y00014
X00478Y00006
X00468Y0006
Y00068
Y00076
X0046
Y00084
X00468
Y00098
Y00106
Y00114
X0046
Y00122
X00468
X0046Y00106
Y00098
Y00068
Y0006
X00424
Y00068
Y00076
X00416
Y00084
X00424
Y00098
Y00106
Y00114
X00416
Y00122
X00424
X00416Y00106
Y00098
Y00068
Y0006
X00362
Y00068
Y00076
Y00084
X00338Y00076
Y00068
Y0006
Y00052
X00338Y00046
X0033
Y00052
Y0006
Y00068
Y00076
X00322Y00046
X00314Y00044
X0031Y00038
X00308Y0003
X00307Y00022
X00308Y00014
X0031Y00006
X00302Y00182
X00298Y0019
X002965Y002185
X002635Y00224
X00352Y00182
X004165Y00178
X004125Y0017
X004165Y00162
X004245Y00158
X004325Y00162
X004365Y0017
X004475
X004515Y00178
X004595Y00182
X004675Y00178
X004715Y0017
X004675Y00162
X004595Y00158
X004515Y00162
X004325Y00178
X004245Y00182
X004595Y00242
X004675Y00246
X004715Y00254
X004675Y00262
X004595Y00266
X00434Y00268
X00402Y00264
Y00312
Y0032
Y00328
Y00336
Y00344
X00394
X00386
X00378
X0037
Y00336
X00378
X00386
Y00328
X00378
Y0032
X00386
Y00312
X00378
X00394
Y0032
Y00328
Y00336
X0036Y00332
X00353999Y00311999
X0031878Y0034478
X00222Y00344
X00216Y00338
X0021Y0033177
X00172Y00338
X0015823Y0033823
X00164Y00344
X001315Y003435
X001475Y003145
X00156Y00298
X0014Y0018
X00442Y00314
X0045
Y00322
X00442
Y0033
X0045
X00458
X00466
X00474
X00482
Y00322
Y00314
X00474
Y00322
X00466
Y00314
X00458
Y00322
Y00338
X00466
X00474
X00482
X0045
X00442
X001025Y00332
X00072119Y00338881
X00078Y00298
X0006305Y002679
X0004977Y0026177
X00036Y00256
X00034Y00296
X0002495Y0028905
X000255Y003385
X00016Y00224
X000455Y001945
X00078Y00202
X00102485Y00126
X00067545Y0037
X00072984Y00388603
X00064499Y00397089
X00056014Y00405574
X00037546Y004
X00018Y00406
X00014Y00366
Y00352
X00046Y0044
X00064011Y00457989
X00073976Y00467966
X00081754Y00448873
X00094Y00436627
X00096603Y00490593
X000705Y00498
Y0051
X00016Y00556
X00016Y00568
X001085Y005965
X0011Y00503999
X00126Y00483999
X00138Y00484614
X00156Y00505442
X00183322Y00441322
X00169789Y00427307
X00154Y00416
X00144493Y00424
X00166Y00398569
X00172Y00381255
X00115494Y00372
X0023377Y0035577
X00228Y0035
X0028Y00441322
X00386Y00414
Y00406
Y00398
Y0039
X00394
Y00398
Y00406
Y00414
X00402
X0041
Y00406
X00402
Y00398
Y0039
X0041
Y00398
X00402Y00352
X00394
X00386
X00378
X0037
X00442Y00346
X0045
X00458
X00466
X00474
X00482
X00474Y0055
X00466
X00458
T02
X00348Y00378
X00348142Y00431822
X0042282Y00506499
T03
X0042282Y005845
T04
X001046Y0016
X0013
X001554
X00214322Y00183678
Y00252322
X00249678Y00287678
Y00148322
X004245Y0017
X004595
Y00254
X004245
X000647Y0016
X000393
X00102485Y00066
Y000406
X00032Y004192
Y004446
Y0047
Y004954
Y005208
X001073Y0052
X001327
T05
X003183Y0002
X003737
X004143
X004697
T06
X00034Y00622
X00079
T07
X001425Y001038
X001675
Y001288
X001425
X002195Y001038
X002445
X000625
X000375
Y001288
X000625
T08
X0002145Y005971
X0009155
T09
X001425Y00032
X001675
X002195
X002445
X000625
X000375
M30
