%FSLAX44Y44*%
%MOMM*%
G71*
G01*
G75*
G04 Layer_Physical_Order=2*
G04 Layer_Color=16711680*
%ADD10C,0.4000*%
%ADD11C,0.2540*%
%ADD12R,1.1500X0.7000*%
%ADD13R,0.7000X1.1500*%
%ADD14R,1.0000X1.1000*%
%ADD15R,5.3300X5.5900*%
%ADD16R,6.3500X5.2800*%
%ADD17R,1.1000X1.0000*%
G04:AMPARAMS|DCode=18|XSize=1mm|YSize=1.1mm|CornerRadius=0mm|HoleSize=0mm|Usage=FLASHONLY|Rotation=45.000|XOffset=0mm|YOffset=0mm|HoleType=Round|Shape=Rectangle|*
%AMROTATEDRECTD18*
4,1,4,0.0354,-0.7425,-0.7425,0.0354,-0.0354,0.7425,0.7425,-0.0354,0.0354,-0.7425,0.0*
%
%ADD18ROTATEDRECTD18*%

G04:AMPARAMS|DCode=19|XSize=1mm|YSize=1.1mm|CornerRadius=0mm|HoleSize=0mm|Usage=FLASHONLY|Rotation=135.000|XOffset=0mm|YOffset=0mm|HoleType=Round|Shape=Rectangle|*
%AMROTATEDRECTD19*
4,1,4,0.7425,0.0354,-0.0354,-0.7425,-0.7425,-0.0354,0.0354,0.7425,0.7425,0.0354,0.0*
%
%ADD19ROTATEDRECTD19*%

G04:AMPARAMS|DCode=20|XSize=0.5mm|YSize=1.2mm|CornerRadius=0mm|HoleSize=0mm|Usage=FLASHONLY|Rotation=135.000|XOffset=0mm|YOffset=0mm|HoleType=Round|Shape=Rectangle|*
%AMROTATEDRECTD20*
4,1,4,0.6010,0.2475,-0.2475,-0.6010,-0.6010,-0.2475,0.2475,0.6010,0.6010,0.2475,0.0*
%
%ADD20ROTATEDRECTD20*%

G04:AMPARAMS|DCode=21|XSize=0.5mm|YSize=1.2mm|CornerRadius=0mm|HoleSize=0mm|Usage=FLASHONLY|Rotation=225.000|XOffset=0mm|YOffset=0mm|HoleType=Round|Shape=Rectangle|*
%AMROTATEDRECTD21*
4,1,4,-0.2475,0.6010,0.6010,-0.2475,0.2475,-0.6010,-0.6010,0.2475,-0.2475,0.6010,0.0*
%
%ADD21ROTATEDRECTD21*%

%ADD22O,0.8000X3.0000*%
%ADD23R,0.7620X1.0100*%
%ADD24R,2.2870X1.0100*%
%ADD25R,1.8000X3.7000*%
%ADD26R,0.6000X1.8000*%
G04:AMPARAMS|DCode=27|XSize=0.6mm|YSize=1.8mm|CornerRadius=0.15mm|HoleSize=0mm|Usage=FLASHONLY|Rotation=0.000|XOffset=0mm|YOffset=0mm|HoleType=Round|Shape=RoundedRectangle|*
%AMROUNDEDRECTD27*
21,1,0.6000,1.5000,0,0,0.0*
21,1,0.3000,1.8000,0,0,0.0*
1,1,0.3000,0.1500,-0.7500*
1,1,0.3000,-0.1500,-0.7500*
1,1,0.3000,-0.1500,0.7500*
1,1,0.3000,0.1500,0.7500*
%
%ADD27ROUNDEDRECTD27*%
%ADD28R,1.1000X1.5000*%
%ADD29R,0.6000X0.9000*%
%ADD30C,0.6000*%
%ADD31C,0.4500*%
%ADD32C,1.0000*%
%ADD33C,0.5000*%
%ADD34C,0.1500*%
%ADD35C,0.8000*%
%ADD36C,1.8000*%
%ADD37R,1.8000X1.8000*%
%ADD38R,1.4000X1.4000*%
%ADD39C,1.4000*%
%ADD40C,1.7000*%
%ADD41R,1.8000X1.8000*%
%ADD42P,1.9799X4X360.0*%
%ADD43P,1.9799X4X90.0*%
%ADD44C,0.6000*%
%ADD45C,1.0000*%
%ADD46C,0.9000*%
%ADD47R,1.4000X1.3900*%
%ADD48R,4.8600X3.3600*%
%ADD49R,1.5000X1.0000*%
%ADD50R,1.0000X0.9000*%
%ADD51R,1.6000X1.8000*%
%ADD52O,1.5500X0.2500*%
%ADD53R,1.5500X0.2500*%
%ADD54R,0.2500X1.5500*%
%ADD55R,4.6000X4.6000*%
G04:AMPARAMS|DCode=56|XSize=0.76mm|YSize=1.27mm|CornerRadius=0mm|HoleSize=0mm|Usage=FLASHONLY|Rotation=315.000|XOffset=0mm|YOffset=0mm|HoleType=Round|Shape=Rectangle|*
%AMROTATEDRECTD56*
4,1,4,-0.7177,-0.1803,0.1803,0.7177,0.7177,0.1803,-0.1803,-0.7177,-0.7177,-0.1803,0.0*
%
%ADD56ROTATEDRECTD56*%

%ADD57R,2.2000X1.6000*%
%ADD58R,2.0000X3.5000*%
%ADD59R,0.9000X0.6900*%
%ADD60R,0.9900X0.6900*%
%ADD61R,0.6900X0.9000*%
%ADD62R,0.6900X0.9900*%
%ADD63R,1.4000X1.4000*%
%ADD64R,1.6000X2.9000*%
%ADD65R,1.5000X1.1000*%
%ADD66R,1.8000X1.6000*%
%ADD67R,2.9000X1.6000*%
%ADD68R,3.8100X4.2400*%
%ADD69C,0.1600*%
%ADD70C,0.1800*%
%ADD71C,0.3000*%
G36*
X322820Y603500D02*
Y548500D01*
X327820Y543500D01*
X367820D01*
X372820Y538500D01*
Y531500D01*
Y497500D01*
X376820Y493500D01*
X383820D01*
D01*
X494500Y493500D01*
X497294Y490706D01*
Y365294D01*
X495624Y363624D01*
X442000D01*
X440852Y363148D01*
X436852Y359148D01*
X436376Y358000D01*
X431624Y358000D01*
Y425731D01*
Y425731D01*
X431427Y426207D01*
X431148Y426879D01*
X431148D01*
Y426879D01*
X430606Y427421D01*
X430485Y428618D01*
X430531Y428970D01*
X432940Y431380D01*
X433818Y433500D01*
Y453000D01*
X437320D01*
Y467000D01*
X430000D01*
Y470000D01*
X437320D01*
Y484000D01*
X411320D01*
Y484000D01*
X386820D01*
Y474500D01*
X385820Y473500D01*
X384820Y472500D01*
X370820D01*
X369898Y471578D01*
X330509D01*
X328820Y473268D01*
Y508500D01*
Y522500D01*
X322820Y528500D01*
X292820D01*
Y528500D01*
X287820Y533500D01*
Y603500D01*
X292820Y608500D01*
X317820D01*
X322820Y603500D01*
D02*
G37*
G36*
X276003Y284003D02*
X276919Y283391D01*
X278000Y283176D01*
X287363D01*
X287962Y282056D01*
X287761Y281756D01*
X287412Y280000D01*
X287761Y278244D01*
X288756Y276756D01*
X289176Y276475D01*
Y276000D01*
X289176Y276000D01*
X289391Y274919D01*
X290003Y274003D01*
X291176Y272830D01*
Y270478D01*
X290471Y270186D01*
X289906Y270058D01*
X289081Y270609D01*
X288000Y270824D01*
X287500Y271902D01*
Y274500D01*
X273500D01*
Y270725D01*
X272919Y270609D01*
X272003Y269997D01*
X272003Y269997D01*
X270003Y267997D01*
X269391Y267081D01*
X269176Y266000D01*
X269176Y266000D01*
Y262500D01*
X256500D01*
Y249500D01*
X269500D01*
Y230500D01*
X256500D01*
Y217500D01*
X270500D01*
Y229500D01*
X273500D01*
Y217500D01*
Y205500D01*
X273500D01*
Y194500D01*
X273500D01*
Y181500D01*
X285946D01*
Y170500D01*
X273500D01*
Y157500D01*
X287500D01*
Y163506D01*
X290767Y166773D01*
X290767Y166773D01*
X291379Y167689D01*
X291594Y168770D01*
X291594Y168770D01*
Y193887D01*
X298037Y200329D01*
X298037Y200329D01*
X298649Y201246D01*
X298864Y202327D01*
X298864Y202327D01*
Y205676D01*
X300211D01*
X301103Y204772D01*
X300986Y194894D01*
X299935Y194225D01*
X299708Y194249D01*
X298000Y194588D01*
X296244Y194239D01*
X294756Y193244D01*
X293761Y191756D01*
X293412Y190000D01*
X293761Y188244D01*
X294756Y186756D01*
X296244Y185761D01*
X297418Y185528D01*
X298057Y184274D01*
X298060Y184203D01*
X297761Y183756D01*
X297412Y182000D01*
X297761Y180244D01*
X298756Y178755D01*
X299176Y178475D01*
Y176500D01*
X293500D01*
Y159500D01*
X299660D01*
X300000Y159156D01*
Y159500D01*
X310500D01*
Y176500D01*
X304824D01*
Y178475D01*
X305244Y178755D01*
X306239Y180244D01*
X306588Y182000D01*
X306239Y183756D01*
X306038Y184056D01*
X306637Y185176D01*
X310891D01*
X311506Y184256D01*
X312994Y183261D01*
X314750Y182912D01*
X316506Y183261D01*
X317994Y184256D01*
X318989Y185744D01*
X318990Y185750D01*
X322676D01*
Y184025D01*
X322256Y183744D01*
X321261Y182256D01*
X320912Y180500D01*
X321261Y178744D01*
X321912Y177770D01*
X321500Y176500D01*
X321500D01*
X321500Y176500D01*
Y159500D01*
X337500D01*
Y157500D01*
X356500D01*
Y164941D01*
X360000D01*
X360000Y164941D01*
X361170Y165174D01*
X362163Y165837D01*
X368163Y171837D01*
X368163Y171837D01*
X368826Y172830D01*
X369059Y174000D01*
X369059Y174000D01*
Y176975D01*
X369235Y177151D01*
X380136D01*
X381267Y176926D01*
X382730Y177217D01*
X383970Y178046D01*
X387244Y181320D01*
X388073Y182560D01*
X388363Y184023D01*
Y194416D01*
X389374Y195427D01*
X440376D01*
Y54672D01*
X437327Y51624D01*
X396000Y51624D01*
X394852Y51148D01*
X393954Y52046D01*
X390228Y55772D01*
X390000Y56323D01*
Y90095D01*
X390000Y91327D01*
Y92000D01*
X390000Y92000D01*
X389572Y92428D01*
X389507Y92493D01*
X386000Y96000D01*
X382476Y99524D01*
X382476D01*
X382000Y100000D01*
X308000D01*
X300000Y92000D01*
X300000Y2549D01*
X296898D01*
X296000Y3447D01*
X296000Y31000D01*
X265000Y31000D01*
X265000Y2549D01*
X233624D01*
Y28808D01*
X234894Y29061D01*
X235765Y26957D01*
X237368Y24868D01*
X239457Y23265D01*
X241889Y22257D01*
X244500Y21914D01*
X247111Y22257D01*
X249543Y23265D01*
X251632Y24868D01*
X253235Y26957D01*
X254243Y29390D01*
X254586Y32000D01*
X254243Y34611D01*
X253235Y37043D01*
X251632Y39132D01*
X249543Y40735D01*
X247111Y41743D01*
X244500Y42086D01*
X241889Y41743D01*
X239457Y40735D01*
X237368Y39132D01*
X235765Y37043D01*
X234894Y34939D01*
X233624Y35192D01*
Y95357D01*
X233560Y95511D01*
X233592Y95674D01*
X233567Y95800D01*
X233592Y95926D01*
X233560Y96089D01*
X233624Y96243D01*
Y111357D01*
X233560Y111510D01*
X233592Y111673D01*
X233567Y111800D01*
X233592Y111926D01*
X233560Y112090D01*
X233624Y112243D01*
Y174000D01*
X233624Y289327D01*
X241000Y296704D01*
X241113Y296976D01*
X241329Y297177D01*
X241341Y297528D01*
X241475Y297852D01*
X242090Y299056D01*
X260950D01*
X276003Y284003D01*
D02*
G37*
G36*
X405906Y272252D02*
Y261483D01*
X399423Y255000D01*
X398250Y255486D01*
Y256250D01*
X381493D01*
X381304Y256480D01*
X381304Y256480D01*
Y263995D01*
X382005Y264696D01*
X395520D01*
X395520Y264696D01*
X396601Y264911D01*
X397517Y265523D01*
X404733Y272738D01*
X405906Y272252D01*
D02*
G37*
G36*
X430000Y425731D02*
Y308000D01*
X428000Y306000D01*
X371994D01*
X370824Y307170D01*
Y324000D01*
X370824Y324000D01*
X370609Y325081D01*
X369997Y325997D01*
X369997Y325997D01*
X364490Y331505D01*
X364588Y332000D01*
X364239Y333756D01*
X363244Y335244D01*
X361756Y336239D01*
X360000Y336588D01*
X358244Y336239D01*
X357270Y335588D01*
X356000Y336225D01*
Y384675D01*
X367820D01*
X367820Y384675D01*
X368901Y384891D01*
X369817Y385503D01*
X373817Y389503D01*
X373817Y389503D01*
X374184Y390052D01*
X374429Y390419D01*
X374644Y391500D01*
Y413330D01*
X380450Y419136D01*
X419280D01*
X419280Y419136D01*
X420361Y419351D01*
X421277Y419963D01*
X427832Y426518D01*
X429213D01*
X430000Y425731D01*
D02*
G37*
G36*
X370820Y462500D02*
X384773D01*
X386251Y461022D01*
Y451931D01*
X384820Y450500D01*
X373820D01*
X372820Y449500D01*
X368820Y445500D01*
Y393500D01*
X365820Y390500D01*
X343820D01*
X341444Y392876D01*
Y393500D01*
Y437500D01*
X340968Y438648D01*
X338968Y440648D01*
X337820Y441124D01*
X331493D01*
X329820Y442796D01*
Y462500D01*
X330742Y463422D01*
X369898D01*
X370820Y462500D01*
D02*
G37*
G36*
X330820Y439500D02*
X337820D01*
X339820Y437500D01*
Y393500D01*
Y386500D01*
X336820Y383500D01*
X275820Y383500D01*
X275820Y384500D01*
Y406500D01*
X275820Y444500D01*
X278820Y447500D01*
X322820D01*
X330820Y439500D01*
D02*
G37*
G36*
X375656Y262401D02*
Y257650D01*
X371773Y253767D01*
X371161Y252851D01*
X370946Y251770D01*
X370946Y251770D01*
Y213054D01*
X354000D01*
X353669Y212989D01*
X353566Y213009D01*
X353566Y213009D01*
X326434D01*
X326331Y212989D01*
X326000Y213054D01*
X325054D01*
Y218000D01*
X324839Y219081D01*
X324227Y219997D01*
X318948Y225277D01*
X318762Y225782D01*
X318902Y226908D01*
X323997Y232003D01*
X324609Y232919D01*
X324824Y234000D01*
X324824Y234000D01*
Y244000D01*
Y258748D01*
X325022Y258946D01*
X360000D01*
X360258Y258997D01*
X360470Y258955D01*
X360470Y258955D01*
X369530D01*
X369530Y258955D01*
X370427Y259134D01*
X371188Y259642D01*
X371658Y260112D01*
X371734Y260226D01*
X371997Y260401D01*
X374482Y262887D01*
X375656Y262401D01*
D02*
G37*
G36*
X237893Y299883D02*
X237893Y299883D01*
X238809Y299271D01*
X239364Y299160D01*
X239852Y297852D01*
X232000Y290000D01*
X232000Y174000D01*
Y112243D01*
X231912Y111800D01*
X232000Y111357D01*
Y96243D01*
X231912Y95800D01*
X232000Y95357D01*
Y2549D01*
X192549D01*
Y150000D01*
X192355Y150975D01*
X192172Y151250D01*
X191802Y151802D01*
X180549Y163056D01*
Y244000D01*
X180355Y244975D01*
X180000Y245507D01*
Y296000D01*
X180000Y314000D01*
X192000Y326000D01*
X210000Y326000D01*
X210888Y326888D01*
X237893Y299883D01*
D02*
G37*
G36*
X497451Y360549D02*
Y20000D01*
X497455Y19980D01*
X497122Y16594D01*
X496128Y13319D01*
X494515Y10301D01*
X492344Y7656D01*
X489699Y5485D01*
X486680Y3872D01*
X483406Y2878D01*
X480020Y2545D01*
X480000Y2549D01*
X390898D01*
X390000Y3447D01*
X390000Y44000D01*
X396000Y50000D01*
X438000Y50000D01*
X442000Y54000D01*
Y195516D01*
X443017Y195718D01*
X444257Y196547D01*
X451454Y203743D01*
X452282Y204984D01*
X452573Y206447D01*
Y246553D01*
X452282Y248017D01*
X451454Y249257D01*
X447073Y253637D01*
Y298553D01*
X446782Y300016D01*
X445953Y301257D01*
X438000Y309210D01*
X438000Y358000D01*
X442000Y362000D01*
X496000D01*
X497451Y360549D01*
D02*
G37*
G36*
X175451Y242944D02*
Y162000D01*
X175645Y161024D01*
X176198Y160198D01*
X187451Y148944D01*
Y2549D01*
X20000D01*
X19980Y2545D01*
X16594Y2878D01*
X13319Y3872D01*
X10301Y5485D01*
X7656Y7656D01*
X5485Y10301D01*
X3872Y13319D01*
X2878Y16594D01*
X2545Y19980D01*
X2549Y20000D01*
Y247451D01*
X170944D01*
X175451Y242944D01*
D02*
G37*
G36*
X375656Y208085D02*
Y206103D01*
X375656Y206103D01*
X375871Y205022D01*
X376483Y204106D01*
X376696Y203893D01*
Y187304D01*
X368250D01*
Y204250D01*
X352750D01*
Y187733D01*
X352000Y186588D01*
X350244Y186239D01*
X349594Y185805D01*
X348324Y186483D01*
Y195000D01*
X348250Y195373D01*
Y204250D01*
X345868D01*
X345062Y205232D01*
X345088Y205364D01*
X344753Y207049D01*
X344748Y207271D01*
X345398Y208319D01*
X351946D01*
X352003Y208233D01*
X352919Y207621D01*
X354000Y207406D01*
X372147D01*
X372147Y207406D01*
X373228Y207621D01*
X374144Y208233D01*
X374482Y208571D01*
X375656Y208085D01*
D02*
G37*
G36*
X427000Y295006D02*
Y285500D01*
Y273500D01*
Y261500D01*
X439426D01*
Y252054D01*
X439717Y250590D01*
X440546Y249350D01*
X442000Y247896D01*
Y205104D01*
X439970Y203074D01*
X424500D01*
Y213500D01*
Y226500D01*
X416500D01*
Y246500D01*
X409824D01*
Y249147D01*
X418997Y258320D01*
X419609Y259236D01*
X419824Y260317D01*
Y261500D01*
X424000D01*
Y273500D01*
Y286500D01*
X410000D01*
X410000Y287770D01*
Y296946D01*
X425060D01*
X427000Y295006D01*
D02*
G37*
G36*
X388376Y91327D02*
Y56000D01*
X388852Y54852D01*
X390000Y53704D01*
Y46296D01*
X388852Y45148D01*
X388376Y44000D01*
X388376Y3447D01*
X387776Y2549D01*
X302522D01*
X301624Y3447D01*
X301624Y91327D01*
X308673Y98376D01*
X381328D01*
X388376Y91327D01*
D02*
G37*
G36*
X20000Y647451D02*
X189102D01*
X190000Y646553D01*
X190000Y510000D01*
X210000Y490000D01*
X266000D01*
X278000Y478000D01*
X278000Y448784D01*
X277672Y448648D01*
X274672Y445648D01*
X274196Y444500D01*
X274196Y406500D01*
Y384500D01*
X274196Y384500D01*
X274196Y384500D01*
X274196Y383500D01*
X274441Y382909D01*
X274672Y382352D01*
X274672Y382352D01*
X274672Y382352D01*
X275229Y382121D01*
X275820Y381876D01*
X336820Y381876D01*
X337968Y382352D01*
X340616Y385000D01*
X341820Y384502D01*
X354376D01*
Y336225D01*
X354478Y335979D01*
X354459Y335714D01*
X354707Y335427D01*
X354852Y335077D01*
X355098Y334975D01*
X355272Y334774D01*
X356000Y334409D01*
Y334102D01*
X355129Y332000D01*
X355490D01*
X355490Y332000D01*
X355529Y331411D01*
X355644Y330833D01*
X355834Y330274D01*
X356095Y329745D01*
X356422Y329255D01*
X356811Y328811D01*
X357255Y328422D01*
X357745Y328094D01*
X358274Y327834D01*
X358833Y327644D01*
X359411Y327529D01*
X360000Y327490D01*
X360545Y327526D01*
X365221Y322849D01*
Y306000D01*
X365256Y305565D01*
X365357Y305141D01*
X365524Y304739D01*
X365752Y304367D01*
X366035Y304035D01*
X367721Y302349D01*
Y290000D01*
X367676D01*
Y277000D01*
X367750Y276626D01*
Y267750D01*
X369698D01*
X370184Y266576D01*
X368003Y264396D01*
X367501Y263645D01*
X362079D01*
X361997Y263767D01*
X361081Y264380D01*
X360000Y264594D01*
X323853D01*
X322772Y264380D01*
X321856Y263767D01*
X321856Y263767D01*
X320003Y261915D01*
X319391Y260998D01*
X319176Y259918D01*
X319176Y259917D01*
Y245170D01*
X317424Y243418D01*
X316250Y243904D01*
Y245750D01*
Y250750D01*
Y255750D01*
Y260750D01*
Y266250D01*
X307374D01*
X307000Y266325D01*
X301670D01*
X300864Y267130D01*
Y272870D01*
X301997Y274003D01*
X302609Y274919D01*
X302824Y276000D01*
X302706Y276596D01*
X302944Y276756D01*
X303939Y278244D01*
X303964Y278369D01*
X305129Y279041D01*
X306210Y278826D01*
X313180D01*
X317003Y275003D01*
X317003Y275003D01*
X317552Y274636D01*
X317750Y274504D01*
Y267750D01*
X333250D01*
Y284898D01*
X333610Y285210D01*
X334520Y285706D01*
X336000Y285412D01*
X336495Y285510D01*
X337676Y284330D01*
Y277000D01*
X337750Y276626D01*
Y267750D01*
X343250D01*
Y276626D01*
X343324Y277000D01*
Y285500D01*
X343250Y285874D01*
Y286250D01*
X343175D01*
X343109Y286581D01*
X342497Y287497D01*
X340905Y289089D01*
X340905Y289093D01*
X341435Y290212D01*
X341822Y290310D01*
X351696D01*
X352676Y289330D01*
Y277000D01*
X352750Y276626D01*
Y267750D01*
X363250D01*
Y276626D01*
X363324Y277000D01*
Y290000D01*
X363278D01*
Y293500D01*
X363248Y293881D01*
X363206Y294093D01*
X363142Y294359D01*
X362976Y294762D01*
X362833Y294994D01*
X362712Y295175D01*
X362465Y295465D01*
X358791Y299139D01*
X358500Y299387D01*
Y311230D01*
D01*
X358500Y311862D01*
Y311863D01*
Y311863D01*
X358508Y311992D01*
X358509Y311999D01*
X358500Y312500D01*
X358492D01*
X358488D01*
X358482D01*
X358476D01*
X358470Y312588D01*
X358355Y313167D01*
X358166Y313725D01*
X358000Y314061D01*
Y316000D01*
X356061D01*
X355725Y316166D01*
X355167Y316355D01*
X354588Y316470D01*
X353999Y316509D01*
X353411Y316470D01*
X352832Y316355D01*
X352273Y316166D01*
X351937Y316000D01*
X335398Y316000D01*
X334500Y316898D01*
Y329500D01*
X334000D01*
Y330000D01*
X252240D01*
X233044Y349197D01*
X233571Y350245D01*
X234044Y350411D01*
X234851Y350449D01*
X242640Y342660D01*
X244760Y341782D01*
X315151D01*
X315336Y341336D01*
X318780Y339909D01*
X322224Y341336D01*
X323651Y344780D01*
X322224Y348224D01*
X318780Y349651D01*
X315336Y348224D01*
X315151Y347778D01*
X246002D01*
X238456Y355324D01*
X238641Y355770D01*
X237214Y359214D01*
X233770Y360641D01*
X230326Y359214D01*
X228899Y355770D01*
X228900Y355768D01*
X228064Y354932D01*
X227912Y354834D01*
X224556Y353444D01*
X223129Y350000D01*
X223293Y349605D01*
X222395Y348707D01*
X222000Y348871D01*
X218556Y347444D01*
X217129Y344000D01*
X217293Y343605D01*
X216395Y342707D01*
X216000Y342871D01*
X212556Y341444D01*
X211129Y338000D01*
X211408Y337328D01*
X210510Y336430D01*
X210000Y336641D01*
X206556Y335214D01*
X205129Y331770D01*
X205425Y331056D01*
X204719Y330000D01*
X190000D01*
Y326296D01*
X178852Y315148D01*
X178376Y314000D01*
X178376Y296000D01*
Y256376D01*
X173802Y251802D01*
X172975Y252355D01*
X172000Y252549D01*
X152697D01*
X152211Y253722D01*
X159244Y260756D01*
X160239Y262244D01*
X160588Y264000D01*
Y298000D01*
X160239Y299756D01*
X159244Y301244D01*
X157756Y302239D01*
X156000Y302588D01*
X154244Y302239D01*
X152756Y301244D01*
X151761Y299756D01*
X151412Y298000D01*
Y265900D01*
X145599Y260088D01*
X77351D01*
X66294Y271145D01*
X64806Y272139D01*
X63050Y272488D01*
X61294Y272139D01*
X59806Y271145D01*
X58811Y269656D01*
X58462Y267900D01*
X58811Y266145D01*
X59806Y264656D01*
X70739Y253722D01*
X70253Y252549D01*
X40634D01*
X39955Y253819D01*
X40239Y254244D01*
X40588Y256000D01*
X40255Y257676D01*
X40258Y257949D01*
X40791Y258946D01*
X46245D01*
X46526Y258526D01*
X48014Y257531D01*
X49770Y257182D01*
X51526Y257531D01*
X53014Y258526D01*
X54009Y260014D01*
X54358Y261770D01*
X54009Y263526D01*
X53014Y265014D01*
X51526Y266009D01*
X49770Y266358D01*
X48014Y266009D01*
X46526Y265014D01*
X46245Y264594D01*
X17400D01*
X10634Y271360D01*
Y347309D01*
X11904Y347988D01*
X12244Y347761D01*
X14000Y347412D01*
X15756Y347761D01*
X17244Y348756D01*
X18239Y350244D01*
X18588Y352000D01*
X18239Y353756D01*
X18078Y353996D01*
Y364004D01*
X18239Y364244D01*
X18588Y366000D01*
X18239Y367756D01*
X17244Y369244D01*
X15756Y370239D01*
X14000Y370588D01*
X12244Y370239D01*
X11904Y370012D01*
X10634Y370690D01*
Y400870D01*
X12940Y403176D01*
X14475D01*
X14756Y402756D01*
X16244Y401761D01*
X18000Y401412D01*
X19756Y401761D01*
X21244Y402756D01*
X22239Y404244D01*
X22588Y406000D01*
X22239Y407756D01*
X21244Y409244D01*
X19756Y410239D01*
X18000Y410588D01*
X16244Y410239D01*
X14756Y409244D01*
X14475Y408824D01*
X11770D01*
X10689Y408609D01*
X10282Y408338D01*
X9473Y409324D01*
X20325Y420176D01*
X21464Y419615D01*
X21409Y419200D01*
X21770Y416459D01*
X22828Y413905D01*
X24511Y411712D01*
X26705Y410028D01*
X29259Y408970D01*
X32000Y408610D01*
X34741Y408970D01*
X37295Y410028D01*
X39489Y411712D01*
X41172Y413905D01*
X42230Y416459D01*
X42591Y419200D01*
X42230Y421941D01*
X41172Y424496D01*
X39489Y426689D01*
X38700Y427294D01*
X38770Y428841D01*
X38967Y428973D01*
X45504Y435510D01*
X46000Y435412D01*
X47756Y435761D01*
X49244Y436756D01*
X50239Y438244D01*
X50588Y440000D01*
X50239Y441756D01*
X49244Y443244D01*
X47756Y444239D01*
X46000Y444588D01*
X44244Y444239D01*
X43784Y443931D01*
X42591Y444600D01*
X42230Y447341D01*
X41172Y449896D01*
X39489Y452089D01*
X37295Y453772D01*
X34741Y454830D01*
X32000Y455191D01*
X29259Y454830D01*
X26705Y453772D01*
X24511Y452089D01*
X22828Y449896D01*
X21770Y447341D01*
X21409Y444600D01*
X21770Y441859D01*
X22828Y439305D01*
X24511Y437112D01*
X26705Y435429D01*
X27584Y435065D01*
X27555Y434919D01*
X27125Y433795D01*
X26044Y433579D01*
X25128Y432967D01*
X25128Y432967D01*
X3722Y411562D01*
X2549Y412048D01*
Y630000D01*
X2545Y630020D01*
X2878Y633406D01*
X3872Y636680D01*
X5485Y639699D01*
X7656Y642344D01*
X10301Y644515D01*
X13319Y646128D01*
X16594Y647122D01*
X19980Y647455D01*
X20000Y647451D01*
D02*
G37*
G36*
X401820Y641500D02*
X403820Y639500D01*
Y622500D01*
X406820Y619500D01*
Y615500D01*
Y580500D01*
X408820Y578500D01*
X415820D01*
X417197Y577124D01*
Y558500D01*
X417672Y557352D01*
X418820Y556876D01*
X419147D01*
X421672Y554352D01*
X422197Y553827D01*
Y540500D01*
X422672Y539352D01*
X422820Y539204D01*
Y538500D01*
X420444Y536124D01*
X381197D01*
X378820Y538500D01*
Y641500D01*
X380496Y643176D01*
X400144D01*
X401820Y641500D01*
D02*
G37*
G36*
X446820Y529500D02*
X476820D01*
Y501500D01*
X473820Y498500D01*
X379820D01*
X377820Y500500D01*
Y508500D01*
Y531500D01*
X380820Y534500D01*
X441820D01*
X446820Y529500D01*
D02*
G37*
G36*
X427820Y577500D02*
Y564500D01*
X428820Y563500D01*
X476820D01*
X478820Y561500D01*
Y536500D01*
Y535500D01*
X476820Y533500D01*
X446820D01*
X441820Y538500D01*
X425820D01*
X423820Y540500D01*
Y554500D01*
X422820Y555500D01*
X419820Y558500D01*
X418820D01*
Y577500D01*
X419820Y578500D01*
X422231D01*
X422820Y578383D01*
X423408Y578500D01*
X426820D01*
X427820Y577500D01*
D02*
G37*
%LPC*%
G36*
X102485Y130588D02*
X100729Y130239D01*
X99241Y129244D01*
X98246Y127756D01*
X97897Y126000D01*
Y75465D01*
X97190Y75172D01*
X94996Y73489D01*
X93313Y71295D01*
X92255Y68741D01*
X91894Y66000D01*
X92255Y63259D01*
X93313Y60705D01*
X94996Y58511D01*
X97190Y56828D01*
X97897Y56535D01*
Y50065D01*
X97190Y49772D01*
X96299Y49088D01*
X88985D01*
Y51500D01*
X75985D01*
Y37500D01*
X88985D01*
Y39912D01*
X91985D01*
X92255Y37859D01*
X93313Y35305D01*
X94996Y33111D01*
X96973Y31594D01*
X96840Y30733D01*
X96634Y30324D01*
X88985D01*
Y34500D01*
X75985D01*
Y20500D01*
X88985D01*
Y24676D01*
X95985D01*
Y13500D01*
X108985D01*
Y24676D01*
X113815D01*
X116721Y21770D01*
X116195Y20500D01*
X110985D01*
Y7500D01*
X128985D01*
Y20500D01*
X122809D01*
Y22500D01*
X122809Y22500D01*
X122594Y23581D01*
X121982Y24497D01*
X116982Y29497D01*
X116066Y30109D01*
X114985Y30324D01*
X114985Y30324D01*
X108336D01*
X108130Y30733D01*
X107997Y31594D01*
X109974Y33111D01*
X111657Y35305D01*
X112715Y37859D01*
X113076Y40600D01*
X112715Y43341D01*
X111657Y45895D01*
X109974Y48089D01*
X107780Y49772D01*
X107073Y50065D01*
Y56535D01*
X107780Y56828D01*
X109974Y58511D01*
X111657Y60705D01*
X112715Y63259D01*
X113076Y66000D01*
X112715Y68741D01*
X111657Y71295D01*
X109974Y73489D01*
X107780Y75172D01*
X107073Y75465D01*
Y126000D01*
X106724Y127756D01*
X105729Y129244D01*
X104241Y130239D01*
X102485Y130588D01*
D02*
G37*
G36*
X167500Y114391D02*
X164759Y114030D01*
X162205Y112972D01*
X160011Y111289D01*
X158328Y109095D01*
X157270Y106541D01*
X156909Y103800D01*
X157270Y101059D01*
X158328Y98505D01*
X160011Y96311D01*
X162205Y94628D01*
X164759Y93570D01*
X167500Y93209D01*
X170241Y93570D01*
X172795Y94628D01*
X174989Y96311D01*
X176672Y98505D01*
X177730Y101059D01*
X178091Y103800D01*
X177730Y106541D01*
X176672Y109095D01*
X174989Y111289D01*
X172795Y112972D01*
X170241Y114030D01*
X167500Y114391D01*
D02*
G37*
G36*
X219500Y42086D02*
X216889Y41743D01*
X214457Y40735D01*
X212368Y39132D01*
X210765Y37043D01*
X209757Y34611D01*
X209414Y32000D01*
X209757Y29390D01*
X210765Y26957D01*
X212368Y24868D01*
X214457Y23265D01*
X216889Y22257D01*
X219500Y21914D01*
X222111Y22257D01*
X224543Y23265D01*
X226632Y24868D01*
X228235Y26957D01*
X229243Y29390D01*
X229586Y32000D01*
X229243Y34611D01*
X228235Y37043D01*
X226632Y39132D01*
X224543Y40735D01*
X222111Y41743D01*
X219500Y42086D01*
D02*
G37*
G36*
X142500Y114391D02*
X139759Y114030D01*
X137205Y112972D01*
X135011Y111289D01*
X133328Y109095D01*
X132270Y106541D01*
X131909Y103800D01*
X132270Y101059D01*
X133328Y98505D01*
X135011Y96311D01*
X137205Y94628D01*
X139759Y93570D01*
X142500Y93209D01*
X145241Y93570D01*
X147795Y94628D01*
X149989Y96311D01*
X151672Y98505D01*
X152730Y101059D01*
X153091Y103800D01*
X152730Y106541D01*
X151672Y109095D01*
X149989Y111289D01*
X147795Y112972D01*
X145241Y114030D01*
X142500Y114391D01*
D02*
G37*
G36*
X62500D02*
X59759Y114030D01*
X57205Y112972D01*
X55011Y111289D01*
X53328Y109095D01*
X52270Y106541D01*
X51909Y103800D01*
X52270Y101059D01*
X53328Y98505D01*
X55011Y96311D01*
X57205Y94628D01*
X59759Y93570D01*
X62500Y93209D01*
X65241Y93570D01*
X67795Y94628D01*
X69989Y96311D01*
X71672Y98505D01*
X72730Y101059D01*
X73091Y103800D01*
X72730Y106541D01*
X71672Y109095D01*
X69989Y111289D01*
X67795Y112972D01*
X65241Y114030D01*
X62500Y114391D01*
D02*
G37*
G36*
X37500D02*
X34759Y114030D01*
X32205Y112972D01*
X30011Y111289D01*
X28328Y109095D01*
X27270Y106541D01*
X26909Y103800D01*
X27270Y101059D01*
X28328Y98505D01*
X30011Y96311D01*
X32205Y94628D01*
X34759Y93570D01*
X37500Y93209D01*
X40241Y93570D01*
X42795Y94628D01*
X44989Y96311D01*
X46672Y98505D01*
X47730Y101059D01*
X48091Y103800D01*
X47730Y106541D01*
X46672Y109095D01*
X44989Y111289D01*
X42795Y112972D01*
X40241Y114030D01*
X37500Y114391D01*
D02*
G37*
G36*
Y42086D02*
X34890Y41743D01*
X32457Y40735D01*
X30368Y39132D01*
X28765Y37043D01*
X27757Y34611D01*
X27414Y32000D01*
X27757Y29390D01*
X28765Y26957D01*
X30368Y24868D01*
X32457Y23265D01*
X34890Y22257D01*
X37500Y21914D01*
X40111Y22257D01*
X42543Y23265D01*
X44632Y24868D01*
X46235Y26957D01*
X47243Y29390D01*
X47586Y32000D01*
X47243Y34611D01*
X46235Y37043D01*
X44632Y39132D01*
X42543Y40735D01*
X40111Y41743D01*
X37500Y42086D01*
D02*
G37*
G36*
X34000Y630573D02*
X31781Y630281D01*
X29713Y629425D01*
X27938Y628062D01*
X26575Y626287D01*
X25719Y624219D01*
X25427Y622000D01*
X25719Y619781D01*
X26575Y617713D01*
X27938Y615938D01*
X29713Y614575D01*
X31781Y613719D01*
X34000Y613427D01*
X36219Y613719D01*
X38287Y614575D01*
X40062Y615938D01*
X41425Y617713D01*
X42281Y619781D01*
X42573Y622000D01*
X42281Y624219D01*
X41425Y626287D01*
X40062Y628062D01*
X38287Y629425D01*
X36219Y630281D01*
X34000Y630573D01*
D02*
G37*
G36*
X79000D02*
X76781Y630281D01*
X74714Y629425D01*
X72938Y628062D01*
X71575Y626287D01*
X70719Y624219D01*
X70427Y622000D01*
X70719Y619781D01*
X71575Y617713D01*
X72938Y615938D01*
X74714Y614575D01*
X76781Y613719D01*
X79000Y613427D01*
X81219Y613719D01*
X83287Y614575D01*
X85063Y615938D01*
X86425Y617713D01*
X87282Y619781D01*
X87574Y622000D01*
X87282Y624219D01*
X86425Y626287D01*
X85063Y628062D01*
X83287Y629425D01*
X81219Y630281D01*
X79000Y630573D01*
D02*
G37*
G36*
X167500Y42086D02*
X164890Y41743D01*
X162457Y40735D01*
X160368Y39132D01*
X158765Y37043D01*
X157757Y34611D01*
X157414Y32000D01*
X157757Y29390D01*
X158765Y26957D01*
X160368Y24868D01*
X162457Y23265D01*
X164890Y22257D01*
X167500Y21914D01*
X170110Y22257D01*
X172543Y23265D01*
X174632Y24868D01*
X176235Y26957D01*
X177243Y29390D01*
X177586Y32000D01*
X177243Y34611D01*
X176235Y37043D01*
X174632Y39132D01*
X172543Y40735D01*
X170110Y41743D01*
X167500Y42086D01*
D02*
G37*
G36*
X142500D02*
X139889Y41743D01*
X137457Y40735D01*
X135368Y39132D01*
X133765Y37043D01*
X132757Y34611D01*
X132414Y32000D01*
X132757Y29390D01*
X133765Y26957D01*
X135368Y24868D01*
X137457Y23265D01*
X139889Y22257D01*
X142500Y21914D01*
X145111Y22257D01*
X147543Y23265D01*
X149632Y24868D01*
X151235Y26957D01*
X152243Y29390D01*
X152586Y32000D01*
X152243Y34611D01*
X151235Y37043D01*
X149632Y39132D01*
X147543Y40735D01*
X145111Y41743D01*
X142500Y42086D01*
D02*
G37*
G36*
X62500D02*
X59889Y41743D01*
X57457Y40735D01*
X55368Y39132D01*
X53765Y37043D01*
X52757Y34611D01*
X52414Y32000D01*
X52757Y29390D01*
X53765Y26957D01*
X55368Y24868D01*
X57457Y23265D01*
X59889Y22257D01*
X62500Y21914D01*
X65111Y22257D01*
X67543Y23265D01*
X69632Y24868D01*
X71235Y26957D01*
X72243Y29390D01*
X72586Y32000D01*
X72243Y34611D01*
X71235Y37043D01*
X69632Y39132D01*
X67543Y40735D01*
X65111Y41743D01*
X62500Y42086D01*
D02*
G37*
G36*
X166000Y403157D02*
X164244Y402808D01*
X162756Y401813D01*
X161761Y400324D01*
X161412Y398569D01*
X161761Y396813D01*
X162756Y395324D01*
X163176Y395044D01*
Y355330D01*
X156233Y348387D01*
X155620Y347471D01*
X155406Y346390D01*
X155406Y346390D01*
Y341755D01*
X154986Y341474D01*
X153991Y339986D01*
X153642Y338230D01*
X153991Y336474D01*
X154986Y334986D01*
X156474Y333991D01*
X158230Y333642D01*
X159986Y333991D01*
X161474Y334986D01*
X162469Y336474D01*
X162818Y338230D01*
X162469Y339986D01*
X161474Y341474D01*
X161054Y341755D01*
Y345220D01*
X167906Y352072D01*
X168292Y352033D01*
X169176Y351641D01*
Y341525D01*
X168756Y341244D01*
X167761Y339756D01*
X167412Y338000D01*
X167761Y336244D01*
X168756Y334756D01*
X170244Y333761D01*
X172000Y333412D01*
X173756Y333761D01*
X175244Y334756D01*
X176239Y336244D01*
X176588Y338000D01*
X176239Y339756D01*
X175244Y341244D01*
X174824Y341525D01*
Y377730D01*
X175244Y378011D01*
X176239Y379499D01*
X176588Y381255D01*
X176239Y383011D01*
X175244Y384499D01*
X173756Y385494D01*
X172000Y385843D01*
X170244Y385494D01*
X169944Y385294D01*
X168824Y385892D01*
Y395044D01*
X169244Y395324D01*
X170239Y396813D01*
X170588Y398569D01*
X170239Y400324D01*
X169244Y401813D01*
X167756Y402808D01*
X166000Y403157D01*
D02*
G37*
G36*
X32000Y505991D02*
X29259Y505630D01*
X26705Y504572D01*
X24511Y502889D01*
X22828Y500695D01*
X21770Y498141D01*
X21409Y495400D01*
X21770Y492659D01*
X22828Y490105D01*
X24511Y487911D01*
X26705Y486228D01*
X29259Y485171D01*
X32000Y484810D01*
X34741Y485171D01*
X37295Y486228D01*
X39489Y487911D01*
X41172Y490105D01*
X42230Y492659D01*
X42591Y495400D01*
X42230Y498141D01*
X41172Y500695D01*
X39489Y502889D01*
X37295Y504572D01*
X34741Y505630D01*
X32000Y505991D01*
D02*
G37*
G36*
X107300Y530591D02*
X104559Y530230D01*
X102005Y529172D01*
X99811Y527489D01*
X98128Y525295D01*
X97070Y522741D01*
X96709Y520000D01*
X97070Y517259D01*
X98128Y514705D01*
X99811Y512511D01*
X102005Y510828D01*
X104559Y509770D01*
X107300Y509409D01*
X108258Y509536D01*
X108465Y508282D01*
X108244Y508238D01*
X106756Y507243D01*
X105761Y505755D01*
X105702Y505460D01*
X96603Y496361D01*
X80080Y512884D01*
X78757Y513768D01*
X78498Y513820D01*
X77196Y514078D01*
X77196Y514078D01*
X72496D01*
X72256Y514239D01*
X70500Y514588D01*
X68744Y514239D01*
X67256Y513244D01*
X66261Y511756D01*
X65912Y510000D01*
X66261Y508244D01*
X67256Y506756D01*
X68744Y505761D01*
X70500Y505412D01*
X72256Y505761D01*
X72496Y505922D01*
X75507D01*
X90200Y491228D01*
Y489958D01*
X72503Y472261D01*
X72220Y472205D01*
X70731Y471210D01*
X69737Y469721D01*
X69387Y467966D01*
X69737Y466210D01*
X70731Y464721D01*
X72220Y463727D01*
X73976Y463377D01*
X75731Y463727D01*
X77220Y464721D01*
X78215Y466210D01*
X78271Y466493D01*
X98075Y486298D01*
X98359Y486354D01*
X99847Y487349D01*
X100842Y488837D01*
X100898Y489121D01*
X111484Y499706D01*
X111756Y499760D01*
X113244Y500755D01*
X114239Y502243D01*
X114588Y503999D01*
X114239Y505755D01*
X113244Y507243D01*
X111756Y508238D01*
X110252Y508537D01*
X110041Y509770D01*
X112595Y510828D01*
X114789Y512511D01*
X116472Y514705D01*
X117530Y517259D01*
X117890Y520000D01*
X117530Y522741D01*
X116472Y525295D01*
X114789Y527489D01*
X112595Y529172D01*
X110041Y530230D01*
X107300Y530591D01*
D02*
G37*
G36*
X126000Y488587D02*
X124244Y488238D01*
X122755Y487243D01*
X121761Y485755D01*
X121412Y483999D01*
X121761Y482243D01*
X121921Y482003D01*
Y477137D01*
X121921Y477137D01*
X122180Y475835D01*
X122232Y475576D01*
X123116Y474253D01*
X127608Y469761D01*
Y468491D01*
X125576Y466459D01*
X133071Y458964D01*
X135622Y461515D01*
X136513Y460750D01*
X136542Y459465D01*
X134556Y457479D01*
X142051Y449983D01*
X144602Y452534D01*
X145493Y451769D01*
X145522Y450485D01*
X143536Y448498D01*
X151031Y441003D01*
X153582Y443554D01*
X154473Y442789D01*
X154502Y441504D01*
X152516Y439519D01*
X152745Y439290D01*
Y438020D01*
X143021Y428295D01*
X142738Y428239D01*
X141249Y427244D01*
X140254Y425756D01*
X139905Y424000D01*
X140254Y422244D01*
X141249Y420756D01*
X142738Y419761D01*
X144493Y419412D01*
X146249Y419761D01*
X147738Y420756D01*
X148732Y422244D01*
X148789Y422528D01*
X158513Y432252D01*
X159783D01*
X160012Y432023D01*
X165232Y437243D01*
X181325D01*
X181566Y437083D01*
X183322Y436733D01*
X185077Y437083D01*
X186566Y438077D01*
X187561Y439566D01*
X187910Y441322D01*
X187561Y443077D01*
X186566Y444566D01*
X185077Y445560D01*
X183322Y445910D01*
X181566Y445560D01*
X181325Y445400D01*
X168838D01*
X163618Y450620D01*
X161632Y448634D01*
X160347Y448664D01*
X159583Y449554D01*
X162133Y452105D01*
X154638Y459600D01*
X152652Y457614D01*
X151367Y457644D01*
X150602Y458534D01*
X153153Y461085D01*
X145658Y468580D01*
X143672Y466594D01*
X142387Y466624D01*
X141621Y467514D01*
X144173Y470065D01*
X136677Y477561D01*
X134645Y475529D01*
X133375D01*
X130078Y478826D01*
Y482003D01*
X130239Y482243D01*
X130588Y483999D01*
X130239Y485755D01*
X129244Y487243D01*
X127755Y488238D01*
X126000Y488587D01*
D02*
G37*
G36*
X169789Y431895D02*
X168033Y431546D01*
X166734Y430678D01*
X166000Y430824D01*
X164919Y430609D01*
X164003Y429997D01*
X164003Y429997D01*
X154495Y420490D01*
X154000Y420588D01*
X152244Y420239D01*
X150756Y419244D01*
X149761Y417756D01*
X149412Y416000D01*
X149761Y414244D01*
X150756Y412756D01*
X152244Y411761D01*
X154000Y411412D01*
X155756Y411761D01*
X157244Y412756D01*
X158239Y414244D01*
X158588Y416000D01*
X158490Y416496D01*
X166100Y424106D01*
X166544Y424062D01*
X168033Y423068D01*
X169789Y422719D01*
X171544Y423068D01*
X173033Y424062D01*
X174028Y425551D01*
X174377Y427307D01*
X174028Y429063D01*
X173033Y430551D01*
X171544Y431546D01*
X169789Y431895D01*
D02*
G37*
G36*
X64011Y462578D02*
X62255Y462228D01*
X60766Y461234D01*
X59772Y459745D01*
X59422Y457989D01*
X59772Y456234D01*
X60766Y454745D01*
X62255Y453750D01*
X64011Y453401D01*
X64506Y453500D01*
X67176Y450830D01*
Y425373D01*
X67176Y425373D01*
X67391Y424293D01*
X68003Y423376D01*
X74613Y416766D01*
Y415496D01*
X71941Y412824D01*
X60440D01*
X60440Y412824D01*
X59359Y412609D01*
X58443Y411997D01*
X58443Y411997D01*
X56509Y410063D01*
X56014Y410162D01*
X54258Y409813D01*
X52769Y408818D01*
X51775Y407329D01*
X51426Y405574D01*
X51775Y403818D01*
X52769Y402329D01*
X54258Y401335D01*
X56014Y400985D01*
X57770Y401335D01*
X59258Y402329D01*
X60253Y403818D01*
X60602Y405574D01*
X60503Y406069D01*
X61610Y407176D01*
X70830D01*
X74008Y403998D01*
X73522Y402824D01*
X67410D01*
X67410Y402824D01*
X66330Y402609D01*
X65413Y401997D01*
X65413Y401997D01*
X64994Y401578D01*
X64499Y401677D01*
X62743Y401327D01*
X61255Y400333D01*
X60260Y398844D01*
X59911Y397089D01*
X60260Y395333D01*
X61255Y393844D01*
X62743Y392850D01*
X64499Y392500D01*
X66255Y392850D01*
X67743Y393844D01*
X68738Y395333D01*
X69087Y397089D01*
X69159Y397176D01*
X75117D01*
X76245Y396048D01*
X75790Y394707D01*
X75300Y394609D01*
X74384Y393997D01*
X74384Y393997D01*
X73479Y393092D01*
X72984Y393191D01*
X71228Y392842D01*
X69740Y391847D01*
X68745Y390359D01*
X68396Y388603D01*
X68745Y386847D01*
X69740Y385359D01*
X71228Y384364D01*
X72984Y384015D01*
X74740Y384364D01*
X76228Y385359D01*
X77223Y386847D01*
X77341Y387442D01*
X78719Y387860D01*
X88576Y378003D01*
X88576Y378003D01*
X89492Y377391D01*
X90573Y377176D01*
X100493D01*
X100493Y377176D01*
X101574Y377391D01*
X102490Y378003D01*
X103745Y379257D01*
X105015D01*
X106130Y378142D01*
X117232Y389243D01*
X109736Y396739D01*
X98635Y385637D01*
X99750Y384521D01*
Y383251D01*
X99324Y382824D01*
X91743D01*
X88565Y386002D01*
X89051Y387176D01*
X92533D01*
X92533Y387176D01*
X93614Y387391D01*
X94530Y388003D01*
X95399Y388872D01*
X97150Y387122D01*
X108251Y398223D01*
X100756Y405718D01*
X89655Y394617D01*
X90177Y394094D01*
X89651Y392824D01*
X87457D01*
X84346Y395934D01*
X84439Y396443D01*
X84847Y397230D01*
X85653Y397391D01*
X86389Y397882D01*
X88170Y396102D01*
X99271Y407203D01*
X91776Y414699D01*
X82217Y405139D01*
X80932Y405169D01*
X80166Y406059D01*
X90291Y416184D01*
X82796Y423679D01*
X79877Y420761D01*
X78607D01*
X72824Y426543D01*
Y452000D01*
X72609Y453081D01*
X71997Y453997D01*
X71997Y453997D01*
X68500Y457494D01*
X68599Y457989D01*
X68249Y459745D01*
X67255Y461234D01*
X65766Y462228D01*
X64011Y462578D01*
D02*
G37*
G36*
X81754Y453462D02*
X79998Y453112D01*
X78509Y452118D01*
X77515Y450629D01*
X77165Y448873D01*
X77515Y447118D01*
X78509Y445629D01*
X79998Y444635D01*
X81754Y444285D01*
X82249Y444384D01*
X89510Y437123D01*
X89412Y436627D01*
X89761Y434871D01*
X90756Y433383D01*
X92244Y432388D01*
X94000Y432039D01*
X95756Y432388D01*
X97244Y433383D01*
X98239Y434871D01*
X98588Y436627D01*
X98239Y438383D01*
X97244Y439871D01*
X95756Y440866D01*
X94000Y441215D01*
X93504Y441117D01*
X86243Y448378D01*
X86342Y448873D01*
X85992Y450629D01*
X84998Y452118D01*
X83509Y453112D01*
X81754Y453462D01*
D02*
G37*
G36*
X39300Y170591D02*
X36559Y170230D01*
X34005Y169172D01*
X31811Y167489D01*
X30128Y165296D01*
X29070Y162741D01*
X28709Y160000D01*
X29070Y157259D01*
X30128Y154705D01*
X31811Y152512D01*
X34005Y150829D01*
X36559Y149770D01*
X39300Y149410D01*
X42041Y149770D01*
X44595Y150829D01*
X46789Y152512D01*
X48472Y154705D01*
X49530Y157259D01*
X49891Y160000D01*
X49530Y162741D01*
X48472Y165296D01*
X46789Y167489D01*
X44595Y169172D01*
X42041Y170230D01*
X39300Y170591D01*
D02*
G37*
G36*
X155400Y170590D02*
X152659Y170229D01*
X150105Y169172D01*
X147911Y167488D01*
X146228Y165295D01*
X145170Y162741D01*
X144810Y160000D01*
X145170Y157259D01*
X146228Y154705D01*
X147911Y152511D01*
X150105Y150828D01*
X152659Y149770D01*
X155400Y149409D01*
X158141Y149770D01*
X160695Y150828D01*
X162889Y152511D01*
X164572Y154705D01*
X165630Y157259D01*
X165991Y160000D01*
X165630Y162741D01*
X164572Y165295D01*
X162889Y167488D01*
X160695Y169172D01*
X158141Y170229D01*
X155400Y170590D01*
D02*
G37*
G36*
X104600D02*
X101859Y170229D01*
X99305Y169172D01*
X97111Y167488D01*
X95428Y165295D01*
X94370Y162741D01*
X94010Y160000D01*
X94370Y157259D01*
X94663Y156552D01*
X85000Y146888D01*
X51000D01*
X49244Y146539D01*
X47756Y145544D01*
X40948Y138737D01*
X40241Y139030D01*
X37500Y139391D01*
X34759Y139030D01*
X32205Y137972D01*
X30011Y136289D01*
X28328Y134095D01*
X27270Y131541D01*
X26909Y128800D01*
X27270Y126059D01*
X28328Y123505D01*
X30011Y121311D01*
X32205Y119628D01*
X34759Y118570D01*
X37500Y118209D01*
X40241Y118570D01*
X42795Y119628D01*
X44989Y121311D01*
X46672Y123505D01*
X47730Y126059D01*
X48091Y128800D01*
X47730Y131541D01*
X47437Y132248D01*
X52901Y137712D01*
X86900D01*
X88656Y138061D01*
X90145Y139056D01*
X101152Y150063D01*
X101859Y149770D01*
X104600Y149409D01*
X107341Y149770D01*
X108048Y150063D01*
X132424Y125687D01*
X133328Y123505D01*
X135011Y121311D01*
X137205Y119628D01*
X139759Y118570D01*
X142500Y118209D01*
X145241Y118570D01*
X147795Y119628D01*
X149989Y121311D01*
X151672Y123505D01*
X152730Y126059D01*
X153091Y128800D01*
X152730Y131541D01*
X151672Y134095D01*
X149989Y136289D01*
X147795Y137972D01*
X145241Y139030D01*
X142500Y139391D01*
X139759Y139030D01*
X137205Y137972D01*
X135011Y136289D01*
X134813Y136276D01*
X114537Y156552D01*
X114830Y157259D01*
X115191Y160000D01*
X114830Y162741D01*
X113772Y165295D01*
X112089Y167488D01*
X109895Y169172D01*
X107341Y170229D01*
X104600Y170590D01*
D02*
G37*
G36*
X64700Y170591D02*
X61959Y170230D01*
X59405Y169172D01*
X57211Y167489D01*
X55528Y165296D01*
X54470Y162741D01*
X54110Y160000D01*
X54470Y157259D01*
X55528Y154705D01*
X57211Y152512D01*
X59405Y150829D01*
X61959Y149770D01*
X64700Y149410D01*
X67441Y149770D01*
X69995Y150829D01*
X72189Y152512D01*
X73872Y154705D01*
X74930Y157259D01*
X75291Y160000D01*
X74930Y162741D01*
X73872Y165296D01*
X72189Y167489D01*
X69995Y169172D01*
X67441Y170230D01*
X64700Y170591D01*
D02*
G37*
G36*
X132700Y530591D02*
X129959Y530230D01*
X127405Y529172D01*
X125211Y527489D01*
X123528Y525295D01*
X122470Y522741D01*
X122109Y520000D01*
X122470Y517259D01*
X123528Y514705D01*
X125211Y512511D01*
X127405Y510828D01*
X129959Y509770D01*
X132700Y509409D01*
X135441Y509770D01*
X137995Y510828D01*
X140189Y512511D01*
X141872Y514705D01*
X142930Y517259D01*
X143290Y520000D01*
X142930Y522741D01*
X141872Y525295D01*
X140189Y527489D01*
X137995Y529172D01*
X135441Y530230D01*
X132700Y530591D01*
D02*
G37*
G36*
X32000Y531391D02*
X29259Y531030D01*
X26705Y529972D01*
X24511Y528289D01*
X22828Y526096D01*
X21770Y523541D01*
X21409Y520800D01*
X21770Y518059D01*
X22828Y515505D01*
X24511Y513312D01*
X26705Y511628D01*
X29259Y510570D01*
X32000Y510210D01*
X34741Y510570D01*
X37295Y511628D01*
X39489Y513312D01*
X41172Y515505D01*
X42230Y518059D01*
X42591Y520800D01*
X42230Y523541D01*
X41172Y526096D01*
X39489Y528289D01*
X37295Y529972D01*
X34741Y531030D01*
X32000Y531391D01*
D02*
G37*
G36*
X270500Y194500D02*
X256500D01*
Y182500D01*
X256500D01*
Y169500D01*
X270500D01*
Y181500D01*
X270500D01*
Y194500D01*
D02*
G37*
%LPD*%
D10*
X381320Y438500D02*
X389820Y447001D01*
Y462500D01*
X384820Y467500D02*
X389820Y462500D01*
X378320Y467500D02*
X384820D01*
D11*
X280000Y322500D02*
X280000Y322500D01*
X292000D01*
X292000Y322500D02*
X304000D01*
Y332000D01*
X292000Y322500D02*
Y336000D01*
X301860Y286000D02*
X306210Y281650D01*
X314350D01*
X319000Y277000D01*
X320500D01*
X296179Y293190D02*
X319380D01*
X278000Y286000D02*
X301860D01*
X262120Y301880D02*
X278000Y286000D01*
X292000Y276000D02*
Y280000D01*
X299700Y276300D02*
Y280000D01*
Y276300D02*
X300000Y276000D01*
X323853Y261770D02*
X360000D01*
X322000Y259918D02*
X323853Y261770D01*
X298040Y274040D02*
X300000Y276000D01*
X298040Y265960D02*
Y274040D01*
X294000Y262000D02*
Y274000D01*
Y262000D02*
X297500Y258500D01*
X307000D01*
X296786Y253500D02*
X307000D01*
X289960Y260327D02*
X296786Y253500D01*
X289960Y260327D02*
Y266040D01*
X288000Y268000D02*
X289960Y266040D01*
X280500Y268000D02*
X288000D01*
X322000Y244000D02*
Y259918D01*
X292000Y276000D02*
X294000Y274000D01*
X331000Y293160D02*
X333610Y295770D01*
X336000Y290000D02*
X340500Y285500D01*
X341026Y293134D02*
X352866D01*
X338390Y295770D02*
X341026Y293134D01*
X342700Y297174D02*
X356826D01*
X340063Y299810D02*
X342700Y297174D01*
X333610Y295770D02*
X338390D01*
X340000Y299810D02*
X340063D01*
X292139Y297230D02*
X296179Y293190D01*
X292000Y303083D02*
Y305500D01*
X316000Y305500D02*
Y310000D01*
X320000Y314000D01*
X326000D01*
X328000Y316000D01*
Y322500D01*
X304000Y305500D02*
X316000D01*
Y316000D02*
Y322500D01*
X314000Y314000D02*
X316000Y316000D01*
X280000Y322500D02*
Y334000D01*
X239890Y301880D02*
X262120D01*
X210000Y331770D02*
X239890Y301880D01*
X216000Y338000D02*
X248080Y305920D01*
X256040Y309960D02*
X275540D01*
X403819Y477000D02*
X430820D01*
X407000Y250317D02*
X417000Y260317D01*
Y268000D01*
X263500Y176000D02*
Y188000D01*
X365500Y266600D02*
Y277000D01*
X378480Y265165D02*
X380835Y267520D01*
X378480Y256480D02*
Y265165D01*
X373770Y251770D02*
X378480Y256480D01*
X373770Y211853D02*
Y251770D01*
X380835Y267520D02*
X395520D01*
X375500Y267899D02*
Y277000D01*
X363810Y265810D02*
X365000Y267000D01*
X351000Y265810D02*
X363810D01*
X372147Y210230D02*
X373770Y211853D01*
X354000Y210230D02*
X372147D01*
X323853D02*
X326000D01*
X322230Y211853D02*
X323853Y210230D01*
X322230Y211853D02*
Y218000D01*
X316730Y223500D02*
X322230Y218000D01*
X340500Y195000D02*
Y205364D01*
X345500Y169500D02*
Y195000D01*
X330500Y196000D02*
Y205364D01*
X381082Y218500D02*
X389000D01*
X378480Y215898D02*
X381082Y218500D01*
X378480Y206103D02*
Y215898D01*
Y206103D02*
X379520Y205063D01*
X350500Y195000D02*
Y205364D01*
X314500Y187500D02*
X314750D01*
X325500Y180500D02*
Y195000D01*
X298000Y190000D02*
X300000Y188000D01*
X302000Y168000D02*
Y182000D01*
X315000Y195000D02*
X320500D01*
X340000Y299810D02*
Y305500D01*
X355500Y277000D02*
Y290500D01*
X350500Y266310D02*
X351000Y265810D01*
X346000D02*
X351000D01*
X350500Y266310D02*
Y277000D01*
X352000Y305500D02*
X353999Y307500D01*
X356826Y297174D02*
X360500Y293500D01*
X365500Y277000D02*
Y294213D01*
X352866Y293134D02*
X355500Y290500D01*
X340500Y277000D02*
Y285500D01*
X360500Y277000D02*
Y293500D01*
X348142Y322500D02*
X352000D01*
X340000D02*
X348142D01*
X316500Y228500D02*
X322000Y234000D01*
X307000Y228500D02*
X316500D01*
X350500Y195000D02*
X350500Y195000D01*
X350500Y222500D02*
X352000Y224000D01*
X338190Y265810D02*
X346000D01*
X345500Y266310D02*
X346000Y265810D01*
X345500Y266310D02*
Y277000D01*
X335500Y268500D02*
X338190Y265810D01*
X335500Y268500D02*
Y277000D01*
X307000Y223500D02*
X316730D01*
X296500Y218500D02*
X307000D01*
X294730Y212730D02*
X298890D01*
X292000Y210000D02*
X294730Y212730D01*
X296500Y208500D02*
X307000D01*
X296040Y208040D02*
X296500Y208500D01*
X316500Y238500D02*
X322000Y244000D01*
Y234000D02*
Y244000D01*
X352000Y182000D02*
X354480Y184480D01*
X314000Y188000D02*
X314500Y187500D01*
X300000Y188000D02*
X314000D01*
X298890Y212730D02*
X299660Y213500D01*
X296040Y202327D02*
Y208040D01*
X288770Y214770D02*
Y228770D01*
X299660Y213500D02*
X307000D01*
X288770Y195057D02*
X296040Y202327D01*
X292000Y204000D02*
Y210000D01*
X288000Y200000D02*
X292000Y204000D01*
X286000Y212000D02*
X288770Y214770D01*
X280500Y212000D02*
X286000D01*
X264000Y314000D02*
X314000D01*
X407770Y299770D02*
X426230D01*
X406000Y298000D02*
X407770Y299770D01*
X406000Y278000D02*
Y298000D01*
X395520Y267520D02*
X406000Y278000D01*
X414583Y280000D02*
X417000D01*
X7810Y270190D02*
Y402040D01*
X3770Y268000D02*
Y407615D01*
X15770Y256000D02*
X36000D01*
X16230Y261770D02*
X49770D01*
X172000Y338000D02*
Y381255D01*
X166000Y354160D02*
Y398569D01*
X158230Y346390D02*
X166000Y354160D01*
X302320Y646000D02*
X456187D01*
X292820Y636500D02*
X302320Y646000D01*
X456187D02*
X472090Y630097D01*
X158230Y338230D02*
Y346390D01*
X407000Y236000D02*
Y250317D01*
X404500Y238500D02*
X407000Y236000D01*
X389000Y238500D02*
X404500D01*
X233770Y355770D02*
X244760Y344780D01*
X166693Y427307D02*
X169789D01*
X166000Y428000D02*
X166693Y427307D01*
X154000Y416000D02*
X166000Y428000D01*
X81754Y448873D02*
X94000Y436627D01*
X244760Y344780D02*
X318780D01*
X222000Y344000D02*
X256040Y309960D01*
X340500Y195000D02*
X340500Y195000D01*
X393260Y467500D02*
X403320D01*
X386540Y474220D02*
X393260Y467500D01*
X381600Y474220D02*
X386540D01*
X378320Y477500D02*
X381600Y474220D01*
X417820Y434500D02*
Y460000D01*
X409820Y426500D02*
X417820Y434500D01*
X366820Y426500D02*
X409820D01*
X430820Y433500D02*
Y460000D01*
X419280Y421960D02*
X430820Y433500D01*
X379280Y421960D02*
X419280D01*
X371820Y414500D02*
X379280Y421960D01*
X371820Y391500D02*
Y414500D01*
X367820Y387500D02*
X371820Y391500D01*
X341820Y387500D02*
X367820D01*
X325820Y403500D02*
X341820Y387500D01*
X56014Y405574D02*
X60440Y410000D01*
X84573Y400000D02*
X89973Y405400D01*
X60440Y410000D02*
X72000D01*
X82000Y400000D01*
X84573D01*
X64499Y397089D02*
X67410Y400000D01*
X76287D01*
X86287Y390000D01*
X92533D01*
X98953Y396420D01*
X72984Y388603D02*
X76381Y392000D01*
X78573D01*
X90573Y380000D01*
X100493D01*
X107933Y387440D01*
X70000Y425373D02*
X80993Y414381D01*
X70000Y425373D02*
Y452000D01*
X64011Y457989D02*
X70000Y452000D01*
X11770Y406000D02*
X18000D01*
X36970Y430970D02*
X46000Y440000D01*
X27125Y430970D02*
X36970D01*
X3770Y407615D02*
X27125Y430970D01*
X7810Y402040D02*
X11770Y406000D01*
X3770Y268000D02*
X15770Y256000D01*
X7810Y270190D02*
X16230Y261770D01*
X464445Y608500D02*
X472090Y616146D01*
Y630097D01*
X292820Y603500D02*
Y636500D01*
X432820Y596001D02*
Y612500D01*
X435820Y615500D01*
X446320D01*
Y608500D02*
Y615500D01*
Y622500D01*
X426230Y299770D02*
X434000Y292000D01*
X328000Y305500D02*
X340000D01*
X280500Y188000D02*
X280500Y188000D01*
X307000Y238500D02*
X316500D01*
X280500Y224000D02*
Y238500D01*
X228000Y350000D02*
X264000Y314000D01*
X434000Y280000D02*
Y292000D01*
X389000Y248500D02*
X396917D01*
X408000Y220000D02*
X417500D01*
X404500Y223500D02*
X408000Y220000D01*
X389000Y223500D02*
X404500D01*
X389000Y208500D02*
X417000D01*
X417500Y208000D01*
X263500Y256000D02*
X270000D01*
X272000Y258000D01*
Y266000D01*
X274000Y268000D01*
X280500D01*
X280500Y256000D02*
X288573D01*
X298040Y265960D02*
X300500Y263500D01*
X307000D01*
X288573Y256000D02*
X296073Y248500D01*
X307000D01*
X279000Y240000D02*
X280500Y238500D01*
X307000D01*
X288770Y228770D02*
X293500Y233500D01*
X307000D01*
X263500Y176000D02*
X263500Y176000D01*
X280500Y200000D02*
X288000D01*
X280500Y188000D02*
Y200000D01*
X280500Y200000D01*
X288770Y168770D02*
Y195057D01*
X284000Y164000D02*
X288770Y168770D01*
X280500Y164000D02*
X284000D01*
X396917Y248500D02*
X408730Y260313D01*
Y274147D01*
X414583Y280000D01*
X370000Y262399D02*
X375500Y267899D01*
X114985Y27500D02*
X119985Y22500D01*
Y14000D02*
Y22500D01*
X82485Y27500D02*
X114985D01*
X354480Y184480D02*
X377897D01*
X379520Y186103D01*
Y205063D01*
X280000Y303083D02*
Y305500D01*
Y303083D02*
X285853Y297230D01*
X292139D01*
X279960Y290040D02*
X293616D01*
X248080Y305920D02*
X264080D01*
X279960Y290040D01*
X353999Y307500D02*
Y311999D01*
X325820Y403500D02*
Y409500D01*
X360000Y332000D02*
X368000Y324000D01*
Y306000D02*
Y324000D01*
Y306000D02*
X370500Y303500D01*
Y277000D02*
Y303500D01*
X323500Y297230D02*
X325230Y295500D01*
X292000Y303083D02*
X297853Y297230D01*
X323500D01*
X280843Y11000D02*
X291000D01*
X280843Y21157D01*
Y23696D01*
X283382Y26235D01*
X288461D01*
X291000Y23696D01*
D14*
X280000Y322500D02*
D03*
Y305500D02*
D03*
X82485Y27500D02*
D03*
Y44500D02*
D03*
X292000Y305500D02*
D03*
Y322500D02*
D03*
X304000Y322500D02*
D03*
Y305500D02*
D03*
X316000D02*
D03*
Y322500D02*
D03*
X328000Y305500D02*
D03*
Y322500D02*
D03*
X340000D02*
D03*
Y305500D02*
D03*
X352000D02*
D03*
Y322500D02*
D03*
X417821Y460000D02*
D03*
Y477000D02*
D03*
X430820Y460000D02*
D03*
Y477000D02*
D03*
D17*
X434000Y292000D02*
D03*
X417000D02*
D03*
X434000Y280000D02*
D03*
X417000D02*
D03*
X434000Y268000D02*
D03*
X417000D02*
D03*
X417500Y220000D02*
D03*
X434500D02*
D03*
Y208000D02*
D03*
X417500D02*
D03*
X280500Y188000D02*
D03*
X263500D02*
D03*
X280500Y176000D02*
D03*
X263500D02*
D03*
X263500Y268000D02*
D03*
X280500D02*
D03*
X263500Y256000D02*
D03*
X280500D02*
D03*
X263500Y224000D02*
D03*
X280500D02*
D03*
Y212000D02*
D03*
X263500D02*
D03*
X280500Y200000D02*
D03*
X263500D02*
D03*
X280500Y164000D02*
D03*
X263500D02*
D03*
X446320Y622500D02*
D03*
X463320D02*
D03*
X463320Y608500D02*
D03*
X446320D02*
D03*
D25*
X252500Y66000D02*
D03*
X211500D02*
D03*
D28*
X402320Y438500D02*
D03*
X381320D02*
D03*
X412320Y632500D02*
D03*
X391320D02*
D03*
D30*
X102485Y40600D02*
Y66000D01*
X102485Y66000D01*
Y126000D01*
X37500Y128800D02*
X43408D01*
X63050Y267900D02*
X75450Y255500D01*
X147500D01*
X156000Y264000D01*
Y298000D01*
X403320Y439500D02*
Y457500D01*
X402320Y438500D02*
X403320Y439500D01*
X422820Y596001D02*
Y621500D01*
X433820Y632500D01*
X460820D01*
X463320Y630000D01*
Y622500D02*
Y630000D01*
X412820Y596001D02*
Y632000D01*
X412320Y632500D02*
X412820Y632000D01*
X422820Y584500D02*
Y596001D01*
X82485Y27500D02*
Y28500D01*
X98585Y44500D02*
X102485Y40600D01*
X82485Y44500D02*
X98585D01*
X37500Y128800D02*
X51000Y142300D01*
X86900D01*
X104600Y160000D01*
X135800Y128800D01*
X142500D01*
D31*
X443250Y252054D02*
Y298553D01*
Y252054D02*
X448750Y246553D01*
X347000Y168000D02*
X347000Y168000D01*
X330000Y168000D02*
X347000D01*
X441553Y199250D02*
X448750Y206447D01*
Y246553D01*
X433950Y307853D02*
X443250Y298553D01*
X433950Y428421D02*
X440320Y434791D01*
Y484364D01*
X436185Y488500D02*
X440320Y484364D01*
X379820Y488500D02*
X436185D01*
X330000Y168000D02*
X330000Y168000D01*
X387790Y199250D02*
X441553D01*
X384540Y196000D02*
X387790Y199250D01*
X384540Y184023D02*
Y196000D01*
X381267Y180750D02*
X384540Y184023D01*
X433950Y307853D02*
Y428421D01*
D32*
X348000Y322642D02*
X348142Y322500D01*
X348000Y322642D02*
Y378000D01*
X348142Y417179D02*
Y431822D01*
Y417179D02*
X355820Y409501D01*
D33*
X134874Y468262D02*
X161815Y441322D01*
X280000Y441322D02*
X283322D01*
X110000Y503990D02*
Y503999D01*
X96603Y490593D02*
X110000Y503990D01*
X126000Y477137D02*
Y483999D01*
Y477137D02*
X134874Y468262D01*
X77196Y510000D02*
X96603Y490593D01*
X70500Y510000D02*
X77196D01*
X14000Y352000D02*
Y366000D01*
X73976Y467966D02*
X96603Y490593D01*
X283322Y441322D02*
X284000Y442000D01*
X161815Y441322D02*
X183322D01*
X287996D02*
X293813Y435505D01*
Y499505D02*
X312815D01*
X323820Y488500D01*
Y472500D02*
Y488500D01*
Y472500D02*
X328820Y467500D01*
X378320D01*
X161815Y441322D02*
Y441322D01*
X144493Y424000D02*
X161815Y441322D01*
D35*
X142500Y32000D02*
D03*
X167500D02*
D03*
X37500D02*
D03*
X62500D02*
D03*
X244500D02*
D03*
X219500D02*
D03*
D36*
X142500Y103800D02*
D03*
X167500D02*
D03*
X142500Y128800D02*
D03*
X37500Y103800D02*
D03*
X62500D02*
D03*
X37500Y128800D02*
D03*
X132700Y520000D02*
D03*
X107300D02*
D03*
X64700Y160000D02*
D03*
X39300D02*
D03*
X155400Y160000D02*
D03*
X130000D02*
D03*
X104600D02*
D03*
X32000Y520800D02*
D03*
Y495400D02*
D03*
Y470000D02*
D03*
Y444600D02*
D03*
Y419200D02*
D03*
X219500Y103800D02*
D03*
X102485Y40600D02*
D03*
Y66000D02*
D03*
D37*
X167500Y128800D02*
D03*
X62500D02*
D03*
D38*
X302000Y168000D02*
D03*
X330000D02*
D03*
X459500Y254000D02*
D03*
Y170000D02*
D03*
D39*
X424500Y254000D02*
D03*
Y170000D02*
D03*
X34000Y622000D02*
D03*
X79000D02*
D03*
X249678Y148322D02*
D03*
Y287678D02*
D03*
D40*
X21450Y597100D02*
D03*
X91550D02*
D03*
D41*
X244500Y103800D02*
D03*
D42*
X214322Y183678D02*
D03*
D43*
Y252322D02*
D03*
D44*
X458000Y330000D02*
D03*
X386000Y344000D02*
D03*
Y336000D02*
D03*
Y328000D02*
D03*
Y320000D02*
D03*
Y312000D02*
D03*
X402000Y344000D02*
D03*
X394000D02*
D03*
X378000D02*
D03*
X370000D02*
D03*
X394000Y336000D02*
D03*
X402000D02*
D03*
Y328000D02*
D03*
X394000D02*
D03*
Y320000D02*
D03*
X402000D02*
D03*
Y312000D02*
D03*
X394000D02*
D03*
X370000Y336000D02*
D03*
X310000Y287420D02*
D03*
X328000Y256000D02*
D03*
X292000Y280000D02*
D03*
X299700D02*
D03*
X336000Y256000D02*
D03*
X328000Y248000D02*
D03*
X336000D02*
D03*
X325230Y295500D02*
D03*
X336000Y290000D02*
D03*
X72119Y338881D02*
D03*
X112985Y84000D02*
D03*
X102485Y126000D02*
D03*
X250000Y54000D02*
D03*
Y70000D02*
D03*
X258000Y78000D02*
D03*
Y70000D02*
D03*
Y62000D02*
D03*
X250000Y78000D02*
D03*
X258000Y54000D02*
D03*
X250000Y62000D02*
D03*
X206000Y54000D02*
D03*
Y70000D02*
D03*
X214000Y78000D02*
D03*
Y70000D02*
D03*
Y62000D02*
D03*
X206000Y78000D02*
D03*
X214000Y54000D02*
D03*
X206000Y62000D02*
D03*
X322000Y46000D02*
D03*
X330000D02*
D03*
X338000D02*
D03*
X346000D02*
D03*
X354000D02*
D03*
X362000D02*
D03*
X370000D02*
D03*
X314000Y44000D02*
D03*
X310000Y38000D02*
D03*
X308000Y30000D02*
D03*
X307000Y22000D02*
D03*
X308000Y14000D02*
D03*
X310000Y6000D02*
D03*
X382000D02*
D03*
X384000Y14000D02*
D03*
X385000Y22000D02*
D03*
X384000Y30000D02*
D03*
X382000Y38000D02*
D03*
X378000Y44000D02*
D03*
X474000D02*
D03*
X478000Y38000D02*
D03*
X480000Y30000D02*
D03*
X481000Y22000D02*
D03*
X480000Y14000D02*
D03*
X478000Y6000D02*
D03*
X406000D02*
D03*
X404000Y14000D02*
D03*
X403000Y22000D02*
D03*
X404000Y30000D02*
D03*
X406000Y38000D02*
D03*
X410000Y44000D02*
D03*
X466000Y46000D02*
D03*
X458000D02*
D03*
X450000D02*
D03*
X442000D02*
D03*
X434000D02*
D03*
X426000D02*
D03*
X418000D02*
D03*
X468000Y76000D02*
D03*
X460000Y84000D02*
D03*
X468000Y60000D02*
D03*
X460000Y76000D02*
D03*
Y68000D02*
D03*
Y60000D02*
D03*
X468000Y68000D02*
D03*
Y84000D02*
D03*
Y114000D02*
D03*
X460000Y122000D02*
D03*
X468000Y98000D02*
D03*
X460000Y114000D02*
D03*
Y106000D02*
D03*
Y98000D02*
D03*
X468000Y106000D02*
D03*
Y122000D02*
D03*
X424000Y114000D02*
D03*
X416000Y122000D02*
D03*
X424000Y98000D02*
D03*
X416000Y114000D02*
D03*
Y106000D02*
D03*
Y98000D02*
D03*
X424000Y106000D02*
D03*
Y122000D02*
D03*
Y76000D02*
D03*
X416000Y84000D02*
D03*
X424000Y60000D02*
D03*
X416000Y76000D02*
D03*
Y68000D02*
D03*
Y60000D02*
D03*
X424000Y68000D02*
D03*
Y84000D02*
D03*
X249678Y160322D02*
D03*
X237678Y148322D02*
D03*
X241678Y156322D02*
D03*
X241678Y140322D02*
D03*
X249678Y136322D02*
D03*
X257678Y140322D02*
D03*
X261678Y148322D02*
D03*
X257678Y156322D02*
D03*
X240506Y279192D02*
D03*
X237678Y287678D02*
D03*
X248991Y276364D02*
D03*
X257477Y279192D02*
D03*
X260305Y287678D02*
D03*
X214322Y264322D02*
D03*
X222322Y260322D02*
D03*
X206322Y260322D02*
D03*
X202322Y252322D02*
D03*
X206322Y244322D02*
D03*
X214322Y240322D02*
D03*
X222322Y244322D02*
D03*
X214322Y195678D02*
D03*
X222322Y191678D02*
D03*
X206322Y191678D02*
D03*
X202322Y183678D02*
D03*
X206322Y175678D02*
D03*
X214322Y171678D02*
D03*
X222322Y175678D02*
D03*
X252500Y95800D02*
D03*
X244500Y91800D02*
D03*
X236500Y95800D02*
D03*
X236500Y111800D02*
D03*
X256500Y103800D02*
D03*
X252500Y111800D02*
D03*
X244500Y115800D02*
D03*
X227500Y95800D02*
D03*
X219500Y91800D02*
D03*
X211500Y95800D02*
D03*
X207500Y103800D02*
D03*
X211500Y111800D02*
D03*
X227500Y111800D02*
D03*
X219500Y115800D02*
D03*
X373000Y195000D02*
D03*
X434000Y268000D02*
D03*
X354000Y144000D02*
D03*
X346000D02*
D03*
X338000D02*
D03*
X330000Y136000D02*
D03*
X346000D02*
D03*
X362000D02*
D03*
Y128000D02*
D03*
X354000D02*
D03*
X346000D02*
D03*
X338000D02*
D03*
X330000D02*
D03*
Y120000D02*
D03*
X346000D02*
D03*
X362000D02*
D03*
X354000Y112000D02*
D03*
X346000D02*
D03*
X338000D02*
D03*
X362000Y60000D02*
D03*
Y68000D02*
D03*
Y76000D02*
D03*
X354000Y84000D02*
D03*
Y68000D02*
D03*
Y52000D02*
D03*
X346000D02*
D03*
Y60000D02*
D03*
Y68000D02*
D03*
Y76000D02*
D03*
Y84000D02*
D03*
X338000D02*
D03*
Y68000D02*
D03*
Y52000D02*
D03*
X330000Y60000D02*
D03*
Y68000D02*
D03*
Y76000D02*
D03*
X424500Y182000D02*
D03*
X432500Y178000D02*
D03*
X436500Y170000D02*
D03*
X416500Y178000D02*
D03*
X412500Y170000D02*
D03*
X416500Y162000D02*
D03*
X424500Y158000D02*
D03*
X432500Y162000D02*
D03*
X459500Y182000D02*
D03*
X467500Y178000D02*
D03*
X451500Y178000D02*
D03*
X447500Y170000D02*
D03*
X451500Y162000D02*
D03*
X459500Y158000D02*
D03*
X467500Y162000D02*
D03*
X471500Y170000D02*
D03*
X459500Y266000D02*
D03*
X467500Y262000D02*
D03*
X471500Y254000D02*
D03*
X459500Y242000D02*
D03*
X467500Y246000D02*
D03*
X102500Y332000D02*
D03*
X280000Y441322D02*
D03*
X365500Y266600D02*
D03*
X360000Y256000D02*
D03*
X352000D02*
D03*
X340500Y205364D02*
D03*
X330500D02*
D03*
X352000Y216000D02*
D03*
X360000D02*
D03*
X344000D02*
D03*
X368000D02*
D03*
Y224000D02*
D03*
X350500Y205364D02*
D03*
X314750Y187500D02*
D03*
X325500Y180500D02*
D03*
X298000Y190000D02*
D03*
X302000Y182000D02*
D03*
X315000Y195000D02*
D03*
X344000Y256000D02*
D03*
X360000Y332000D02*
D03*
X378000Y320000D02*
D03*
Y312000D02*
D03*
X328000Y224000D02*
D03*
Y240000D02*
D03*
Y232000D02*
D03*
X352000Y224000D02*
D03*
X296500Y218500D02*
D03*
X352000Y182000D02*
D03*
X474000Y550000D02*
D03*
X466000D02*
D03*
X458000D02*
D03*
X263500Y224000D02*
D03*
X330000Y168000D02*
D03*
X110000Y503999D02*
D03*
X126000Y483999D02*
D03*
X70500Y498000D02*
D03*
Y510000D02*
D03*
X63050Y267900D02*
D03*
X156000Y298000D02*
D03*
X14000Y352000D02*
D03*
X25500Y338500D02*
D03*
X14000Y366000D02*
D03*
X16000Y568000D02*
D03*
X16000Y556000D02*
D03*
X108500Y596500D02*
D03*
X172000Y381255D02*
D03*
X96603Y490593D02*
D03*
X73976Y467966D02*
D03*
X156000Y505442D02*
D03*
X183322Y441322D02*
D03*
X158230Y338230D02*
D03*
X164000Y344000D02*
D03*
X370000Y352000D02*
D03*
X378000D02*
D03*
X386000D02*
D03*
X394000D02*
D03*
X402000D02*
D03*
X378000Y336000D02*
D03*
Y328000D02*
D03*
X233770Y355770D02*
D03*
X169789Y427307D02*
D03*
X154000Y416000D02*
D03*
X94000Y436627D02*
D03*
X81754Y448873D02*
D03*
X222000Y344000D02*
D03*
X216000Y338000D02*
D03*
X210000Y331770D02*
D03*
X318780Y344780D02*
D03*
X482000Y314000D02*
D03*
Y322000D02*
D03*
Y330000D02*
D03*
Y338000D02*
D03*
Y346000D02*
D03*
X474000D02*
D03*
Y338000D02*
D03*
Y330000D02*
D03*
Y322000D02*
D03*
Y314000D02*
D03*
X466000D02*
D03*
Y322000D02*
D03*
Y330000D02*
D03*
Y338000D02*
D03*
Y346000D02*
D03*
X458000D02*
D03*
Y338000D02*
D03*
Y322000D02*
D03*
Y314000D02*
D03*
X450000D02*
D03*
Y322000D02*
D03*
Y330000D02*
D03*
Y338000D02*
D03*
Y346000D02*
D03*
X442000D02*
D03*
Y338000D02*
D03*
Y330000D02*
D03*
Y322000D02*
D03*
Y314000D02*
D03*
X336000Y232000D02*
D03*
Y224000D02*
D03*
Y240000D02*
D03*
X344000Y232000D02*
D03*
Y224000D02*
D03*
Y240000D02*
D03*
Y248000D02*
D03*
X78000Y202000D02*
D03*
X16000Y224000D02*
D03*
X45500Y194500D02*
D03*
X56014Y405574D02*
D03*
X64499Y397089D02*
D03*
X72984Y388603D02*
D03*
X131500Y343500D02*
D03*
X115494Y372000D02*
D03*
X34000Y296000D02*
D03*
X24950Y289050D02*
D03*
X67545Y370000D02*
D03*
X64011Y457989D02*
D03*
X37546Y400000D02*
D03*
X18000Y406000D02*
D03*
X46000Y440000D02*
D03*
X36000Y256000D02*
D03*
X49770Y261770D02*
D03*
X166000Y398569D02*
D03*
X172000Y338000D02*
D03*
X78000Y298000D02*
D03*
X147500Y314500D02*
D03*
X352000Y248000D02*
D03*
Y240000D02*
D03*
Y232000D02*
D03*
X360000Y224000D02*
D03*
Y232000D02*
D03*
Y240000D02*
D03*
Y248000D02*
D03*
X368000D02*
D03*
Y240000D02*
D03*
Y232000D02*
D03*
X228000Y350000D02*
D03*
X368000Y256000D02*
D03*
X138000Y484614D02*
D03*
X144493Y424000D02*
D03*
X386000Y390000D02*
D03*
Y398000D02*
D03*
Y406000D02*
D03*
Y414000D02*
D03*
X394000D02*
D03*
Y406000D02*
D03*
Y398000D02*
D03*
Y390000D02*
D03*
X402000D02*
D03*
Y398000D02*
D03*
Y406000D02*
D03*
Y414000D02*
D03*
X410000D02*
D03*
Y406000D02*
D03*
Y390000D02*
D03*
Y398000D02*
D03*
X330000Y144000D02*
D03*
X338000Y136000D02*
D03*
Y120000D02*
D03*
X330000Y112000D02*
D03*
X362000D02*
D03*
X354000Y120000D02*
D03*
Y136000D02*
D03*
X362000Y144000D02*
D03*
X338000Y60000D02*
D03*
X330000Y52000D02*
D03*
Y84000D02*
D03*
X338000Y76000D02*
D03*
X354000D02*
D03*
X362000Y84000D02*
D03*
X354000Y60000D02*
D03*
X362000Y52000D02*
D03*
X402000Y264000D02*
D03*
X140000Y180000D02*
D03*
X353999Y311999D02*
D03*
D45*
X422820Y506499D02*
D03*
X348142Y431822D02*
D03*
X348000Y378000D02*
D03*
D46*
X422820Y584500D02*
D03*
D47*
X422150Y339200D02*
D03*
Y320800D02*
D03*
D48*
X462000Y330000D02*
D03*
D49*
X84985Y14000D02*
D03*
X119985D02*
D03*
D50*
X102485Y19500D02*
D03*
D51*
X377000Y168000D02*
D03*
X347000D02*
D03*
X437000Y236000D02*
D03*
X407000D02*
D03*
X249000Y240000D02*
D03*
X279000D02*
D03*
X389820Y519500D02*
D03*
X359820D02*
D03*
D52*
X389000Y263500D02*
D03*
D53*
Y258500D02*
D03*
Y253500D02*
D03*
Y248500D02*
D03*
Y243500D02*
D03*
Y238500D02*
D03*
Y233500D02*
D03*
Y228500D02*
D03*
Y223500D02*
D03*
Y218500D02*
D03*
Y213500D02*
D03*
Y208500D02*
D03*
X307000D02*
D03*
Y213500D02*
D03*
Y218500D02*
D03*
Y223500D02*
D03*
Y228500D02*
D03*
Y233500D02*
D03*
Y238500D02*
D03*
Y243500D02*
D03*
Y248500D02*
D03*
Y253500D02*
D03*
Y258500D02*
D03*
Y263500D02*
D03*
D54*
X375500Y195000D02*
D03*
X370500D02*
D03*
X365500D02*
D03*
X360500D02*
D03*
X355500D02*
D03*
X350500D02*
D03*
X345500D02*
D03*
X340500D02*
D03*
X335500D02*
D03*
X330500D02*
D03*
X325500D02*
D03*
X320500D02*
D03*
Y277000D02*
D03*
X325500D02*
D03*
X330500D02*
D03*
X335500D02*
D03*
X340500D02*
D03*
X345500D02*
D03*
X350500D02*
D03*
X355500D02*
D03*
X360500D02*
D03*
X365500D02*
D03*
X370500D02*
D03*
X375500D02*
D03*
D55*
X348000Y236000D02*
D03*
D56*
X134874Y468262D02*
D03*
X143855Y459282D02*
D03*
X152835Y450302D02*
D03*
X161815Y441322D02*
D03*
X98953Y396420D02*
D03*
X107933Y387440D02*
D03*
X89973Y405400D02*
D03*
X80993Y414381D02*
D03*
D57*
X293813Y435505D02*
D03*
Y499505D02*
D03*
D58*
X391820Y583500D02*
D03*
X301820D02*
D03*
D59*
X403320Y477500D02*
D03*
Y457500D02*
D03*
Y467500D02*
D03*
D60*
X378320Y477500D02*
D03*
Y467500D02*
D03*
Y457500D02*
D03*
D61*
X432820Y571000D02*
D03*
X422820D02*
D03*
X412820D02*
D03*
D62*
X432820Y596001D02*
D03*
X422820D02*
D03*
X412820D02*
D03*
D63*
Y518501D02*
D03*
Y546500D02*
D03*
D64*
X355820Y409501D02*
D03*
X325820D02*
D03*
D65*
X360820Y457000D02*
D03*
Y478000D02*
D03*
X433820Y527000D02*
D03*
Y548000D02*
D03*
D66*
X341820Y452500D02*
D03*
Y482500D02*
D03*
D67*
X459820Y516500D02*
D03*
Y546500D02*
D03*
D68*
X346000Y129850D02*
D03*
Y66150D02*
D03*
D69*
X310000Y287420D02*
Y289620D01*
X319230D01*
X294036D02*
X310000D01*
X293616Y290040D02*
X294036Y289620D01*
X319230D02*
X321751Y287100D01*
X327900D01*
X330500Y284500D01*
X328040Y290200D02*
X331000Y293160D01*
X319380Y293190D02*
X320045D01*
X323035Y290200D01*
X328040D01*
X353566Y210664D02*
X354000Y210230D01*
X326434Y210664D02*
X353566D01*
X326000Y210230D02*
X326434Y210664D01*
X360000Y261770D02*
X360470Y261300D01*
X369530D01*
X370000Y261770D01*
D70*
X330500Y277000D02*
Y284500D01*
D71*
X366000Y178242D02*
X367968Y180210D01*
X366000Y174000D02*
Y178242D01*
X367968Y180210D02*
X380210D01*
X382000Y182000D01*
X360000Y168000D02*
X366000Y174000D01*
X347000Y168000D02*
X360000D01*
M02*
