%FSLAX44Y44*%
%MOMM*%
G71*
G01*
G75*
%ADD10C,0.4000*%
%ADD11C,0.2540*%
%ADD12R,1.1500X0.7000*%
%ADD13R,0.7000X1.1500*%
%ADD14R,1.0000X1.1000*%
%ADD15R,5.3300X5.5900*%
%ADD16R,6.3500X5.2800*%
%ADD17R,1.1000X1.0000*%
G04:AMPARAMS|DCode=18|XSize=1mm|YSize=1.1mm|CornerRadius=0mm|HoleSize=0mm|Usage=FLASHONLY|Rotation=45.000|XOffset=0mm|YOffset=0mm|HoleType=Round|Shape=Rectangle|*
%AMROTATEDRECTD18*
4,1,4,0.0354,-0.7425,-0.7425,0.0354,-0.0354,0.7425,0.7425,-0.0354,0.0354,-0.7425,0.0*
%
%ADD18ROTATEDRECTD18*%

G04:AMPARAMS|DCode=19|XSize=1mm|YSize=1.1mm|CornerRadius=0mm|HoleSize=0mm|Usage=FLASHONLY|Rotation=135.000|XOffset=0mm|YOffset=0mm|HoleType=Round|Shape=Rectangle|*
%AMROTATEDRECTD19*
4,1,4,0.7425,0.0354,-0.0354,-0.7425,-0.7425,-0.0354,0.0354,0.7425,0.7425,0.0354,0.0*
%
%ADD19ROTATEDRECTD19*%

G04:AMPARAMS|DCode=20|XSize=0.5mm|YSize=1.2mm|CornerRadius=0mm|HoleSize=0mm|Usage=FLASHONLY|Rotation=135.000|XOffset=0mm|YOffset=0mm|HoleType=Round|Shape=Rectangle|*
%AMROTATEDRECTD20*
4,1,4,0.6010,0.2475,-0.2475,-0.6010,-0.6010,-0.2475,0.2475,0.6010,0.6010,0.2475,0.0*
%
%ADD20ROTATEDRECTD20*%

G04:AMPARAMS|DCode=21|XSize=0.5mm|YSize=1.2mm|CornerRadius=0mm|HoleSize=0mm|Usage=FLASHONLY|Rotation=225.000|XOffset=0mm|YOffset=0mm|HoleType=Round|Shape=Rectangle|*
%AMROTATEDRECTD21*
4,1,4,-0.2475,0.6010,0.6010,-0.2475,0.2475,-0.6010,-0.6010,0.2475,-0.2475,0.6010,0.0*
%
%ADD21ROTATEDRECTD21*%

%ADD22O,0.8000X3.0000*%
%ADD23R,0.7620X1.0100*%
%ADD24R,2.2870X1.0100*%
%ADD25R,1.8000X3.7000*%
%ADD26R,0.6000X1.8000*%
G04:AMPARAMS|DCode=27|XSize=0.6mm|YSize=1.8mm|CornerRadius=0.15mm|HoleSize=0mm|Usage=FLASHONLY|Rotation=0.000|XOffset=0mm|YOffset=0mm|HoleType=Round|Shape=RoundedRectangle|*
%AMROUNDEDRECTD27*
21,1,0.6000,1.5000,0,0,0.0*
21,1,0.3000,1.8000,0,0,0.0*
1,1,0.3000,0.1500,-0.7500*
1,1,0.3000,-0.1500,-0.7500*
1,1,0.3000,-0.1500,0.7500*
1,1,0.3000,0.1500,0.7500*
%
%ADD27ROUNDEDRECTD27*%
%ADD28R,1.1000X1.5000*%
%ADD29R,0.6000X0.9000*%
%ADD30C,0.6000*%
%ADD31C,0.4500*%
%ADD32C,1.0000*%
%ADD33C,0.5000*%
%ADD34C,0.1500*%
%ADD35C,0.8000*%
%ADD36C,1.8000*%
%ADD37R,1.8000X1.8000*%
%ADD38R,1.4000X1.4000*%
%ADD39C,1.4000*%
%ADD40C,1.7000*%
%ADD41R,1.8000X1.8000*%
%ADD42P,1.9799X4X360.0*%
%ADD43P,1.9799X4X90.0*%
%ADD44C,0.6000*%
%ADD45C,1.0000*%
%ADD46C,0.9000*%
%ADD47R,1.4000X1.3900*%
%ADD48R,4.8600X3.3600*%
%ADD49R,1.5000X1.0000*%
%ADD50R,1.0000X0.9000*%
%ADD51R,1.6000X1.8000*%
%ADD52O,1.5500X0.2500*%
%ADD53R,1.5500X0.2500*%
%ADD54R,0.2500X1.5500*%
%ADD55R,4.6000X4.6000*%
G04:AMPARAMS|DCode=56|XSize=0.76mm|YSize=1.27mm|CornerRadius=0mm|HoleSize=0mm|Usage=FLASHONLY|Rotation=315.000|XOffset=0mm|YOffset=0mm|HoleType=Round|Shape=Rectangle|*
%AMROTATEDRECTD56*
4,1,4,-0.7177,-0.1803,0.1803,0.7177,0.7177,0.1803,-0.1803,-0.7177,-0.7177,-0.1803,0.0*
%
%ADD56ROTATEDRECTD56*%

%ADD57R,2.2000X1.6000*%
%ADD58R,2.0000X3.5000*%
%ADD59R,0.9000X0.6900*%
%ADD60R,0.9900X0.6900*%
%ADD61R,0.6900X0.9000*%
%ADD62R,0.6900X0.9900*%
%ADD63R,1.4000X1.4000*%
%ADD64R,1.6000X2.9000*%
%ADD65R,1.5000X1.1000*%
%ADD66R,1.8000X1.6000*%
%ADD67R,2.9000X1.6000*%
%ADD68R,3.8100X4.2400*%
%ADD69C,0.1600*%
%ADD70C,0.1800*%
%ADD71C,0.3000*%
D12*
X422250Y310950D02*
D03*
Y323650D02*
D03*
Y336350D02*
D03*
Y349050D02*
D03*
X460500Y330000D02*
D03*
D13*
X405050Y291750D02*
D03*
X392350D02*
D03*
X379650D02*
D03*
X366950D02*
D03*
X386000Y330000D02*
D03*
X346000Y20000D02*
D03*
X442000D02*
D03*
D14*
X110000Y343500D02*
D03*
Y360500D02*
D03*
X150000Y564500D02*
D03*
Y547500D02*
D03*
X134000Y564500D02*
D03*
Y547500D02*
D03*
X118000Y564500D02*
D03*
Y547500D02*
D03*
X122000Y343500D02*
D03*
Y360500D02*
D03*
X98000Y360500D02*
D03*
Y343500D02*
D03*
X343000Y305500D02*
D03*
Y322500D02*
D03*
X331000Y322500D02*
D03*
Y305500D02*
D03*
X118000Y596500D02*
D03*
Y579500D02*
D03*
X134000Y596500D02*
D03*
Y579500D02*
D03*
X150000Y596500D02*
D03*
Y579500D02*
D03*
X166000Y547500D02*
D03*
Y564499D02*
D03*
X166000Y579500D02*
D03*
Y596500D02*
D03*
D15*
X289250Y397350D02*
D03*
X390750D02*
D03*
D16*
X340000Y618100D02*
D03*
D17*
X53500Y498000D02*
D03*
X70500D02*
D03*
X147500Y324000D02*
D03*
X164500D02*
D03*
X55119Y348149D02*
D03*
X72119D02*
D03*
X42500Y360000D02*
D03*
X25500D02*
D03*
Y348000D02*
D03*
X42500D02*
D03*
X102500Y332000D02*
D03*
X85500D02*
D03*
X85500Y320000D02*
D03*
X102500D02*
D03*
X45500Y296000D02*
D03*
X62500D02*
D03*
X45500Y204000D02*
D03*
X62500D02*
D03*
X147500Y180000D02*
D03*
X164500D02*
D03*
X70500Y510000D02*
D03*
X53500D02*
D03*
X42500Y568000D02*
D03*
X25500D02*
D03*
Y556000D02*
D03*
X42500D02*
D03*
D18*
X84582Y502614D02*
D03*
X96603Y490593D02*
D03*
X61955Y479986D02*
D03*
X73976Y467966D02*
D03*
X156000Y352000D02*
D03*
X143979Y364021D02*
D03*
X51990Y470010D02*
D03*
X64011Y457989D02*
D03*
D19*
X163071Y498371D02*
D03*
X151050Y486350D02*
D03*
X43993Y393553D02*
D03*
X56014Y405574D02*
D03*
X52478Y385068D02*
D03*
X64499Y397089D02*
D03*
X60963Y376582D02*
D03*
X72984Y388603D02*
D03*
D20*
X70440Y417054D02*
D03*
X76097Y411397D02*
D03*
X81754Y405740D02*
D03*
X87411Y400083D02*
D03*
X93067Y394427D02*
D03*
X98724Y388769D02*
D03*
X104382Y383113D02*
D03*
X110038Y377456D02*
D03*
X130544Y477158D02*
D03*
X136201Y471501D02*
D03*
X141858Y465844D02*
D03*
X147515Y460187D02*
D03*
X153172Y454531D02*
D03*
X158828Y448873D02*
D03*
X164485Y443217D02*
D03*
X170142Y437560D02*
D03*
D21*
X130544Y377456D02*
D03*
X136201Y383113D02*
D03*
X141858Y388769D02*
D03*
X147515Y394427D02*
D03*
X153172Y400083D02*
D03*
X158828Y405740D02*
D03*
X164485Y411397D02*
D03*
X170142Y417054D02*
D03*
X70440Y437560D02*
D03*
X76097Y443217D02*
D03*
X81754Y448873D02*
D03*
X87411Y454531D02*
D03*
X93067Y460187D02*
D03*
X98724Y465844D02*
D03*
X104382Y471501D02*
D03*
X110038Y477158D02*
D03*
D22*
X164100Y298000D02*
D03*
X138700D02*
D03*
X113300D02*
D03*
X87900D02*
D03*
X164100Y202000D02*
D03*
X138700D02*
D03*
X113300D02*
D03*
X87900D02*
D03*
D23*
X303340Y352850D02*
D03*
Y335150D02*
D03*
D24*
X284285Y352850D02*
D03*
Y335150D02*
D03*
D25*
X421500Y110000D02*
D03*
X462500D02*
D03*
X421500Y72000D02*
D03*
X462500D02*
D03*
D26*
X63050Y224000D02*
D03*
X50350D02*
D03*
X37650D02*
D03*
X24950D02*
D03*
Y276000D02*
D03*
X37650D02*
D03*
X50350D02*
D03*
D27*
X63050D02*
D03*
D28*
X112985Y84000D02*
D03*
X91985D02*
D03*
X112500Y138500D02*
D03*
X91500D02*
D03*
D29*
X92985Y124950D02*
D03*
Y99050D02*
D03*
X102485D02*
D03*
X111985D02*
D03*
Y124950D02*
D03*
D35*
X142500Y32000D02*
D03*
X167500D02*
D03*
X37500D02*
D03*
X62500D02*
D03*
X244500D02*
D03*
X219500D02*
D03*
D36*
X142500Y103800D02*
D03*
X167500D02*
D03*
X142500Y128800D02*
D03*
X37500Y103800D02*
D03*
X62500D02*
D03*
X37500Y128800D02*
D03*
X132700Y520000D02*
D03*
X107300D02*
D03*
X64700Y160000D02*
D03*
X39300D02*
D03*
X155400Y160000D02*
D03*
X130000D02*
D03*
X104600D02*
D03*
X32000Y520800D02*
D03*
Y495400D02*
D03*
Y470000D02*
D03*
Y444600D02*
D03*
Y419200D02*
D03*
X219500Y103800D02*
D03*
X102485Y40600D02*
D03*
Y66000D02*
D03*
D37*
X167500Y128800D02*
D03*
X62500D02*
D03*
D38*
X459500Y254000D02*
D03*
Y170000D02*
D03*
D39*
X424500Y254000D02*
D03*
Y170000D02*
D03*
X34000Y622000D02*
D03*
X79000D02*
D03*
X249678Y148322D02*
D03*
Y287678D02*
D03*
D40*
X21450Y597100D02*
D03*
X91550D02*
D03*
D41*
X244500Y103800D02*
D03*
D42*
X214322Y183678D02*
D03*
D43*
Y252322D02*
D03*
M02*
