%FSLAX44Y44*%
%MOMM*%
G71*
G01*
G75*
G04 Layer_Color=32896*
%ADD10C,0.4000*%
%ADD11C,0.2540*%
%ADD12R,1.1500X0.7000*%
%ADD13R,0.7000X1.1500*%
%ADD14R,1.0000X1.1000*%
%ADD15R,5.3300X5.5900*%
%ADD16R,6.3500X5.2800*%
%ADD17R,1.1000X1.0000*%
G04:AMPARAMS|DCode=18|XSize=1mm|YSize=1.1mm|CornerRadius=0mm|HoleSize=0mm|Usage=FLASHONLY|Rotation=45.000|XOffset=0mm|YOffset=0mm|HoleType=Round|Shape=Rectangle|*
%AMROTATEDRECTD18*
4,1,4,0.0354,-0.7425,-0.7425,0.0354,-0.0354,0.7425,0.7425,-0.0354,0.0354,-0.7425,0.0*
%
%ADD18ROTATEDRECTD18*%

G04:AMPARAMS|DCode=19|XSize=1mm|YSize=1.1mm|CornerRadius=0mm|HoleSize=0mm|Usage=FLASHONLY|Rotation=135.000|XOffset=0mm|YOffset=0mm|HoleType=Round|Shape=Rectangle|*
%AMROTATEDRECTD19*
4,1,4,0.7425,0.0354,-0.0354,-0.7425,-0.7425,-0.0354,0.0354,0.7425,0.7425,0.0354,0.0*
%
%ADD19ROTATEDRECTD19*%

G04:AMPARAMS|DCode=20|XSize=0.5mm|YSize=1.2mm|CornerRadius=0mm|HoleSize=0mm|Usage=FLASHONLY|Rotation=135.000|XOffset=0mm|YOffset=0mm|HoleType=Round|Shape=Rectangle|*
%AMROTATEDRECTD20*
4,1,4,0.6010,0.2475,-0.2475,-0.6010,-0.6010,-0.2475,0.2475,0.6010,0.6010,0.2475,0.0*
%
%ADD20ROTATEDRECTD20*%

G04:AMPARAMS|DCode=21|XSize=0.5mm|YSize=1.2mm|CornerRadius=0mm|HoleSize=0mm|Usage=FLASHONLY|Rotation=225.000|XOffset=0mm|YOffset=0mm|HoleType=Round|Shape=Rectangle|*
%AMROTATEDRECTD21*
4,1,4,-0.2475,0.6010,0.6010,-0.2475,0.2475,-0.6010,-0.6010,0.2475,-0.2475,0.6010,0.0*
%
%ADD21ROTATEDRECTD21*%

%ADD22O,0.8000X3.0000*%
%ADD23R,0.7620X1.0100*%
%ADD24R,2.2870X1.0100*%
%ADD25R,1.8000X3.7000*%
%ADD26R,0.6000X1.8000*%
G04:AMPARAMS|DCode=27|XSize=0.6mm|YSize=1.8mm|CornerRadius=0.15mm|HoleSize=0mm|Usage=FLASHONLY|Rotation=0.000|XOffset=0mm|YOffset=0mm|HoleType=Round|Shape=RoundedRectangle|*
%AMROUNDEDRECTD27*
21,1,0.6000,1.5000,0,0,0.0*
21,1,0.3000,1.8000,0,0,0.0*
1,1,0.3000,0.1500,-0.7500*
1,1,0.3000,-0.1500,-0.7500*
1,1,0.3000,-0.1500,0.7500*
1,1,0.3000,0.1500,0.7500*
%
%ADD27ROUNDEDRECTD27*%
%ADD28R,1.1000X1.5000*%
%ADD29R,0.6000X0.9000*%
%ADD30C,0.6000*%
%ADD31C,0.4500*%
%ADD32C,1.0000*%
%ADD33C,0.5000*%
%ADD34C,0.1500*%
%ADD35C,0.8000*%
%ADD36C,1.8000*%
%ADD37R,1.8000X1.8000*%
%ADD38R,1.4000X1.4000*%
%ADD39C,1.4000*%
%ADD40C,1.7000*%
%ADD41R,1.8000X1.8000*%
%ADD42P,1.9799X4X360.0*%
%ADD43P,1.9799X4X90.0*%
%ADD44C,0.6000*%
%ADD45C,1.0000*%
%ADD46C,0.9000*%
%ADD47R,1.4000X1.3900*%
%ADD48R,4.8600X3.3600*%
%ADD49R,1.5000X1.0000*%
%ADD50R,1.0000X0.9000*%
%ADD51R,1.6000X1.8000*%
%ADD52O,1.5500X0.2500*%
%ADD53R,1.5500X0.2500*%
%ADD54R,0.2500X1.5500*%
%ADD55R,4.6000X4.6000*%
G04:AMPARAMS|DCode=56|XSize=0.76mm|YSize=1.27mm|CornerRadius=0mm|HoleSize=0mm|Usage=FLASHONLY|Rotation=315.000|XOffset=0mm|YOffset=0mm|HoleType=Round|Shape=Rectangle|*
%AMROTATEDRECTD56*
4,1,4,-0.7177,-0.1803,0.1803,0.7177,0.7177,0.1803,-0.1803,-0.7177,-0.7177,-0.1803,0.0*
%
%ADD56ROTATEDRECTD56*%

%ADD57R,2.2000X1.6000*%
%ADD58R,2.0000X3.5000*%
%ADD59R,0.9000X0.6900*%
%ADD60R,0.9900X0.6900*%
%ADD61R,0.6900X0.9000*%
%ADD62R,0.6900X0.9900*%
%ADD63R,1.4000X1.4000*%
%ADD64R,1.6000X2.9000*%
%ADD65R,1.5000X1.1000*%
%ADD66R,1.8000X1.6000*%
%ADD67R,2.9000X1.6000*%
%ADD68R,3.8100X4.2400*%
%ADD69C,0.1600*%
%ADD70C,0.1800*%
%ADD71C,0.3000*%
%ADD72C,0.2000*%
%ADD73C,0.2500*%
%ADD74C,0.1000*%
%ADD75C,0.1270*%
%ADD76C,0.0254*%
%ADD77C,0.1524*%
D11*
X381820Y450500D02*
G03*
X381820Y450500I-1000J0D01*
G01*
X406820Y593500D02*
G03*
X406820Y593500I-1000J0D01*
G01*
X112000Y601765D02*
X122157D01*
X117078D01*
Y617000D01*
X127235D02*
Y614461D01*
X129774D01*
Y617000D01*
X127235D01*
X150088Y601765D02*
X145009D01*
X147549D01*
Y614461D01*
X145009Y617000D01*
X142470D01*
X139931Y614461D01*
X155166Y617000D02*
Y614461D01*
X157705D01*
Y617000D01*
X155166D01*
X183097D02*
Y601765D01*
X190715D01*
X193254Y604304D01*
Y609383D01*
X190715Y611922D01*
X183097D01*
X188175D02*
X193254Y617000D01*
X200871D02*
X205950D01*
X208489Y614461D01*
Y609383D01*
X205950Y606843D01*
X200871D01*
X198332Y609383D01*
Y614461D01*
X200871Y617000D01*
X221185D02*
X216106D01*
X213567Y614461D01*
Y609383D01*
X216106Y606843D01*
X221185D01*
X223724Y609383D01*
Y611922D01*
X213567D01*
X228802Y622078D02*
Y606843D01*
X236420D01*
X238959Y609383D01*
Y614461D01*
X236420Y617000D01*
X228802D01*
X244037D02*
Y606843D01*
X246576D01*
X249116Y609383D01*
Y617000D01*
Y609383D01*
X251655Y606843D01*
X254194Y609383D01*
Y617000D01*
X261812Y606843D02*
X266890D01*
X269429Y609383D01*
Y617000D01*
X261812D01*
X259272Y614461D01*
X261812Y611922D01*
X269429D01*
X274508Y617000D02*
Y606843D01*
X282125D01*
X284664Y609383D01*
Y617000D01*
X112000Y579765D02*
Y595000D01*
X122157D01*
X127235D02*
Y592461D01*
X129774D01*
Y595000D01*
X127235D01*
X139931Y579765D02*
X150088D01*
X145009D01*
Y595000D01*
X155166D02*
Y592461D01*
X157705D01*
Y595000D01*
X155166D01*
X183097Y579765D02*
Y595000D01*
X190715D01*
X193254Y592461D01*
Y582304D01*
X190715Y579765D01*
X183097D01*
X200871Y595000D02*
X205950D01*
X208489Y592461D01*
Y587383D01*
X205950Y584843D01*
X200871D01*
X198332Y587383D01*
Y592461D01*
X200871Y595000D01*
X221185D02*
X216106D01*
X213567Y592461D01*
Y587383D01*
X216106Y584843D01*
X221185D01*
X223724Y587383D01*
Y589922D01*
X213567D01*
X228802Y595000D02*
X236420D01*
X238959Y592461D01*
X236420Y589922D01*
X231341D01*
X228802Y587383D01*
X231341Y584843D01*
X238959D01*
X112000Y638000D02*
Y622765D01*
X119618D01*
X122157Y625304D01*
Y630382D01*
X119618Y632922D01*
X112000D01*
X117078D02*
X122157Y638000D01*
X127235D02*
Y635461D01*
X129774D01*
Y638000D01*
X127235D01*
X139931D02*
Y622765D01*
X147549D01*
X150088Y625304D01*
Y630382D01*
X147549Y632922D01*
X139931D01*
X145009D02*
X150088Y638000D01*
X155166D02*
Y635461D01*
X157705D01*
Y638000D01*
X155166D01*
X183097Y627843D02*
X188175Y638000D01*
X193254Y627843D01*
X200871D02*
X205950D01*
X208489Y630382D01*
Y638000D01*
X200871D01*
X198332Y635461D01*
X200871Y632922D01*
X208489D01*
X213567Y638000D02*
Y627843D01*
X221185D01*
X223724Y630382D01*
Y638000D01*
X244037Y622765D02*
Y638000D01*
X249116Y632922D01*
X254194Y638000D01*
Y622765D01*
X259272Y638000D02*
X264351D01*
X261812D01*
Y627843D01*
X259272D01*
X271968Y643078D02*
X274508D01*
X277047Y640539D01*
Y627843D01*
X287203Y638000D02*
Y622765D01*
Y632922D02*
X294821Y627843D01*
X287203Y632922D02*
X294821Y638000D01*
X450765Y488382D02*
Y493461D01*
X453304Y496000D01*
X463461D01*
X466000Y493461D01*
Y488382D01*
X463461Y485843D01*
X453304D01*
X450765Y488382D01*
X471078Y480765D02*
X455843D01*
Y473147D01*
X458382Y470608D01*
X463461D01*
X466000Y473147D01*
Y480765D01*
Y457912D02*
Y462991D01*
X463461Y465530D01*
X458382D01*
X455843Y462991D01*
Y457912D01*
X458382Y455373D01*
X460922D01*
Y465530D01*
X466000Y450295D02*
X455843D01*
Y442677D01*
X458382Y440138D01*
X466000D01*
Y435060D02*
X450765D01*
X455843Y429981D01*
X450765Y424903D01*
X466000D01*
Y419825D02*
X450765D01*
Y412207D01*
X453304Y409668D01*
X458382D01*
X460922Y412207D01*
Y419825D01*
X466000Y404590D02*
X450765D01*
Y396972D01*
X453304Y394433D01*
X458382D01*
X460922Y396972D01*
Y404590D01*
X450765Y389355D02*
Y379198D01*
Y384276D01*
X466000D01*
Y363963D02*
Y374119D01*
X455843Y363963D01*
X453304D01*
X450765Y366502D01*
Y371580D01*
X453304Y374119D01*
X474765Y496000D02*
X484922D01*
X490000Y490922D01*
X484922Y485843D01*
X474765D01*
X490000Y473147D02*
Y478226D01*
X487461Y480765D01*
X482383D01*
X479843Y478226D01*
Y473147D01*
X482383Y470608D01*
X484922D01*
Y480765D01*
X479843Y465530D02*
X490000D01*
X484922D01*
X482383Y462991D01*
X479843Y460452D01*
Y457912D01*
Y450295D02*
Y447756D01*
X482383D01*
Y450295D01*
X479843D01*
X487461D02*
Y447756D01*
X490000D01*
Y450295D01*
X487461D01*
X477304Y437599D02*
X474765Y435060D01*
Y429981D01*
X477304Y427442D01*
X487461D01*
X490000Y429981D01*
Y435060D01*
X487461Y437599D01*
X477304D01*
X490000Y422364D02*
X487461D01*
Y419825D01*
X490000D01*
Y422364D01*
X487461Y409668D02*
X490000Y407129D01*
Y402050D01*
X487461Y399511D01*
X477304D01*
X474765Y402050D01*
Y407129D01*
X477304Y409668D01*
X479843D01*
X482383Y407129D01*
Y399511D01*
X477304Y394433D02*
X474765Y391894D01*
Y386815D01*
X477304Y384276D01*
X479843D01*
X482383Y386815D01*
X484922Y384276D01*
X487461D01*
X490000Y386815D01*
Y391894D01*
X487461Y394433D01*
X484922D01*
X482383Y391894D01*
X479843Y394433D01*
X477304D01*
X482383Y391894D02*
Y386815D01*
X474765Y369041D02*
X490000D01*
Y376659D01*
X487461Y379198D01*
X482383D01*
X479843Y376659D01*
Y369041D01*
D33*
X126175Y471479D02*
G03*
X126175Y471479I-316J0D01*
G01*
D34*
X93046Y8196D02*
G03*
X111924Y8196I9439J3304D01*
G01*
X320312Y431005D02*
G03*
X330312Y441005I0J10000D01*
G01*
X257313D02*
G03*
X267313Y431005I10000J0D01*
G01*
X330312Y494005D02*
G03*
X320312Y504005I-10000J0D01*
G01*
X267313Y504005D02*
G03*
X257313Y494004I0J-10000D01*
G01*
X108385Y16500D02*
X111585D01*
X93385D02*
X96585D01*
X301500Y158200D02*
X330500D01*
X301500Y177800D02*
X330500D01*
X319500Y160500D02*
Y175500D01*
X312500Y168000D02*
X319500Y175500D01*
X312500Y168000D02*
X319500Y160500D01*
X312500D02*
Y175500D01*
X306812Y431006D02*
X320312D01*
X267313D02*
X280813D01*
X257313Y441006D02*
Y494005D01*
X330312Y441006D02*
Y494005D01*
X306813Y504005D02*
X320312D01*
X267313Y504005D02*
X280813D01*
X422620Y518000D02*
Y547000D01*
X405320Y529000D02*
X420320D01*
X403020Y518000D02*
Y547000D01*
X412820Y536000D02*
X420320Y529000D01*
X405320Y536000D02*
X420320D01*
X405320Y529000D02*
X412820Y536000D01*
D72*
X309819Y633497D02*
G03*
X296937Y626422I0J-15264D01*
G01*
X393820Y453500D02*
G03*
X387820Y453500I-3000J0D01*
G01*
X408820Y580500D02*
G03*
X408820Y586500I0J3000D01*
G01*
X422750Y308700D02*
Y351300D01*
X478750Y308700D02*
Y351300D01*
X422750D02*
X478750D01*
X422750Y308700D02*
X478750D01*
X375900Y208100D02*
Y250800D01*
X320100Y208100D02*
X375900D01*
X320100D02*
Y263900D01*
X362800D01*
X375900Y250800D01*
X78801Y429442D02*
X119813Y470454D01*
X164008Y426259D01*
X122996Y385247D02*
X164008Y426259D01*
X78801Y429442D02*
X122996Y385247D01*
X384819Y533497D02*
X396819Y545497D01*
Y563497D01*
X319819Y533497D02*
X384819D01*
X296819Y556497D02*
X319819Y533497D01*
X296819Y556497D02*
Y563497D01*
X396816Y603500D02*
Y610495D01*
Y603500D02*
X396819Y603497D01*
X373816Y633495D02*
X396816Y610495D01*
X309819Y633497D02*
X373816D01*
X296937Y603615D02*
Y626422D01*
X384820Y453500D02*
Y481500D01*
X396820D01*
Y453500D02*
Y481500D01*
X384820Y453500D02*
X387820D01*
X393820D02*
X396820D01*
X408820Y577500D02*
X436820D01*
Y589500D01*
X408820Y577500D02*
Y580500D01*
Y589500D02*
X436820D01*
X408820Y586500D02*
Y589500D01*
X320000Y48000D02*
Y148000D01*
Y48000D02*
X372000D01*
Y148000D01*
X320000D02*
X372000D01*
X284000Y362000D02*
X276003D01*
Y358001D01*
X277335Y356668D01*
X280001D01*
X281334Y358001D01*
Y362000D01*
Y359334D02*
X284000Y356668D01*
Y350004D02*
X276003D01*
X280001Y354003D01*
Y348671D01*
X284000Y340674D02*
Y346005D01*
X278668Y340674D01*
X277335D01*
X276003Y342006D01*
Y344672D01*
X277335Y346005D01*
Y338008D02*
X276003Y336675D01*
Y334009D01*
X277335Y332676D01*
X282667D01*
X284000Y334009D01*
Y336675D01*
X282667Y338008D01*
X277335D01*
X86485Y84000D02*
X78488D01*
Y80001D01*
X79820Y78668D01*
X82486D01*
X83819Y80001D01*
Y84000D01*
Y81334D02*
X86485Y78668D01*
X79820Y76003D02*
X78488Y74670D01*
Y72004D01*
X79820Y70671D01*
X81153D01*
X82486Y72004D01*
Y73337D01*
Y72004D01*
X83819Y70671D01*
X85152D01*
X86485Y72004D01*
Y74670D01*
X85152Y76003D01*
X79820Y68005D02*
X78488Y66672D01*
Y64007D01*
X79820Y62674D01*
X85152D01*
X86485Y64007D01*
Y66672D01*
X85152Y68005D01*
X79820D01*
Y60008D02*
X78488Y58675D01*
Y56009D01*
X79820Y54676D01*
X85152D01*
X86485Y56009D01*
Y58675D01*
X85152Y60008D01*
X79820D01*
X72485Y17997D02*
Y10000D01*
X68486D01*
X67153Y11333D01*
Y16665D01*
X68486Y17997D01*
X72485D01*
X64488Y16665D02*
X63155Y17997D01*
X60489D01*
X59156Y16665D01*
Y15332D01*
X60489Y13999D01*
X61822D01*
X60489D01*
X59156Y12666D01*
Y11333D01*
X60489Y10000D01*
X63155D01*
X64488Y11333D01*
X56490Y16665D02*
X55157Y17997D01*
X52491D01*
X51158Y16665D01*
Y11333D01*
X52491Y10000D01*
X55157D01*
X56490Y11333D01*
Y16665D01*
X48493D02*
X47160Y17997D01*
X44494D01*
X43161Y16665D01*
Y11333D01*
X44494Y10000D01*
X47160D01*
X48493Y11333D01*
Y16665D01*
X442668Y638665D02*
X444001Y639997D01*
X446667D01*
X448000Y638665D01*
Y633333D01*
X446667Y632000D01*
X444001D01*
X442668Y633333D01*
X440003Y632000D02*
X437337D01*
X438670D01*
Y639997D01*
X440003Y638665D01*
X433338D02*
X432005Y639997D01*
X429339D01*
X428006Y638665D01*
Y633333D01*
X429339Y632000D01*
X432005D01*
X433338Y633333D01*
Y638665D01*
X425341D02*
X424008Y639997D01*
X421342D01*
X420009Y638665D01*
Y633333D01*
X421342Y632000D01*
X424008D01*
X425341Y633333D01*
Y638665D01*
X484202Y522832D02*
X485535Y521499D01*
Y518833D01*
X484202Y517500D01*
X478870D01*
X477537Y518833D01*
Y521499D01*
X478870Y522832D01*
X477537Y525497D02*
Y528163D01*
Y526830D01*
X485535D01*
X484202Y525497D01*
Y532162D02*
X485535Y533495D01*
Y536161D01*
X484202Y537494D01*
X478870D01*
X477537Y536161D01*
Y533495D01*
X478870Y532162D01*
X484202D01*
X477537Y540159D02*
Y542825D01*
Y541492D01*
X485535D01*
X484202Y540159D01*
X435202Y494832D02*
X436535Y493499D01*
Y490833D01*
X435202Y489500D01*
X429870D01*
X428537Y490833D01*
Y493499D01*
X429870Y494832D01*
X428537Y497497D02*
Y500163D01*
Y498830D01*
X436535D01*
X435202Y497497D01*
Y504162D02*
X436535Y505495D01*
Y508161D01*
X435202Y509493D01*
X429870D01*
X428537Y508161D01*
Y505495D01*
X429870Y504162D01*
X435202D01*
X428537Y517491D02*
Y512159D01*
X433869Y517491D01*
X435202D01*
X436535Y516158D01*
Y513492D01*
X435202Y512159D01*
X384668Y506665D02*
X386001Y507997D01*
X388667D01*
X390000Y506665D01*
Y501333D01*
X388667Y500000D01*
X386001D01*
X384668Y501333D01*
X382003Y500000D02*
X379337D01*
X380670D01*
Y507997D01*
X382003Y506665D01*
X375338D02*
X374005Y507997D01*
X371339D01*
X370006Y506665D01*
Y501333D01*
X371339Y500000D01*
X374005D01*
X375338Y501333D01*
Y506665D01*
X367341D02*
X366008Y507997D01*
X363342D01*
X362009Y506665D01*
Y505332D01*
X363342Y503999D01*
X364675D01*
X363342D01*
X362009Y502666D01*
Y501333D01*
X363342Y500000D01*
X366008D01*
X367341Y501333D01*
X402206Y426165D02*
X403538Y427497D01*
X406204D01*
X407537Y426165D01*
Y420833D01*
X406204Y419500D01*
X403538D01*
X402206Y420833D01*
X399540Y419500D02*
X396874D01*
X398207D01*
Y427497D01*
X399540Y426165D01*
X392875D02*
X391542Y427497D01*
X388876D01*
X387544Y426165D01*
Y420833D01*
X388876Y419500D01*
X391542D01*
X392875Y420833D01*
Y426165D01*
X380879Y419500D02*
Y427497D01*
X384878Y423499D01*
X379546D01*
X339336Y514668D02*
X338003Y516001D01*
Y518667D01*
X339336Y520000D01*
X344667D01*
X346000Y518667D01*
Y516001D01*
X344667Y514668D01*
X346000Y512003D02*
Y509337D01*
Y510670D01*
X338003D01*
X339336Y512003D01*
Y505338D02*
X338003Y504005D01*
Y501339D01*
X339336Y500006D01*
X344667D01*
X346000Y501339D01*
Y504005D01*
X344667Y505338D01*
X339336D01*
X338003Y492009D02*
Y497341D01*
X342001D01*
X340668Y494675D01*
Y493342D01*
X342001Y492009D01*
X344667D01*
X346000Y493342D01*
Y496008D01*
X344667Y497341D01*
X376668Y492664D02*
X378001Y493997D01*
X380667D01*
X382000Y492664D01*
Y487333D01*
X380667Y486000D01*
X378001D01*
X376668Y487333D01*
X374003Y486000D02*
X371337D01*
X372670D01*
Y493997D01*
X374003Y492664D01*
X367338D02*
X366005Y493997D01*
X363339D01*
X362006Y492664D01*
Y487333D01*
X363339Y486000D01*
X366005D01*
X367338Y487333D01*
Y492664D01*
X354009Y493997D02*
X356675Y492664D01*
X359341Y489999D01*
Y487333D01*
X358008Y486000D01*
X355342D01*
X354009Y487333D01*
Y488666D01*
X355342Y489999D01*
X359341D01*
X351205Y391165D02*
X352538Y392497D01*
X355204D01*
X356537Y391165D01*
Y385833D01*
X355204Y384500D01*
X352538D01*
X351205Y385833D01*
X348540Y384500D02*
X345874D01*
X347207D01*
Y392497D01*
X348540Y391165D01*
X341875D02*
X340542Y392497D01*
X337877D01*
X336544Y391165D01*
Y385833D01*
X337877Y384500D01*
X340542D01*
X341875Y385833D01*
Y391165D01*
X333878Y392497D02*
X328546D01*
Y391165D01*
X333878Y385833D01*
Y384500D01*
X362537Y545503D02*
Y553500D01*
X366536D01*
X367869Y552167D01*
Y546835D01*
X366536Y545503D01*
X362537D01*
X370535Y553500D02*
X373200D01*
X371867D01*
Y545503D01*
X370535Y546835D01*
X377199D02*
X378532Y545503D01*
X381198D01*
X382531Y546835D01*
Y552167D01*
X381198Y553500D01*
X378532D01*
X377199Y552167D01*
Y546835D01*
X385196D02*
X386529Y545503D01*
X389195D01*
X390528Y546835D01*
Y552167D01*
X389195Y553500D01*
X386529D01*
X385196Y552167D01*
Y546835D01*
X449997Y566000D02*
Y568666D01*
Y567333D01*
X442000D01*
Y566000D01*
Y568666D01*
X448665Y577996D02*
X449997Y576663D01*
Y573997D01*
X448665Y572664D01*
X443333D01*
X442000Y573997D01*
Y576663D01*
X443333Y577996D01*
X442000Y580662D02*
Y583328D01*
Y581995D01*
X449997D01*
X448665Y580662D01*
Y587327D02*
X449997Y588659D01*
Y591325D01*
X448665Y592658D01*
X443333D01*
X442000Y591325D01*
Y588659D01*
X443333Y587327D01*
X448665D01*
Y595324D02*
X449997Y596657D01*
Y599323D01*
X448665Y600656D01*
X443333D01*
X442000Y599323D01*
Y596657D01*
X443333Y595324D01*
X448665D01*
X420000Y493997D02*
X417334D01*
X418667D01*
Y486000D01*
X420000D01*
X417334D01*
X408004Y492664D02*
X409337Y493997D01*
X412003D01*
X413335Y492664D01*
Y487333D01*
X412003Y486000D01*
X409337D01*
X408004Y487333D01*
X405338Y486000D02*
X402672D01*
X404005D01*
Y493997D01*
X405338Y492664D01*
X398674D02*
X397341Y493997D01*
X394675D01*
X393342Y492664D01*
Y487333D01*
X394675Y486000D01*
X397341D01*
X398674Y487333D01*
Y492664D01*
X390676Y486000D02*
X388010D01*
X389343D01*
Y493997D01*
X390676Y492664D01*
X315192Y531155D02*
X309537Y525500D01*
X305767Y529270D01*
X303882Y531155D02*
X301997Y533040D01*
X302940Y532098D01*
X308595Y537752D01*
X308595Y535868D01*
X303882Y540580D02*
X303882Y542465D01*
X301997Y544350D01*
X300112D01*
X296342Y540580D01*
X296342Y538695D01*
X298227Y536810D01*
X300112D01*
X303882Y540580D01*
X298227Y546235D02*
X298227Y548120D01*
X296342Y550005D01*
X294457D01*
X290687Y546235D01*
Y544350D01*
X292572Y542465D01*
X294457D01*
X298227Y546235D01*
X312537Y426497D02*
Y418500D01*
X307206D01*
X304540D02*
X301874D01*
X303207D01*
Y426497D01*
X304540Y425164D01*
X297875D02*
X296542Y426497D01*
X293876D01*
X292544Y425164D01*
Y419833D01*
X293876Y418500D01*
X296542D01*
X297875Y419833D01*
Y425164D01*
X289878Y418500D02*
X287212D01*
X288545D01*
Y426497D01*
X289878Y425164D01*
X498000Y604000D02*
Y611997D01*
X494001D01*
X492668Y610664D01*
Y607999D01*
X494001Y606666D01*
X498000D01*
X495334D02*
X492668Y604000D01*
X490003D02*
X487337D01*
X488670D01*
Y611997D01*
X490003Y610664D01*
X483338D02*
X482005Y611997D01*
X479339D01*
X478006Y610664D01*
Y605333D01*
X479339Y604000D01*
X482005D01*
X483338Y605333D01*
Y610664D01*
X475341D02*
X474008Y611997D01*
X471342D01*
X470009Y610664D01*
Y605333D01*
X471342Y604000D01*
X474008D01*
X475341Y605333D01*
Y610664D01*
X411640Y627000D02*
Y619003D01*
X415638D01*
X416971Y620336D01*
Y623001D01*
X415638Y624334D01*
X411640D01*
X414305D02*
X416971Y627000D01*
X419637D02*
X422303D01*
X420970D01*
Y619003D01*
X419637Y620336D01*
X426301D02*
X427634Y619003D01*
X430300D01*
X431633Y620336D01*
Y625667D01*
X430300Y627000D01*
X427634D01*
X426301Y625667D01*
Y620336D01*
X434299Y627000D02*
X436965D01*
X435632D01*
Y619003D01*
X434299Y620336D01*
X428000Y420000D02*
X435997D01*
Y423999D01*
X434664Y425332D01*
X431999D01*
X430666Y423999D01*
Y420000D01*
Y422666D02*
X428000Y425332D01*
Y427997D02*
Y430663D01*
Y429330D01*
X435997D01*
X434664Y427997D01*
Y434662D02*
X435997Y435995D01*
Y438661D01*
X434664Y439994D01*
X429333D01*
X428000Y438661D01*
Y435995D01*
X429333Y434662D01*
X434664D01*
X428000Y447991D02*
Y442659D01*
X433332Y447991D01*
X434664D01*
X435997Y446658D01*
Y443992D01*
X434664Y442659D01*
X414000Y420000D02*
X421997D01*
Y423999D01*
X420664Y425332D01*
X417999D01*
X416666Y423999D01*
Y420000D01*
Y422666D02*
X414000Y425332D01*
Y427997D02*
Y430663D01*
Y429330D01*
X421997D01*
X420664Y427997D01*
Y434662D02*
X421997Y435995D01*
Y438661D01*
X420664Y439994D01*
X415333D01*
X414000Y438661D01*
Y435995D01*
X415333Y434662D01*
X420664D01*
Y442659D02*
X421997Y443992D01*
Y446658D01*
X420664Y447991D01*
X419332D01*
X417999Y446658D01*
Y445325D01*
Y446658D01*
X416666Y447991D01*
X415333D01*
X414000Y446658D01*
Y443992D01*
X415333Y442659D01*
X107517Y472943D02*
Y474827D01*
X109402Y476712D01*
X111287Y476712D01*
X112230Y475770D01*
X112230Y473885D01*
X110345Y472000D01*
X110345Y470115D01*
X111287Y469173D01*
X113173Y469173D01*
X115057Y471058D01*
Y472943D01*
X106575Y462575D02*
X110345Y466345D01*
X102805D01*
X101862Y467287D01*
Y469173D01*
X103747Y471058D01*
X105632Y471058D01*
X99977Y465402D02*
X98092Y465402D01*
X96207Y463517D01*
Y461632D01*
X99977Y457862D01*
X101862Y457862D01*
X103747Y459747D01*
Y461632D01*
X99977Y465402D01*
X94322Y459747D02*
X92437Y459747D01*
X90552Y457862D01*
Y455977D01*
X94322Y452207D01*
X96207Y452207D01*
X98092Y454092D01*
Y455977D01*
X94322Y459747D01*
X228000Y216000D02*
Y208003D01*
X231999D01*
X233332Y209335D01*
Y212001D01*
X231999Y213334D01*
X228000D01*
X230666D02*
X233332Y216000D01*
X239996D02*
Y208003D01*
X235997Y212001D01*
X241329D01*
X243995Y216000D02*
X246661D01*
X245328D01*
Y208003D01*
X243995Y209335D01*
X250659Y208003D02*
X255991D01*
Y209335D01*
X250659Y214667D01*
Y216000D01*
X228000Y272000D02*
Y264003D01*
X231999D01*
X233332Y265336D01*
Y268001D01*
X231999Y269334D01*
X228000D01*
X230666D02*
X233332Y272000D01*
X239996D02*
Y264003D01*
X235997Y268001D01*
X241329D01*
X243995Y272000D02*
X246661D01*
X245328D01*
Y264003D01*
X243995Y265336D01*
X255991Y264003D02*
X250659D01*
Y268001D01*
X253325Y266668D01*
X254658D01*
X255991Y268001D01*
Y270667D01*
X254658Y272000D01*
X251992D01*
X250659Y270667D01*
X228000Y260000D02*
Y252003D01*
X231999D01*
X233332Y253335D01*
Y256001D01*
X231999Y257334D01*
X228000D01*
X230666D02*
X233332Y260000D01*
X239996D02*
Y252003D01*
X235997Y256001D01*
X241329D01*
X243995Y260000D02*
X246661D01*
X245328D01*
Y252003D01*
X243995Y253335D01*
X254658Y260000D02*
Y252003D01*
X250659Y256001D01*
X255991D01*
X356000Y362000D02*
X348003D01*
Y358001D01*
X349336Y356668D01*
X352001D01*
X353334Y358001D01*
Y362000D01*
Y359334D02*
X356000Y356668D01*
Y350004D02*
X348003D01*
X352001Y354003D01*
Y348671D01*
X356000Y346005D02*
Y343339D01*
Y344672D01*
X348003D01*
X349336Y346005D01*
Y339341D02*
X348003Y338008D01*
Y335342D01*
X349336Y334009D01*
X350668D01*
X352001Y335342D01*
Y336675D01*
Y335342D01*
X353334Y334009D01*
X354667D01*
X356000Y335342D01*
Y338008D01*
X354667Y339341D01*
X296000Y362000D02*
X288003D01*
Y358001D01*
X289335Y356668D01*
X292001D01*
X293334Y358001D01*
Y362000D01*
Y359334D02*
X296000Y356668D01*
Y350004D02*
X288003D01*
X292001Y354003D01*
Y348671D01*
X296000Y346005D02*
Y343339D01*
Y344672D01*
X288003D01*
X289335Y346005D01*
X296000Y334009D02*
Y339341D01*
X290668Y334009D01*
X289335D01*
X288003Y335342D01*
Y338008D01*
X289335Y339341D01*
X228000Y180000D02*
Y172003D01*
X231999D01*
X233332Y173335D01*
Y176001D01*
X231999Y177334D01*
X228000D01*
X230666D02*
X233332Y180000D01*
X239996D02*
Y172003D01*
X235997Y176001D01*
X241329D01*
X243995Y180000D02*
X246661D01*
X245328D01*
Y172003D01*
X243995Y173335D01*
X250659Y180000D02*
X253325D01*
X251992D01*
Y172003D01*
X250659Y173335D01*
X284000Y150000D02*
Y157997D01*
X280001D01*
X278668Y156664D01*
Y153999D01*
X280001Y152666D01*
X284000D01*
X281334D02*
X278668Y150000D01*
X272004D02*
Y157997D01*
X276003Y153999D01*
X270671D01*
X268005Y150000D02*
X265339D01*
X266672D01*
Y157997D01*
X268005Y156664D01*
X261341D02*
X260008Y157997D01*
X257342D01*
X256009Y156664D01*
Y151333D01*
X257342Y150000D01*
X260008D01*
X261341Y151333D01*
Y156664D01*
X476000Y216000D02*
Y223997D01*
X472001D01*
X470668Y222665D01*
Y219999D01*
X472001Y218666D01*
X476000D01*
X473334D02*
X470668Y216000D01*
X464004D02*
Y223997D01*
X468003Y219999D01*
X462671D01*
X460005Y222665D02*
X458672Y223997D01*
X456006D01*
X454674Y222665D01*
Y217333D01*
X456006Y216000D01*
X458672D01*
X460005Y217333D01*
Y222665D01*
X452008Y217333D02*
X450675Y216000D01*
X448009D01*
X446676Y217333D01*
Y222665D01*
X448009Y223997D01*
X450675D01*
X452008Y222665D01*
Y221332D01*
X450675Y219999D01*
X446676D01*
X476000Y276000D02*
Y283997D01*
X472001D01*
X470668Y282665D01*
Y279999D01*
X472001Y278666D01*
X476000D01*
X473334D02*
X470668Y276000D01*
X464004D02*
Y283997D01*
X468003Y279999D01*
X462671D01*
X460005Y282665D02*
X458672Y283997D01*
X456006D01*
X454674Y282665D01*
Y277333D01*
X456006Y276000D01*
X458672D01*
X460005Y277333D01*
Y282665D01*
X452008D02*
X450675Y283997D01*
X448009D01*
X446676Y282665D01*
Y281332D01*
X448009Y279999D01*
X446676Y278666D01*
Y277333D01*
X448009Y276000D01*
X450675D01*
X452008Y277333D01*
Y278666D01*
X450675Y279999D01*
X452008Y281332D01*
Y282665D01*
X450675Y279999D02*
X448009D01*
X476000Y264000D02*
Y271997D01*
X472001D01*
X470668Y270665D01*
Y267999D01*
X472001Y266666D01*
X476000D01*
X473334D02*
X470668Y264000D01*
X464004D02*
Y271997D01*
X468003Y267999D01*
X462671D01*
X460005Y270665D02*
X458672Y271997D01*
X456006D01*
X454674Y270665D01*
Y265333D01*
X456006Y264000D01*
X458672D01*
X460005Y265333D01*
Y270665D01*
X446676Y271997D02*
X452008D01*
Y267999D01*
X449342Y269332D01*
X448009D01*
X446676Y267999D01*
Y265333D01*
X448009Y264000D01*
X450675D01*
X452008Y265333D01*
X332000Y362000D02*
X324003D01*
Y358001D01*
X325336Y356668D01*
X328001D01*
X329334Y358001D01*
Y362000D01*
Y359334D02*
X332000Y356668D01*
Y350004D02*
X324003D01*
X328001Y354003D01*
Y348671D01*
X325336Y346005D02*
X324003Y344672D01*
Y342006D01*
X325336Y340674D01*
X330667D01*
X332000Y342006D01*
Y344672D01*
X330667Y346005D01*
X325336D01*
Y338008D02*
X324003Y336675D01*
Y334009D01*
X325336Y332676D01*
X326668D01*
X328001Y334009D01*
Y335342D01*
Y334009D01*
X329334Y332676D01*
X330667D01*
X332000Y334009D01*
Y336675D01*
X330667Y338008D01*
X320000Y362000D02*
X312003D01*
Y358001D01*
X313335Y356668D01*
X316001D01*
X317334Y358001D01*
Y362000D01*
Y359334D02*
X320000Y356668D01*
Y350004D02*
X312003D01*
X316001Y354003D01*
Y348671D01*
X313335Y346005D02*
X312003Y344672D01*
Y342006D01*
X313335Y340674D01*
X318667D01*
X320000Y342006D01*
Y344672D01*
X318667Y346005D01*
X313335D01*
X320000Y332676D02*
Y338008D01*
X314668Y332676D01*
X313335D01*
X312003Y334009D01*
Y336675D01*
X313335Y338008D01*
X228000Y228000D02*
Y220003D01*
X231999D01*
X233332Y221336D01*
Y224001D01*
X231999Y225334D01*
X228000D01*
X230666D02*
X233332Y228000D01*
X239996D02*
Y220003D01*
X235997Y224001D01*
X241329D01*
X243995Y221336D02*
X245328Y220003D01*
X247994D01*
X249326Y221336D01*
Y226667D01*
X247994Y228000D01*
X245328D01*
X243995Y226667D01*
Y221336D01*
X251992Y228000D02*
X254658D01*
X253325D01*
Y220003D01*
X251992Y221336D01*
X396000Y295997D02*
X393334D01*
X394667D01*
Y288000D01*
X396000D01*
X393334D01*
X384004Y294664D02*
X385337Y295997D01*
X388003D01*
X389336Y294664D01*
Y289333D01*
X388003Y288000D01*
X385337D01*
X384004Y289333D01*
X377339Y288000D02*
Y295997D01*
X381338Y291999D01*
X376006D01*
X373341Y294664D02*
X372008Y295997D01*
X369342D01*
X368009Y294664D01*
Y289333D01*
X369342Y288000D01*
X372008D01*
X373341Y289333D01*
Y294664D01*
X365343D02*
X364010Y295997D01*
X361344D01*
X360012Y294664D01*
Y289333D01*
X361344Y288000D01*
X364010D01*
X365343Y289333D01*
Y294664D01*
X507250Y307997D02*
Y300000D01*
X503251D01*
X501918Y301333D01*
Y306665D01*
X503251Y307997D01*
X507250D01*
X495254Y300000D02*
Y307997D01*
X499253Y303999D01*
X493921D01*
X491255Y306665D02*
X489922Y307997D01*
X487256D01*
X485924Y306665D01*
Y301333D01*
X487256Y300000D01*
X489922D01*
X491255Y301333D01*
Y306665D01*
X483258Y300000D02*
X480592D01*
X481925D01*
Y307997D01*
X483258Y306665D01*
X328000Y153997D02*
Y146000D01*
X324001D01*
X322668Y147333D01*
Y152664D01*
X324001Y153997D01*
X328000D01*
X316004Y146000D02*
Y153997D01*
X320003Y149999D01*
X314671D01*
X312005Y152664D02*
X310672Y153997D01*
X308006D01*
X306674Y152664D01*
Y147333D01*
X308006Y146000D01*
X310672D01*
X312005Y147333D01*
Y152664D01*
X304008D02*
X302675Y153997D01*
X300009D01*
X298676Y152664D01*
Y147333D01*
X300009Y146000D01*
X302675D01*
X304008Y147333D01*
Y152664D01*
X470668Y210665D02*
X472001Y211997D01*
X474667D01*
X476000Y210665D01*
Y205333D01*
X474667Y204000D01*
X472001D01*
X470668Y205333D01*
X464004Y204000D02*
Y211997D01*
X468003Y207999D01*
X462671D01*
X460005Y204000D02*
X457339D01*
X458672D01*
Y211997D01*
X460005Y210665D01*
X453341D02*
X452008Y211997D01*
X449342D01*
X448009Y210665D01*
Y209332D01*
X449342Y207999D01*
X450675D01*
X449342D01*
X448009Y206666D01*
Y205333D01*
X449342Y204000D01*
X452008D01*
X453341Y205333D01*
X233332Y185336D02*
X231999Y184003D01*
X229333D01*
X228000Y185336D01*
Y190667D01*
X229333Y192000D01*
X231999D01*
X233332Y190667D01*
X239996Y192000D02*
Y184003D01*
X235997Y188001D01*
X241329D01*
X243995Y192000D02*
X246661D01*
X245328D01*
Y184003D01*
X243995Y185336D01*
X255991Y192000D02*
X250659D01*
X255991Y186668D01*
Y185336D01*
X254658Y184003D01*
X251992D01*
X250659Y185336D01*
X233332Y197335D02*
X231999Y196003D01*
X229333D01*
X228000Y197335D01*
Y202667D01*
X229333Y204000D01*
X231999D01*
X233332Y202667D01*
X239996Y204000D02*
Y196003D01*
X235997Y200001D01*
X241329D01*
X243995Y204000D02*
X246661D01*
X245328D01*
Y196003D01*
X243995Y197335D01*
X250659Y204000D02*
X253325D01*
X251992D01*
Y196003D01*
X250659Y197335D01*
X470668Y294664D02*
X472001Y295997D01*
X474667D01*
X476000Y294664D01*
Y289333D01*
X474667Y288000D01*
X472001D01*
X470668Y289333D01*
X464004Y288000D02*
Y295997D01*
X468003Y291999D01*
X462671D01*
X460005Y288000D02*
X457339D01*
X458672D01*
Y295997D01*
X460005Y294664D01*
X453341D02*
X452008Y295997D01*
X449342D01*
X448009Y294664D01*
Y289333D01*
X449342Y288000D01*
X452008D01*
X453341Y289333D01*
Y294664D01*
X470668Y234664D02*
X472001Y235997D01*
X474667D01*
X476000Y234664D01*
Y229333D01*
X474667Y228000D01*
X472001D01*
X470668Y229333D01*
X464004Y228000D02*
Y235997D01*
X468003Y231999D01*
X462671D01*
X460005Y234664D02*
X458672Y235997D01*
X456006D01*
X454674Y234664D01*
Y229333D01*
X456006Y228000D01*
X458672D01*
X460005Y229333D01*
Y234664D01*
X452008Y235997D02*
X446676D01*
Y234664D01*
X452008Y229333D01*
Y228000D01*
X337336Y356668D02*
X336003Y358001D01*
Y360667D01*
X337336Y362000D01*
X342667D01*
X344000Y360667D01*
Y358001D01*
X342667Y356668D01*
X344000Y350004D02*
X336003D01*
X340001Y354003D01*
Y348671D01*
X337336Y346005D02*
X336003Y344672D01*
Y342006D01*
X337336Y340674D01*
X342667D01*
X344000Y342006D01*
Y344672D01*
X342667Y346005D01*
X337336D01*
X336003Y332676D02*
X337336Y335342D01*
X340001Y338008D01*
X342667D01*
X344000Y336675D01*
Y334009D01*
X342667Y332676D01*
X341334D01*
X340001Y334009D01*
Y338008D01*
X301336Y356668D02*
X300003Y358001D01*
Y360667D01*
X301336Y362000D01*
X306667D01*
X308000Y360667D01*
Y358001D01*
X306667Y356668D01*
X308000Y350004D02*
X300003D01*
X304001Y354003D01*
Y348671D01*
X301336Y346005D02*
X300003Y344672D01*
Y342006D01*
X301336Y340674D01*
X306667D01*
X308000Y342006D01*
Y344672D01*
X306667Y346005D01*
X301336D01*
X300003Y332676D02*
Y338008D01*
X304001D01*
X302668Y335342D01*
Y334009D01*
X304001Y332676D01*
X306667D01*
X308000Y334009D01*
Y336675D01*
X306667Y338008D01*
X215332Y235336D02*
X213999Y234003D01*
X211333D01*
X210000Y235336D01*
Y240667D01*
X211333Y242000D01*
X213999D01*
X215332Y240667D01*
X221996Y242000D02*
Y234003D01*
X217997Y238001D01*
X223329D01*
X225995Y235336D02*
X227328Y234003D01*
X229994D01*
X231327Y235336D01*
Y240667D01*
X229994Y242000D01*
X227328D01*
X225995Y240667D01*
Y235336D01*
X237991Y242000D02*
Y234003D01*
X233992Y238001D01*
X239324D01*
X394664Y161332D02*
X395997Y159999D01*
Y157333D01*
X394664Y156000D01*
X389333D01*
X388000Y157333D01*
Y159999D01*
X389333Y161332D01*
X388000Y167996D02*
X395997D01*
X391999Y163997D01*
Y169329D01*
X394664Y171995D02*
X395997Y173328D01*
Y175994D01*
X394664Y177326D01*
X389333D01*
X388000Y175994D01*
Y173328D01*
X389333Y171995D01*
X394664D01*
Y179992D02*
X395997Y181325D01*
Y183991D01*
X394664Y185324D01*
X393332D01*
X391999Y183991D01*
Y182658D01*
Y183991D01*
X390666Y185324D01*
X389333D01*
X388000Y183991D01*
Y181325D01*
X389333Y179992D01*
X376003Y142668D02*
Y148000D01*
X380001D01*
Y145334D01*
Y148000D01*
X384000D01*
Y136004D02*
X376003D01*
X380001Y140003D01*
Y134671D01*
X377336Y132005D02*
X376003Y130672D01*
Y128006D01*
X377336Y126674D01*
X382667D01*
X384000Y128006D01*
Y130672D01*
X382667Y132005D01*
X377336D01*
Y124008D02*
X376003Y122675D01*
Y120009D01*
X377336Y118676D01*
X382667D01*
X384000Y120009D01*
Y122675D01*
X382667Y124008D01*
X377336D01*
X265336Y78668D02*
X264003Y80001D01*
Y82667D01*
X265336Y84000D01*
X270667D01*
X272000Y82667D01*
Y80001D01*
X270667Y78668D01*
X272000Y72004D02*
X264003D01*
X268001Y76003D01*
Y70671D01*
X265336Y68005D02*
X264003Y66672D01*
Y64006D01*
X265336Y62674D01*
X270667D01*
X272000Y64006D01*
Y66672D01*
X270667Y68005D01*
X265336D01*
X272000Y54676D02*
Y60008D01*
X266668Y54676D01*
X265336D01*
X264003Y56009D01*
Y58675D01*
X265336Y60008D01*
D76*
X173450Y512650D02*
Y532970D01*
X173704Y503760D02*
Y542368D01*
X173958Y498426D02*
Y548972D01*
X174212Y493854D02*
Y554560D01*
X174466Y554052D02*
Y561418D01*
Y490298D02*
Y533224D01*
X174720Y558878D02*
Y566244D01*
Y486996D02*
Y526366D01*
X174974Y562942D02*
Y570308D01*
Y483948D02*
Y521286D01*
X175228Y567006D02*
Y572340D01*
Y481408D02*
Y517222D01*
X175482Y570562D02*
Y572340D01*
Y478868D02*
Y513666D01*
X175736Y476582D02*
Y510618D01*
X175990Y474296D02*
Y507824D01*
Y391238D02*
Y417146D01*
X176244Y472264D02*
Y505030D01*
Y382348D02*
Y424766D01*
X176498Y470232D02*
Y502744D01*
Y376252D02*
Y429846D01*
X176752Y468454D02*
Y500204D01*
Y371172D02*
Y432386D01*
X177006Y466676D02*
Y498172D01*
Y366854D02*
Y432132D01*
X177260Y464898D02*
Y496140D01*
Y362790D02*
Y430862D01*
X177514Y463120D02*
Y493854D01*
Y359488D02*
Y429846D01*
X177768Y461596D02*
Y492076D01*
Y356186D02*
Y428830D01*
X178022Y460072D02*
Y490298D01*
Y353392D02*
Y427560D01*
X178276Y458548D02*
Y488520D01*
Y350598D02*
Y426544D01*
X178530Y457024D02*
Y486488D01*
Y348058D02*
Y425274D01*
X178784Y455500D02*
Y484964D01*
Y345518D02*
Y424004D01*
X179038Y454230D02*
Y483186D01*
Y343232D02*
Y422988D01*
X179292Y452960D02*
Y481662D01*
Y341200D02*
Y421718D01*
X179546Y451690D02*
Y480138D01*
Y339168D02*
Y420448D01*
X179800Y531954D02*
Y536780D01*
Y450166D02*
Y478614D01*
Y337136D02*
Y419178D01*
X180054Y527890D02*
Y535002D01*
Y448896D02*
Y477090D01*
Y335358D02*
Y417908D01*
X180308Y524334D02*
Y532970D01*
Y447626D02*
Y475820D01*
Y333580D02*
Y416638D01*
X180562Y521286D02*
Y531192D01*
Y446356D02*
Y474296D01*
Y332056D02*
Y415368D01*
X180816Y518238D02*
Y529160D01*
Y445340D02*
Y473026D01*
Y330532D02*
Y414098D01*
X181070Y515698D02*
Y527636D01*
Y444070D02*
Y471502D01*
Y329008D02*
Y412828D01*
X181324Y513158D02*
Y525858D01*
Y443054D02*
Y470232D01*
Y327484D02*
Y411558D01*
X181578Y511380D02*
Y524588D01*
Y442038D02*
Y469216D01*
Y326468D02*
Y410542D01*
X181832Y509094D02*
Y523064D01*
Y440768D02*
Y467946D01*
Y325198D02*
Y409018D01*
X182086Y507062D02*
Y521286D01*
Y439752D02*
Y466676D01*
Y323928D02*
Y407748D01*
X182340Y505030D02*
Y519762D01*
Y438736D02*
Y465406D01*
Y322658D02*
Y406224D01*
X182594Y503252D02*
Y518238D01*
Y437466D02*
Y464136D01*
Y321642D02*
Y404700D01*
X182848Y501474D02*
Y516968D01*
Y436450D02*
Y463120D01*
Y320626D02*
Y403176D01*
X183102Y499696D02*
Y515444D01*
Y435434D02*
Y461850D01*
Y319610D02*
Y401652D01*
X183356Y497918D02*
Y514174D01*
Y434164D02*
Y460580D01*
Y318594D02*
Y400128D01*
X183610Y496394D02*
Y512904D01*
Y433148D02*
Y459564D01*
Y318340D02*
Y398604D01*
X183864Y494616D02*
Y511634D01*
Y432132D02*
Y458294D01*
Y319864D02*
Y396826D01*
X184118Y493092D02*
Y510110D01*
Y431116D02*
Y457278D01*
Y321388D02*
Y395048D01*
X184372Y491822D02*
Y509094D01*
Y430100D02*
Y456262D01*
Y323166D02*
Y393270D01*
X184626Y490298D02*
Y507824D01*
Y428830D02*
Y454992D01*
Y324944D02*
Y391492D01*
X184880Y488774D02*
Y506554D01*
Y427814D02*
Y453976D01*
Y326976D02*
Y389460D01*
X185134Y487504D02*
Y505538D01*
Y426798D02*
Y452960D01*
Y328754D02*
Y387428D01*
X185388Y486234D02*
Y504268D01*
Y425782D02*
Y451944D01*
Y331040D02*
Y385142D01*
X185642Y484964D02*
Y503252D01*
Y424766D02*
Y450928D01*
Y333072D02*
Y382856D01*
X185896Y483694D02*
Y501982D01*
Y423750D02*
Y449912D01*
Y335612D02*
Y380316D01*
X186150Y482424D02*
Y500966D01*
Y422734D02*
Y448896D01*
Y338406D02*
Y377522D01*
X186404Y481154D02*
Y499950D01*
Y421718D02*
Y447880D01*
Y341454D02*
Y374220D01*
X186658Y479884D02*
Y498934D01*
Y420702D02*
Y446864D01*
Y345518D02*
Y370156D01*
X186912Y478868D02*
Y497918D01*
Y419686D02*
Y445848D01*
Y351360D02*
Y364060D01*
X187166Y477598D02*
Y496902D01*
Y418416D02*
Y445086D01*
X187420Y476582D02*
Y495886D01*
Y417400D02*
Y444070D01*
X187674Y475566D02*
Y494870D01*
Y416384D02*
Y443054D01*
X187928Y474296D02*
Y493854D01*
Y415368D02*
Y442292D01*
X188182Y473280D02*
Y492838D01*
Y414098D02*
Y441276D01*
X188436Y472264D02*
Y492076D01*
Y413082D02*
Y440260D01*
X188690Y471248D02*
Y491060D01*
Y412066D02*
Y439498D01*
X188944Y470232D02*
Y490044D01*
Y410796D02*
Y438482D01*
X189198Y469216D02*
Y489282D01*
Y409526D02*
Y437720D01*
X189452Y468200D02*
Y488520D01*
Y408256D02*
Y436958D01*
Y325706D02*
Y325960D01*
X189706Y467438D02*
Y487504D01*
Y407240D02*
Y435942D01*
Y325706D02*
Y326722D01*
X189960Y466676D02*
Y486742D01*
Y406224D02*
Y435434D01*
Y326214D02*
Y327230D01*
X190214Y465660D02*
Y485980D01*
Y404700D02*
Y434418D01*
Y326468D02*
Y327992D01*
X190468Y464898D02*
Y485218D01*
Y403430D02*
Y433656D01*
Y326976D02*
Y329008D01*
X190722Y463882D02*
Y484456D01*
Y401906D02*
Y432894D01*
Y327230D02*
Y329770D01*
X190976Y462866D02*
Y483440D01*
Y400382D02*
Y431878D01*
Y327738D02*
Y330786D01*
X191230Y462104D02*
Y482678D01*
Y398604D02*
Y431116D01*
Y327992D02*
Y331802D01*
X191484Y461088D02*
Y481916D01*
Y397080D02*
Y430354D01*
Y328500D02*
Y333072D01*
X191738Y460326D02*
Y481154D01*
Y395048D02*
Y429592D01*
Y328754D02*
Y334342D01*
X191992Y459564D02*
Y480392D01*
Y393270D02*
Y428830D01*
Y329262D02*
Y335866D01*
X192246Y458802D02*
Y479630D01*
Y391238D02*
Y428068D01*
Y329516D02*
Y337390D01*
X192500Y457786D02*
Y478868D01*
Y388952D02*
Y427306D01*
Y330024D02*
Y339168D01*
X192754Y457024D02*
Y478106D01*
Y386412D02*
Y426544D01*
Y330278D02*
Y340946D01*
X193008Y456262D02*
Y477344D01*
Y383618D02*
Y425528D01*
Y330786D02*
Y343232D01*
X193262Y455500D02*
Y476582D01*
Y380570D02*
Y425020D01*
Y331040D02*
Y345772D01*
X193516Y454484D02*
Y475820D01*
Y376760D02*
Y424258D01*
Y331548D02*
Y349074D01*
X193770Y453722D02*
Y475312D01*
Y371172D02*
Y423496D01*
Y331802D02*
Y353900D01*
X194024Y452960D02*
Y474550D01*
Y332310D02*
Y422734D01*
X194278Y452198D02*
Y473788D01*
Y332564D02*
Y421972D01*
X194532Y451690D02*
Y473280D01*
Y333072D02*
Y421210D01*
X194786Y450928D02*
Y472518D01*
Y333326D02*
Y420448D01*
X195040Y450166D02*
Y471756D01*
Y333834D02*
Y419686D01*
X195294Y449404D02*
Y470994D01*
Y334088D02*
Y419178D01*
X195548Y448642D02*
Y470486D01*
Y334596D02*
Y418416D01*
X195802Y447880D02*
Y469724D01*
Y334850D02*
Y417654D01*
X196056Y447118D02*
Y469216D01*
Y335104D02*
Y416892D01*
X196310Y446356D02*
Y468454D01*
Y335612D02*
Y416130D01*
X196564Y445848D02*
Y467946D01*
Y335866D02*
Y415622D01*
X196818Y445086D02*
Y467184D01*
Y336374D02*
Y414860D01*
X197072Y444324D02*
Y466676D01*
Y336628D02*
Y414098D01*
X197326Y443816D02*
Y465914D01*
Y336882D02*
Y413590D01*
X197580Y443054D02*
Y465406D01*
Y337390D02*
Y412828D01*
X197834Y442546D02*
Y464898D01*
Y337644D02*
Y412320D01*
X198088Y442038D02*
Y464390D01*
Y337898D02*
Y411812D01*
X198342Y441276D02*
Y463628D01*
Y338406D02*
Y411050D01*
X198596Y440514D02*
Y463120D01*
Y338660D02*
Y410288D01*
X198850Y440006D02*
Y462612D01*
Y338914D02*
Y409780D01*
X199104Y439244D02*
Y462104D01*
Y339422D02*
Y409018D01*
X199358Y438736D02*
Y461342D01*
Y339676D02*
Y408510D01*
X199612Y437974D02*
Y460834D01*
Y339930D02*
Y408002D01*
X199866Y437466D02*
Y460326D01*
Y340438D02*
Y407240D01*
X200120Y436958D02*
Y459818D01*
Y340692D02*
Y406732D01*
X200374Y436196D02*
Y459310D01*
Y340946D02*
Y405970D01*
X200628Y435688D02*
Y458802D01*
Y341454D02*
Y405462D01*
X200882Y434926D02*
Y458040D01*
Y341708D02*
Y404954D01*
X201136Y434418D02*
Y457532D01*
Y342216D02*
Y404192D01*
X201390Y433910D02*
Y457024D01*
Y342470D02*
Y403684D01*
X201644Y433148D02*
Y456516D01*
Y342724D02*
Y402922D01*
X201898Y432640D02*
Y456008D01*
Y342978D02*
Y402414D01*
X202152Y432132D02*
Y455500D01*
Y343486D02*
Y401906D01*
X202406Y431624D02*
Y454992D01*
Y343740D02*
Y401144D01*
X202660Y513920D02*
Y514174D01*
Y430862D02*
Y454484D01*
Y343994D02*
Y400636D01*
X202914Y514174D02*
Y514428D01*
Y430354D02*
Y453976D01*
Y344248D02*
Y400128D01*
X203168Y514428D02*
Y514936D01*
Y429846D02*
Y453468D01*
Y344756D02*
Y399620D01*
X203422Y514682D02*
Y515698D01*
Y429338D02*
Y452960D01*
Y345010D02*
Y398858D01*
X203676Y514936D02*
Y516714D01*
Y428830D02*
Y452452D01*
Y345264D02*
Y398350D01*
X203930Y515444D02*
Y517476D01*
Y428068D02*
Y451944D01*
Y345772D02*
Y397842D01*
X204184Y515698D02*
Y517984D01*
Y427560D02*
Y451436D01*
Y346026D02*
Y397334D01*
X204438Y515952D02*
Y518238D01*
Y427052D02*
Y450928D01*
Y346280D02*
Y396826D01*
X204692Y516206D02*
Y518746D01*
Y426544D02*
Y450674D01*
Y346534D02*
Y396318D01*
X204946Y517476D02*
Y519000D01*
Y516206D02*
Y517222D01*
Y426036D02*
Y450166D01*
Y346788D02*
Y395556D01*
X205200Y517730D02*
Y519254D01*
Y516206D02*
Y517476D01*
Y514682D02*
Y514936D01*
Y425528D02*
Y449658D01*
Y347296D02*
Y395048D01*
X205454Y517984D02*
Y519254D01*
Y515952D02*
Y517476D01*
Y514682D02*
Y515444D01*
Y425020D02*
Y449150D01*
Y347550D02*
Y394540D01*
X205708Y518238D02*
Y519508D01*
Y514936D02*
Y517730D01*
Y424512D02*
Y448642D01*
Y347804D02*
Y394032D01*
X205962Y518746D02*
Y519508D01*
Y514936D02*
Y517984D01*
Y424004D02*
Y448134D01*
Y348058D02*
Y393524D01*
X206216Y519000D02*
Y519508D01*
Y516714D02*
Y517984D01*
Y515190D02*
Y516460D01*
Y423496D02*
Y447880D01*
Y348312D02*
Y393016D01*
X206470Y519254D02*
Y519762D01*
Y516968D02*
Y517984D01*
Y515190D02*
Y516460D01*
Y422988D02*
Y447372D01*
Y348566D02*
Y392508D01*
X206724Y519254D02*
Y519762D01*
Y515444D02*
Y516714D01*
Y422480D02*
Y446864D01*
Y349074D02*
Y392000D01*
X206978Y519254D02*
Y519508D01*
Y515698D02*
Y516714D01*
Y421972D02*
Y446356D01*
Y349328D02*
Y391492D01*
X207232Y519254D02*
Y519508D01*
Y515952D02*
Y516714D01*
Y421464D02*
Y446102D01*
Y349582D02*
Y390984D01*
X207486Y519254D02*
Y519508D01*
Y516206D02*
Y516968D01*
Y420956D02*
Y445594D01*
Y349836D02*
Y390476D01*
X207740Y516460D02*
Y517222D01*
Y420448D02*
Y445086D01*
Y350344D02*
Y389968D01*
X207994Y517222D02*
Y517730D01*
Y419940D02*
Y444832D01*
Y350598D02*
Y389460D01*
X208248Y419686D02*
Y444324D01*
Y350852D02*
Y388952D01*
X208502Y515952D02*
Y521286D01*
Y513412D02*
Y515190D01*
Y509348D02*
Y511126D01*
Y505030D02*
Y507824D01*
Y496648D02*
Y497410D01*
Y493092D02*
Y494616D01*
Y419178D02*
Y443816D01*
Y351106D02*
Y388444D01*
X208756Y515952D02*
Y521286D01*
Y513412D02*
Y515190D01*
Y509348D02*
Y511126D01*
Y504268D02*
Y507824D01*
Y496648D02*
Y497410D01*
Y493092D02*
Y494870D01*
Y418670D02*
Y443562D01*
Y351360D02*
Y387936D01*
X209010Y515952D02*
Y521286D01*
Y513412D02*
Y515190D01*
Y509348D02*
Y511126D01*
Y503760D02*
Y507824D01*
Y496648D02*
Y497410D01*
Y493092D02*
Y494870D01*
Y418162D02*
Y443054D01*
Y351614D02*
Y387428D01*
X209264Y515952D02*
Y521286D01*
Y513412D02*
Y515190D01*
Y509348D02*
Y511126D01*
Y507062D02*
Y507824D01*
Y503506D02*
Y505030D01*
Y496648D02*
Y497410D01*
Y494108D02*
Y494870D01*
Y491314D02*
Y491822D01*
Y417654D02*
Y442546D01*
Y352122D02*
Y386920D01*
X209518Y515952D02*
Y521286D01*
Y513412D02*
Y515190D01*
Y509348D02*
Y511126D01*
Y507062D02*
Y507824D01*
Y503506D02*
Y504522D01*
Y496648D02*
Y497410D01*
Y494108D02*
Y494870D01*
Y491314D02*
Y492076D01*
Y417146D02*
Y442292D01*
Y352376D02*
Y386412D01*
X209772Y517730D02*
Y519508D01*
Y513412D02*
Y515190D01*
Y509348D02*
Y511126D01*
Y507062D02*
Y507824D01*
Y503252D02*
Y504268D01*
Y496648D02*
Y497410D01*
Y494108D02*
Y494870D01*
Y491314D02*
Y492076D01*
Y416638D02*
Y441784D01*
Y352630D02*
Y385904D01*
X210026Y517730D02*
Y519508D01*
Y513412D02*
Y515190D01*
Y509348D02*
Y511126D01*
Y507062D02*
Y507824D01*
Y503252D02*
Y504014D01*
Y496648D02*
Y497410D01*
Y494108D02*
Y494870D01*
Y491314D02*
Y492076D01*
Y416130D02*
Y441276D01*
Y352884D02*
Y385650D01*
X210280Y517730D02*
Y519508D01*
Y513412D02*
Y515190D01*
Y509348D02*
Y511126D01*
Y507062D02*
Y507824D01*
Y502998D02*
Y504014D01*
Y499442D02*
Y501220D01*
Y496648D02*
Y497410D01*
Y493346D02*
Y495886D01*
Y490298D02*
Y492838D01*
Y415622D02*
Y440768D01*
Y353138D02*
Y385142D01*
X210534Y517730D02*
Y519508D01*
Y513412D02*
Y515190D01*
Y509348D02*
Y511126D01*
Y507062D02*
Y507824D01*
Y502998D02*
Y504014D01*
Y498934D02*
Y501474D01*
Y496648D02*
Y497410D01*
Y493346D02*
Y495886D01*
Y490298D02*
Y492838D01*
Y415368D02*
Y440514D01*
Y353392D02*
Y384634D01*
X210788Y517730D02*
Y519508D01*
Y513412D02*
Y515190D01*
Y509348D02*
Y511126D01*
Y507062D02*
Y507824D01*
Y502998D02*
Y503760D01*
Y500712D02*
Y501728D01*
Y498680D02*
Y499696D01*
Y496648D02*
Y497410D01*
Y494108D02*
Y495124D01*
Y493346D02*
Y493600D01*
Y491314D02*
Y492076D01*
Y414860D02*
Y440006D01*
Y353646D02*
Y384126D01*
X211042Y517730D02*
Y519508D01*
Y513412D02*
Y515190D01*
Y509348D02*
Y511126D01*
Y507062D02*
Y507824D01*
Y502998D02*
Y503760D01*
Y500966D02*
Y501728D01*
Y498680D02*
Y499442D01*
Y496648D02*
Y497410D01*
Y494108D02*
Y495124D01*
Y491314D02*
Y492076D01*
Y414352D02*
Y439752D01*
Y353900D02*
Y383618D01*
X211296Y517730D02*
Y519508D01*
Y513412D02*
Y515190D01*
Y509348D02*
Y511126D01*
Y507062D02*
Y507824D01*
Y502744D02*
Y503760D01*
Y501220D02*
Y501982D01*
Y498426D02*
Y499442D01*
Y496648D02*
Y497410D01*
Y494108D02*
Y495124D01*
Y491314D02*
Y492076D01*
Y413844D02*
Y439244D01*
Y354408D02*
Y383110D01*
X211550Y517730D02*
Y519508D01*
Y513412D02*
Y515190D01*
Y509348D02*
Y511126D01*
Y507062D02*
Y507824D01*
Y502998D02*
Y503760D01*
Y501220D02*
Y501982D01*
Y498426D02*
Y499188D01*
Y496648D02*
Y497410D01*
Y494108D02*
Y494870D01*
Y491314D02*
Y492076D01*
Y413590D02*
Y438990D01*
Y354662D02*
Y382856D01*
X211804Y517730D02*
Y519508D01*
Y513412D02*
Y515190D01*
Y509348D02*
Y511126D01*
Y507062D02*
Y507824D01*
Y502998D02*
Y503760D01*
Y501220D02*
Y501982D01*
Y498426D02*
Y499188D01*
Y496648D02*
Y497410D01*
Y494108D02*
Y494870D01*
Y491314D02*
Y492076D01*
Y413082D02*
Y438482D01*
Y354916D02*
Y382348D01*
X212058Y517730D02*
Y519508D01*
Y513412D02*
Y515190D01*
Y509348D02*
Y511126D01*
Y507062D02*
Y507824D01*
Y502998D02*
Y503760D01*
Y498426D02*
Y502236D01*
Y496648D02*
Y497410D01*
Y494108D02*
Y495124D01*
Y491314D02*
Y492076D01*
Y412574D02*
Y438228D01*
Y355170D02*
Y381840D01*
X212312Y517730D02*
Y519508D01*
Y513412D02*
Y515190D01*
Y509348D02*
Y511126D01*
Y507062D02*
Y507824D01*
Y502998D02*
Y504014D01*
Y498426D02*
Y502236D01*
Y496648D02*
Y497410D01*
Y494108D02*
Y495124D01*
Y491314D02*
Y492076D01*
Y412066D02*
Y437720D01*
Y355424D02*
Y381332D01*
X212566Y517730D02*
Y519508D01*
Y513412D02*
Y515190D01*
Y509348D02*
Y511126D01*
Y507062D02*
Y507824D01*
Y503252D02*
Y504014D01*
Y501220D02*
Y502236D01*
Y496648D02*
Y497410D01*
Y494108D02*
Y495124D01*
Y491314D02*
Y492076D01*
Y411812D02*
Y437466D01*
Y355678D02*
Y381078D01*
X212820Y517730D02*
Y519508D01*
Y513158D02*
Y514936D01*
Y509348D02*
Y511380D01*
Y507062D02*
Y507824D01*
Y503252D02*
Y504268D01*
Y501220D02*
Y501982D01*
Y496648D02*
Y497410D01*
Y494108D02*
Y495124D01*
Y491314D02*
Y492076D01*
Y411304D02*
Y436958D01*
Y355932D02*
Y380570D01*
X213074Y517730D02*
Y519508D01*
Y513158D02*
Y514936D01*
Y509602D02*
Y511634D01*
Y507062D02*
Y507824D01*
Y503252D02*
Y504268D01*
Y501220D02*
Y501982D01*
Y498426D02*
Y499188D01*
Y496648D02*
Y497410D01*
Y494108D02*
Y495124D01*
Y491314D02*
Y492076D01*
Y410796D02*
Y436704D01*
Y356186D02*
Y380062D01*
X213328Y517730D02*
Y519508D01*
Y509602D02*
Y514936D01*
Y507062D02*
Y507824D01*
Y503506D02*
Y504776D01*
Y501220D02*
Y501982D01*
Y498426D02*
Y499442D01*
Y496648D02*
Y497410D01*
Y494108D02*
Y495124D01*
Y491314D02*
Y492076D01*
Y410288D02*
Y436196D01*
Y356440D02*
Y379554D01*
X213582Y517730D02*
Y519508D01*
Y509856D02*
Y514682D01*
Y507062D02*
Y507824D01*
Y503760D02*
Y505284D01*
Y500966D02*
Y501728D01*
Y498680D02*
Y499442D01*
Y496648D02*
Y497410D01*
Y494108D02*
Y494870D01*
Y491314D02*
Y492076D01*
Y410034D02*
Y435942D01*
Y356694D02*
Y379046D01*
X213836Y517730D02*
Y519508D01*
Y510110D02*
Y514428D01*
Y504014D02*
Y507824D01*
Y500712D02*
Y501728D01*
Y498680D02*
Y499950D01*
Y496648D02*
Y497410D01*
Y494108D02*
Y494870D01*
Y491060D02*
Y492076D01*
Y490298D02*
Y490552D01*
Y409526D02*
Y435434D01*
Y357202D02*
Y378792D01*
X214090Y517730D02*
Y519508D01*
Y510618D02*
Y513920D01*
Y504522D02*
Y507824D01*
Y498934D02*
Y501474D01*
Y496648D02*
Y497410D01*
Y494108D02*
Y494870D01*
Y490298D02*
Y492076D01*
Y409018D02*
Y435180D01*
Y357456D02*
Y378284D01*
X214344Y511380D02*
Y513158D01*
Y506554D02*
Y506808D01*
Y499696D02*
Y500966D01*
Y494362D02*
Y494616D01*
Y490298D02*
Y491568D01*
Y408764D02*
Y434672D01*
Y357710D02*
Y377776D01*
X214598Y408256D02*
Y434418D01*
Y357964D02*
Y377522D01*
X214852Y408002D02*
Y434164D01*
Y358218D02*
Y377014D01*
X215106Y407494D02*
Y433656D01*
Y358472D02*
Y376760D01*
X215360Y406986D02*
Y433402D01*
Y358726D02*
Y376252D01*
X215614Y406732D02*
Y432894D01*
Y358980D02*
Y375998D01*
X215868Y406224D02*
Y432640D01*
Y359234D02*
Y375490D01*
X216122Y405970D02*
Y432132D01*
Y359488D02*
Y374982D01*
X216376Y405462D02*
Y431878D01*
Y359742D02*
Y374728D01*
X216630Y404954D02*
Y431624D01*
Y359996D02*
Y374220D01*
X216884Y404700D02*
Y431116D01*
Y360250D02*
Y373966D01*
X217138Y404192D02*
Y430862D01*
Y360504D02*
Y373458D01*
X217392Y403938D02*
Y430354D01*
Y360758D02*
Y373204D01*
X217646Y513920D02*
Y517984D01*
Y501728D02*
Y505538D01*
Y492076D02*
Y495886D01*
Y478106D02*
Y481916D01*
Y465660D02*
Y472518D01*
Y403430D02*
Y430100D01*
Y361012D02*
Y372696D01*
X217900Y513158D02*
Y519000D01*
Y500966D02*
Y506300D01*
Y492076D02*
Y495886D01*
Y477852D02*
Y482170D01*
Y464136D02*
Y472518D01*
Y403176D02*
Y429846D01*
Y361266D02*
Y372188D01*
X218154Y512650D02*
Y519254D01*
Y500204D02*
Y506808D01*
Y492076D02*
Y495886D01*
Y477852D02*
Y482170D01*
Y463628D02*
Y472518D01*
Y402668D02*
Y429338D01*
Y361520D02*
Y371934D01*
X218408Y512396D02*
Y519762D01*
Y499950D02*
Y507316D01*
Y492076D02*
Y495886D01*
Y477852D02*
Y482170D01*
Y463120D02*
Y472518D01*
Y402160D02*
Y429084D01*
Y361774D02*
Y371426D01*
X218662Y512142D02*
Y520016D01*
Y499442D02*
Y507570D01*
Y492076D02*
Y495886D01*
Y477598D02*
Y482424D01*
Y462866D02*
Y472518D01*
Y401906D02*
Y428830D01*
Y362028D02*
Y371172D01*
X218916Y511888D02*
Y520270D01*
Y499188D02*
Y507824D01*
Y492076D02*
Y495886D01*
Y477598D02*
Y482424D01*
Y462866D02*
Y472518D01*
Y401398D02*
Y428322D01*
Y362282D02*
Y370664D01*
X219170Y511888D02*
Y520270D01*
Y498934D02*
Y508078D01*
Y492076D02*
Y495886D01*
Y477598D02*
Y482678D01*
Y462612D02*
Y472518D01*
Y401144D02*
Y428068D01*
Y362536D02*
Y370410D01*
X219424Y511634D02*
Y520524D01*
Y498934D02*
Y508332D01*
Y492076D02*
Y495886D01*
Y477344D02*
Y482678D01*
Y462358D02*
Y472518D01*
Y400636D02*
Y427814D01*
Y362790D02*
Y369902D01*
X219678Y516968D02*
Y520524D01*
Y511634D02*
Y515444D01*
Y498680D02*
Y508586D01*
Y492076D02*
Y495886D01*
Y477344D02*
Y482678D01*
Y462358D02*
Y472518D01*
Y400382D02*
Y427560D01*
Y362790D02*
Y369648D01*
X219932Y517476D02*
Y520778D01*
Y511380D02*
Y515190D01*
Y498426D02*
Y508840D01*
Y492076D02*
Y495886D01*
Y477090D02*
Y482932D01*
Y468962D02*
Y472518D01*
Y462358D02*
Y466930D01*
Y399874D02*
Y427052D01*
Y363044D02*
Y369140D01*
X220186Y517476D02*
Y520778D01*
Y511380D02*
Y514936D01*
Y504522D02*
Y508840D01*
Y498426D02*
Y502744D01*
Y492076D02*
Y495886D01*
Y477090D02*
Y482932D01*
Y468962D02*
Y472518D01*
Y462358D02*
Y466168D01*
Y399620D02*
Y426798D01*
Y363298D02*
Y368886D01*
X220440Y517476D02*
Y520778D01*
Y511380D02*
Y514682D01*
Y505030D02*
Y509094D01*
Y498172D02*
Y502236D01*
Y492076D02*
Y495886D01*
Y477090D02*
Y482932D01*
Y468962D02*
Y472518D01*
Y462358D02*
Y465914D01*
Y399112D02*
Y426544D01*
Y363552D02*
Y368632D01*
X220694Y517476D02*
Y520778D01*
Y511380D02*
Y514682D01*
Y505284D02*
Y509094D01*
Y498172D02*
Y501982D01*
Y492076D02*
Y495886D01*
Y476836D02*
Y483186D01*
Y468962D02*
Y472518D01*
Y462104D02*
Y465914D01*
Y398858D02*
Y426036D01*
Y363806D02*
Y368124D01*
X220948Y517222D02*
Y520778D01*
Y513666D02*
Y514682D01*
Y505538D02*
Y509094D01*
Y497918D02*
Y501728D01*
Y492076D02*
Y495886D01*
Y480138D02*
Y483186D01*
Y476836D02*
Y479884D01*
Y468962D02*
Y472518D01*
Y462104D02*
Y465914D01*
Y398350D02*
Y425782D01*
Y364060D02*
Y367870D01*
X221202Y516714D02*
Y520778D01*
Y505538D02*
Y509348D01*
Y497918D02*
Y501728D01*
Y492076D02*
Y495886D01*
Y480392D02*
Y483440D01*
Y476836D02*
Y479884D01*
Y468962D02*
Y472518D01*
Y462358D02*
Y465914D01*
Y398096D02*
Y425528D01*
Y364314D02*
Y367362D01*
X221456Y515444D02*
Y520778D01*
Y505792D02*
Y509348D01*
Y497918D02*
Y501474D01*
Y492076D02*
Y495886D01*
Y480392D02*
Y483440D01*
Y476582D02*
Y479884D01*
Y468962D02*
Y472518D01*
Y462358D02*
Y465914D01*
Y397842D02*
Y425020D01*
Y364568D02*
Y367108D01*
X221710Y514682D02*
Y520778D01*
Y505792D02*
Y509348D01*
Y497918D02*
Y501474D01*
Y492076D02*
Y495886D01*
Y480392D02*
Y483440D01*
Y476582D02*
Y479630D01*
Y468962D02*
Y472518D01*
Y462358D02*
Y466168D01*
Y397334D02*
Y424766D01*
Y364822D02*
Y366854D01*
X221964Y513666D02*
Y520524D01*
Y505792D02*
Y509348D01*
Y497918D02*
Y501220D01*
Y492076D02*
Y495886D01*
Y480646D02*
Y483694D01*
Y476328D02*
Y479630D01*
Y468962D02*
Y472518D01*
Y462358D02*
Y466422D01*
Y397080D02*
Y424512D01*
Y365076D02*
Y366346D01*
X222218Y513158D02*
Y520524D01*
Y506046D02*
Y509602D01*
Y497664D02*
Y501220D01*
Y492076D02*
Y495886D01*
Y480646D02*
Y483694D01*
Y476328D02*
Y479630D01*
Y462612D02*
Y472518D01*
Y396572D02*
Y424258D01*
Y365330D02*
Y366092D01*
X222472Y512650D02*
Y520270D01*
Y506046D02*
Y509602D01*
Y497664D02*
Y501220D01*
Y492076D02*
Y495886D01*
Y480646D02*
Y483694D01*
Y476328D02*
Y479376D01*
Y462612D02*
Y472518D01*
Y396318D02*
Y423750D01*
X222726Y512142D02*
Y520270D01*
Y506046D02*
Y509602D01*
Y497664D02*
Y501220D01*
Y492076D02*
Y495886D01*
Y480646D02*
Y483948D01*
Y476074D02*
Y479376D01*
Y462866D02*
Y472518D01*
Y396064D02*
Y423750D01*
X222980Y511888D02*
Y520016D01*
Y506046D02*
Y509602D01*
Y497664D02*
Y501220D01*
Y492076D02*
Y495886D01*
Y480900D02*
Y483948D01*
Y476074D02*
Y479376D01*
Y463120D02*
Y472518D01*
Y395556D02*
Y423242D01*
X223234Y511634D02*
Y519508D01*
Y506046D02*
Y509602D01*
Y497664D02*
Y501220D01*
Y492076D02*
Y495886D01*
Y480900D02*
Y483948D01*
Y476074D02*
Y479122D01*
Y463374D02*
Y472518D01*
Y395302D02*
Y422988D01*
X223488Y511380D02*
Y519254D01*
Y506046D02*
Y509602D01*
Y497664D02*
Y501220D01*
Y492076D02*
Y495886D01*
Y480900D02*
Y484202D01*
Y475820D02*
Y479122D01*
Y463628D02*
Y472518D01*
Y394794D02*
Y422734D01*
X223742Y511380D02*
Y518746D01*
Y506046D02*
Y509602D01*
Y497664D02*
Y501220D01*
Y492076D02*
Y495886D01*
Y481154D02*
Y484202D01*
Y475820D02*
Y479122D01*
Y464136D02*
Y472518D01*
Y394540D02*
Y422480D01*
X223996Y511126D02*
Y517984D01*
Y506046D02*
Y509602D01*
Y497664D02*
Y501220D01*
Y492076D02*
Y495886D01*
Y481154D02*
Y484456D01*
Y475820D02*
Y479122D01*
Y464898D02*
Y472518D01*
Y394286D02*
Y422226D01*
X224250Y511126D02*
Y516968D01*
Y506046D02*
Y509602D01*
Y497664D02*
Y501220D01*
Y492076D02*
Y495886D01*
Y481154D02*
Y484456D01*
Y475566D02*
Y478868D01*
Y464390D02*
Y472518D01*
Y393778D02*
Y421718D01*
X224504Y511126D02*
Y515952D01*
Y506046D02*
Y509602D01*
Y497664D02*
Y501220D01*
Y492076D02*
Y495886D01*
Y481408D02*
Y484456D01*
Y475566D02*
Y478868D01*
Y468962D02*
Y472518D01*
Y463882D02*
Y468200D01*
Y393524D02*
Y421464D01*
X224758Y510872D02*
Y515190D01*
Y505792D02*
Y509348D01*
Y497918D02*
Y501474D01*
Y492076D02*
Y495886D01*
Y475312D02*
Y484710D01*
Y468962D02*
Y472518D01*
Y463628D02*
Y467692D01*
Y393270D02*
Y421210D01*
X225012Y510872D02*
Y514682D01*
Y505792D02*
Y509348D01*
Y497918D02*
Y501474D01*
Y492076D02*
Y495886D01*
Y475312D02*
Y484710D01*
Y468962D02*
Y472518D01*
Y463628D02*
Y467438D01*
Y392762D02*
Y420956D01*
X225266Y517730D02*
Y521032D01*
Y510872D02*
Y514428D01*
Y505792D02*
Y509348D01*
Y497918D02*
Y501474D01*
Y492076D02*
Y495886D01*
Y475312D02*
Y484710D01*
Y468962D02*
Y472518D01*
Y463374D02*
Y467438D01*
Y392508D02*
Y420702D01*
X225520Y517730D02*
Y521286D01*
Y510872D02*
Y514428D01*
Y505538D02*
Y509348D01*
Y497918D02*
Y501728D01*
Y492076D02*
Y495886D01*
Y475058D02*
Y484964D01*
Y468962D02*
Y472518D01*
Y463120D02*
Y467184D01*
Y392000D02*
Y420194D01*
X225774Y517730D02*
Y521286D01*
Y510872D02*
Y514428D01*
Y505538D02*
Y509094D01*
Y498172D02*
Y501728D01*
Y492076D02*
Y495886D01*
Y475058D02*
Y484964D01*
Y468962D02*
Y472518D01*
Y462866D02*
Y467184D01*
Y391746D02*
Y419940D01*
X226028Y517476D02*
Y521286D01*
Y510872D02*
Y514428D01*
Y505284D02*
Y509094D01*
Y498172D02*
Y501982D01*
Y492076D02*
Y495886D01*
Y475058D02*
Y485218D01*
Y468962D02*
Y472518D01*
Y462866D02*
Y466930D01*
Y391492D02*
Y419686D01*
X226282Y517476D02*
Y521032D01*
Y511126D02*
Y514428D01*
Y504776D02*
Y509094D01*
Y498172D02*
Y502236D01*
Y486742D02*
Y495886D01*
Y474804D02*
Y485218D01*
Y468962D02*
Y472518D01*
Y462612D02*
Y466930D01*
Y390984D02*
Y419432D01*
X226536Y517222D02*
Y521032D01*
Y511126D02*
Y514682D01*
Y504268D02*
Y508840D01*
Y498426D02*
Y502998D01*
Y486742D02*
Y495886D01*
Y474804D02*
Y485218D01*
Y468962D02*
Y472518D01*
Y462612D02*
Y466676D01*
Y390730D02*
Y419178D01*
X226790Y516968D02*
Y521032D01*
Y511126D02*
Y514936D01*
Y498426D02*
Y508586D01*
Y486742D02*
Y495886D01*
Y474550D02*
Y485472D01*
Y468962D02*
Y472518D01*
Y462358D02*
Y466676D01*
Y390476D02*
Y418924D01*
X227044Y511380D02*
Y520778D01*
Y498680D02*
Y508586D01*
Y486742D02*
Y495886D01*
Y474550D02*
Y485472D01*
Y468962D02*
Y472518D01*
Y462358D02*
Y466422D01*
Y389968D02*
Y418670D01*
X227298Y511380D02*
Y520778D01*
Y498934D02*
Y508332D01*
Y486742D02*
Y495886D01*
Y482170D02*
Y485472D01*
Y474550D02*
Y478106D01*
Y468962D02*
Y472518D01*
Y462104D02*
Y466168D01*
Y389714D02*
Y418162D01*
X227552Y511634D02*
Y520524D01*
Y499188D02*
Y508078D01*
Y486742D02*
Y495886D01*
Y482170D02*
Y485726D01*
Y474296D02*
Y477852D01*
Y468962D02*
Y472518D01*
Y462104D02*
Y466168D01*
Y389460D02*
Y417908D01*
X227806Y511888D02*
Y520270D01*
Y499442D02*
Y507824D01*
Y486742D02*
Y495886D01*
Y482170D02*
Y485726D01*
Y474296D02*
Y477852D01*
Y468962D02*
Y472518D01*
Y461850D02*
Y465914D01*
Y389206D02*
Y417654D01*
X228060Y512142D02*
Y520016D01*
Y499696D02*
Y507570D01*
Y486742D02*
Y495886D01*
Y482424D02*
Y485980D01*
Y474296D02*
Y477852D01*
Y468962D02*
Y472518D01*
Y461850D02*
Y465914D01*
Y388698D02*
Y417400D01*
X228314Y512396D02*
Y519762D01*
Y499950D02*
Y507316D01*
Y486742D02*
Y495886D01*
Y482424D02*
Y485980D01*
Y474042D02*
Y477598D01*
Y468962D02*
Y472518D01*
Y461596D02*
Y465660D01*
Y388444D02*
Y417146D01*
X228568Y512904D02*
Y519508D01*
Y500458D02*
Y506808D01*
Y486742D02*
Y495886D01*
Y482424D02*
Y485980D01*
Y474042D02*
Y477598D01*
Y468962D02*
Y472518D01*
Y461596D02*
Y465660D01*
Y388190D02*
Y416892D01*
X228822Y513412D02*
Y519000D01*
Y500966D02*
Y506300D01*
Y486742D02*
Y495886D01*
Y482678D02*
Y486234D01*
Y473788D02*
Y477598D01*
Y468962D02*
Y472518D01*
Y461342D02*
Y465406D01*
Y387682D02*
Y416638D01*
X229076Y514174D02*
Y517984D01*
Y501728D02*
Y505284D01*
Y387428D02*
Y416130D01*
X229330Y387174D02*
Y415876D01*
X229584Y386666D02*
Y415622D01*
X229838Y386412D02*
Y415368D01*
X230092Y386158D02*
Y415114D01*
X230346Y385904D02*
Y414860D01*
X230600Y476328D02*
Y479122D01*
Y385396D02*
Y414606D01*
X230854Y487758D02*
Y495632D01*
Y475312D02*
Y480138D01*
Y463374D02*
Y467184D01*
Y449150D02*
Y459818D01*
Y385142D02*
Y414352D01*
X231108Y487250D02*
Y495632D01*
Y474804D02*
Y480646D01*
Y463120D02*
Y467438D01*
Y449150D02*
Y459818D01*
Y384888D02*
Y414098D01*
X231362Y486742D02*
Y495632D01*
Y474296D02*
Y481154D01*
Y463120D02*
Y467438D01*
Y449150D02*
Y459818D01*
Y384634D02*
Y413844D01*
X231616Y486488D02*
Y495632D01*
Y473788D02*
Y481408D01*
Y463120D02*
Y467692D01*
Y449150D02*
Y459818D01*
Y384380D02*
Y413590D01*
X231870Y486234D02*
Y495632D01*
Y473534D02*
Y481916D01*
Y462866D02*
Y467692D01*
Y449150D02*
Y459818D01*
Y384126D02*
Y413336D01*
X232124Y485980D02*
Y495632D01*
Y473280D02*
Y482170D01*
Y462866D02*
Y467692D01*
Y449150D02*
Y459818D01*
Y383618D02*
Y413082D01*
X232378Y485980D02*
Y495632D01*
Y473026D02*
Y482424D01*
Y462866D02*
Y467946D01*
Y449150D02*
Y459818D01*
Y383364D02*
Y412828D01*
X232632Y485726D02*
Y495632D01*
Y472772D02*
Y482424D01*
Y462612D02*
Y467946D01*
Y449150D02*
Y459818D01*
Y383110D02*
Y412574D01*
X232886Y485726D02*
Y495632D01*
Y472772D02*
Y482678D01*
Y462612D02*
Y467946D01*
Y449150D02*
Y459818D01*
Y382856D02*
Y412320D01*
X233140Y492076D02*
Y495632D01*
Y485726D02*
Y489790D01*
Y472518D02*
Y482932D01*
Y462358D02*
Y468200D01*
Y449150D02*
Y459818D01*
Y382602D02*
Y412066D01*
X233394Y492076D02*
Y495632D01*
Y485726D02*
Y489282D01*
Y478614D02*
Y482932D01*
Y472518D02*
Y476836D01*
Y462358D02*
Y468200D01*
Y449150D02*
Y459818D01*
Y382094D02*
Y411812D01*
X233648Y492076D02*
Y495632D01*
Y485472D02*
Y489282D01*
Y479122D02*
Y483186D01*
Y472264D02*
Y476328D01*
Y462358D02*
Y468454D01*
Y452706D02*
Y456262D01*
Y381840D02*
Y411558D01*
X233902Y492076D02*
Y495632D01*
Y485726D02*
Y489028D01*
Y479376D02*
Y483186D01*
Y472010D02*
Y476074D01*
Y462104D02*
Y468454D01*
Y452706D02*
Y456262D01*
Y381586D02*
Y411304D01*
X234156Y492076D02*
Y495632D01*
Y485726D02*
Y489028D01*
Y479630D02*
Y483440D01*
Y472010D02*
Y475820D01*
Y465406D02*
Y468454D01*
Y462104D02*
Y465152D01*
Y452706D02*
Y456262D01*
Y381332D02*
Y411050D01*
X234410Y492076D02*
Y495632D01*
Y485726D02*
Y489028D01*
Y479630D02*
Y483440D01*
Y472010D02*
Y475566D01*
Y465660D02*
Y468708D01*
Y462104D02*
Y465152D01*
Y452706D02*
Y456262D01*
Y381078D02*
Y410542D01*
X234664Y492076D02*
Y495632D01*
Y485726D02*
Y489282D01*
Y479884D02*
Y483440D01*
Y472010D02*
Y475566D01*
Y465660D02*
Y468708D01*
Y461850D02*
Y465152D01*
Y452706D02*
Y456262D01*
Y380570D02*
Y410288D01*
X234918Y492076D02*
Y495632D01*
Y485980D02*
Y489536D01*
Y479884D02*
Y483440D01*
Y471756D02*
Y475566D01*
Y465660D02*
Y468708D01*
Y461850D02*
Y464898D01*
Y452706D02*
Y456262D01*
Y380316D02*
Y410034D01*
X235172Y492076D02*
Y495632D01*
Y485980D02*
Y490044D01*
Y479884D02*
Y483440D01*
Y471756D02*
Y475312D01*
Y465914D02*
Y468962D01*
Y461596D02*
Y464898D01*
Y452706D02*
Y456262D01*
Y380062D02*
Y409780D01*
X235426Y486234D02*
Y495632D01*
Y480138D02*
Y483694D01*
Y471756D02*
Y475312D01*
Y465914D02*
Y468962D01*
Y461596D02*
Y464898D01*
Y452706D02*
Y456262D01*
Y379808D02*
Y409526D01*
X235680Y486742D02*
Y495632D01*
Y480138D02*
Y483694D01*
Y471756D02*
Y475312D01*
Y465914D02*
Y469216D01*
Y461596D02*
Y464644D01*
Y452706D02*
Y456262D01*
Y379554D02*
Y409272D01*
X235934Y486996D02*
Y495632D01*
Y480138D02*
Y483694D01*
Y471756D02*
Y475312D01*
Y466168D02*
Y469216D01*
Y461342D02*
Y464644D01*
Y452706D02*
Y456262D01*
Y379046D02*
Y409018D01*
X236188Y486996D02*
Y495632D01*
Y480138D02*
Y483694D01*
Y471756D02*
Y475312D01*
Y466168D02*
Y469216D01*
Y461342D02*
Y464644D01*
Y452706D02*
Y456262D01*
Y378792D02*
Y408764D01*
X236442Y486488D02*
Y495632D01*
Y480138D02*
Y483694D01*
Y471756D02*
Y475312D01*
Y466168D02*
Y469470D01*
Y461342D02*
Y464390D01*
Y452706D02*
Y456262D01*
Y378538D02*
Y408510D01*
X236696Y485980D02*
Y495632D01*
Y480138D02*
Y483694D01*
Y471756D02*
Y475312D01*
Y466168D02*
Y469470D01*
Y461088D02*
Y464390D01*
Y452706D02*
Y456262D01*
Y378284D02*
Y408256D01*
X236950Y485726D02*
Y495632D01*
Y480138D02*
Y483694D01*
Y471756D02*
Y475312D01*
Y466422D02*
Y469470D01*
Y461088D02*
Y464390D01*
Y452706D02*
Y456262D01*
Y378284D02*
Y408002D01*
X237204Y485472D02*
Y495632D01*
Y480138D02*
Y483694D01*
Y471756D02*
Y475312D01*
Y466422D02*
Y469724D01*
Y460834D02*
Y464136D01*
Y452706D02*
Y456262D01*
Y378284D02*
Y407748D01*
X237458Y492076D02*
Y495632D01*
Y485472D02*
Y489536D01*
Y480138D02*
Y483694D01*
Y471756D02*
Y475312D01*
Y466422D02*
Y469724D01*
Y460834D02*
Y464136D01*
Y452706D02*
Y456262D01*
Y378538D02*
Y407748D01*
X237712Y492076D02*
Y495632D01*
Y485218D02*
Y489028D01*
Y480138D02*
Y483440D01*
Y471756D02*
Y475312D01*
Y466676D02*
Y469978D01*
Y460834D02*
Y464136D01*
Y452706D02*
Y456262D01*
Y378538D02*
Y407494D01*
X237966Y492076D02*
Y495632D01*
Y485218D02*
Y488774D01*
Y479884D02*
Y483440D01*
Y471756D02*
Y475566D01*
Y460580D02*
Y469978D01*
Y452706D02*
Y456262D01*
Y378792D02*
Y407240D01*
X238220Y492076D02*
Y495632D01*
Y485218D02*
Y488774D01*
Y479884D02*
Y483440D01*
Y472010D02*
Y475566D01*
Y460580D02*
Y469978D01*
Y452706D02*
Y456262D01*
Y379046D02*
Y406986D01*
X238474Y492076D02*
Y495632D01*
Y485218D02*
Y488774D01*
Y479630D02*
Y483440D01*
Y472010D02*
Y475566D01*
Y460326D02*
Y470232D01*
Y452706D02*
Y456262D01*
Y379300D02*
Y406732D01*
X238728Y492076D02*
Y495632D01*
Y484964D02*
Y488774D01*
Y479630D02*
Y483440D01*
Y472010D02*
Y475820D01*
Y460326D02*
Y470232D01*
Y452706D02*
Y456262D01*
Y379554D02*
Y406478D01*
X238982Y492076D02*
Y495632D01*
Y484964D02*
Y488774D01*
Y479376D02*
Y483186D01*
Y472010D02*
Y476074D01*
Y460326D02*
Y470232D01*
Y452706D02*
Y456262D01*
Y379554D02*
Y406224D01*
X239236Y492076D02*
Y495632D01*
Y484964D02*
Y488774D01*
Y479122D02*
Y483186D01*
Y472264D02*
Y476074D01*
Y460072D02*
Y470486D01*
Y452706D02*
Y456262D01*
Y379808D02*
Y405970D01*
X239490Y492076D02*
Y495632D01*
Y485218D02*
Y489028D01*
Y478868D02*
Y482932D01*
Y472264D02*
Y476582D01*
Y460072D02*
Y470486D01*
Y452706D02*
Y456262D01*
Y380062D02*
Y405716D01*
X239744Y485218D02*
Y495632D01*
Y477852D02*
Y482932D01*
Y472518D02*
Y477598D01*
Y460072D02*
Y470486D01*
Y452706D02*
Y456262D01*
Y380316D02*
Y405462D01*
X239998Y485218D02*
Y495632D01*
Y472772D02*
Y482678D01*
Y459818D02*
Y470740D01*
Y452706D02*
Y456262D01*
Y380570D02*
Y405208D01*
X240252Y485218D02*
Y495632D01*
Y472772D02*
Y482678D01*
Y459818D02*
Y470740D01*
Y452706D02*
Y456262D01*
Y380570D02*
Y404954D01*
X240506Y485472D02*
Y495632D01*
Y473026D02*
Y482424D01*
Y467438D02*
Y470994D01*
Y459818D02*
Y463374D01*
Y452706D02*
Y456262D01*
Y380824D02*
Y404700D01*
X240760Y485726D02*
Y495632D01*
Y473280D02*
Y482170D01*
Y467438D02*
Y470994D01*
Y459564D02*
Y463120D01*
Y452706D02*
Y456262D01*
Y381078D02*
Y404446D01*
X241014Y485726D02*
Y495632D01*
Y473534D02*
Y481916D01*
Y467692D02*
Y470994D01*
Y459564D02*
Y463120D01*
Y452706D02*
Y456262D01*
Y381332D02*
Y404192D01*
X241268Y485980D02*
Y495632D01*
Y473788D02*
Y481662D01*
Y467692D02*
Y471248D01*
Y459310D02*
Y463120D01*
Y452706D02*
Y456262D01*
Y381586D02*
Y403938D01*
X241522Y486488D02*
Y495632D01*
Y474042D02*
Y481154D01*
Y467692D02*
Y471248D01*
Y459310D02*
Y462866D01*
Y452706D02*
Y456262D01*
Y381586D02*
Y403938D01*
X241776Y486742D02*
Y495632D01*
Y474550D02*
Y480900D01*
Y467692D02*
Y471248D01*
Y459310D02*
Y462866D01*
Y452706D02*
Y456262D01*
Y381840D02*
Y403684D01*
X242030Y488012D02*
Y495632D01*
Y475312D02*
Y480138D01*
Y467946D02*
Y471502D01*
Y459056D02*
Y462866D01*
Y452706D02*
Y456262D01*
Y382094D02*
Y403430D01*
X242284Y476328D02*
Y479122D01*
Y382348D02*
Y403176D01*
X242538Y382602D02*
Y402922D01*
X242792Y382602D02*
Y402668D01*
X243046Y382856D02*
Y402414D01*
X243300Y383110D02*
Y402160D01*
X243554Y383364D02*
Y401906D01*
X243808Y383364D02*
Y401652D01*
X244062Y468200D02*
Y477090D01*
Y458294D02*
Y466422D01*
Y450928D02*
Y452706D01*
Y442800D02*
Y445086D01*
Y434418D02*
Y436450D01*
Y383618D02*
Y401398D01*
X244316Y468200D02*
Y477090D01*
Y458294D02*
Y466422D01*
Y450928D02*
Y452960D01*
Y442800D02*
Y445086D01*
Y434418D02*
Y436450D01*
Y383872D02*
Y401144D01*
X244570Y468200D02*
Y477090D01*
Y458294D02*
Y466422D01*
Y450928D02*
Y452960D01*
Y442800D02*
Y445086D01*
Y434418D02*
Y436450D01*
Y384126D02*
Y400890D01*
X244824Y468200D02*
Y477090D01*
Y458294D02*
Y466422D01*
Y450674D02*
Y452960D01*
Y442546D02*
Y445086D01*
Y434418D02*
Y436704D01*
Y384126D02*
Y400636D01*
X245078Y468200D02*
Y477090D01*
Y458294D02*
Y466422D01*
Y450674D02*
Y453214D01*
Y442546D02*
Y445086D01*
Y434418D02*
Y436704D01*
Y384380D02*
Y400382D01*
X245332Y471756D02*
Y473534D01*
Y464898D02*
Y466422D01*
Y450420D02*
Y453214D01*
Y442546D02*
Y445086D01*
Y434418D02*
Y436704D01*
Y384634D02*
Y400382D01*
X245586Y471756D02*
Y473534D01*
Y464898D02*
Y466422D01*
Y451944D02*
Y453468D01*
Y450420D02*
Y451690D01*
Y442292D02*
Y445086D01*
Y434418D02*
Y436958D01*
Y384888D02*
Y400128D01*
X245840Y471756D02*
Y473534D01*
Y464898D02*
Y466422D01*
Y452198D02*
Y453468D01*
Y450420D02*
Y451690D01*
Y443816D02*
Y445086D01*
Y442292D02*
Y443562D01*
Y434418D02*
Y436958D01*
Y384888D02*
Y399874D01*
X246094Y471756D02*
Y473534D01*
Y464898D02*
Y466422D01*
Y452198D02*
Y453468D01*
Y450166D02*
Y451690D01*
Y443816D02*
Y445086D01*
Y442292D02*
Y443562D01*
Y435942D02*
Y437212D01*
Y434418D02*
Y435688D01*
Y385142D02*
Y399620D01*
X246348Y471756D02*
Y473534D01*
Y464898D02*
Y466422D01*
Y452198D02*
Y453722D01*
Y450166D02*
Y451436D01*
Y443816D02*
Y445086D01*
Y442038D02*
Y443562D01*
Y435942D02*
Y437212D01*
Y434418D02*
Y435688D01*
Y385396D02*
Y399366D01*
X246602Y471756D02*
Y473534D01*
Y464898D02*
Y466422D01*
Y452198D02*
Y453722D01*
Y449912D02*
Y451436D01*
Y443816D02*
Y445086D01*
Y442038D02*
Y443308D01*
Y435942D02*
Y437212D01*
Y434418D02*
Y435688D01*
Y385650D02*
Y399112D01*
X246856Y471756D02*
Y473534D01*
Y464898D02*
Y466422D01*
Y452452D02*
Y453722D01*
Y449912D02*
Y451436D01*
Y443816D02*
Y445086D01*
Y442038D02*
Y443308D01*
Y436196D02*
Y437466D01*
Y434418D02*
Y435688D01*
Y385650D02*
Y398858D01*
X247110Y471756D02*
Y473534D01*
Y464898D02*
Y466422D01*
Y452452D02*
Y453976D01*
Y449658D02*
Y451182D01*
Y443816D02*
Y445086D01*
Y441784D02*
Y443308D01*
Y436196D02*
Y437466D01*
Y434418D02*
Y435688D01*
Y385904D02*
Y398604D01*
X247364Y471756D02*
Y473534D01*
Y464898D02*
Y466422D01*
Y452452D02*
Y453976D01*
Y449658D02*
Y451182D01*
Y443816D02*
Y445086D01*
Y441784D02*
Y443308D01*
Y436196D02*
Y437466D01*
Y434418D02*
Y435688D01*
Y385904D02*
Y398604D01*
X247618Y471756D02*
Y473534D01*
Y464898D02*
Y466422D01*
Y452706D02*
Y454230D01*
Y449658D02*
Y451182D01*
Y443816D02*
Y445086D01*
Y441784D02*
Y443054D01*
Y436450D02*
Y437466D01*
Y434418D02*
Y435688D01*
Y386158D02*
Y398350D01*
X247872Y471756D02*
Y473534D01*
Y464898D02*
Y466422D01*
Y452706D02*
Y454230D01*
Y449404D02*
Y450928D01*
Y443816D02*
Y445086D01*
Y441530D02*
Y443054D01*
Y436450D02*
Y437720D01*
Y434418D02*
Y435688D01*
Y386412D02*
Y398096D01*
X248126Y471756D02*
Y473534D01*
Y464898D02*
Y466422D01*
Y452960D02*
Y454230D01*
Y449404D02*
Y450928D01*
Y443816D02*
Y445086D01*
Y441530D02*
Y443054D01*
Y436450D02*
Y437720D01*
Y434418D02*
Y435688D01*
Y386412D02*
Y397842D01*
X248380Y471756D02*
Y473534D01*
Y464898D02*
Y466422D01*
Y452960D02*
Y454484D01*
Y449404D02*
Y450928D01*
Y443816D02*
Y445086D01*
Y441530D02*
Y442800D01*
Y436704D02*
Y437974D01*
Y434418D02*
Y435688D01*
Y386666D02*
Y397588D01*
X248634Y471756D02*
Y473534D01*
Y464898D02*
Y466422D01*
Y452960D02*
Y454484D01*
Y449150D02*
Y450674D01*
Y443816D02*
Y445086D01*
Y441276D02*
Y442800D01*
Y436704D02*
Y437974D01*
Y434418D02*
Y435688D01*
Y386920D02*
Y397334D01*
X248888Y471756D02*
Y473534D01*
Y458802D02*
Y466422D01*
Y453214D02*
Y454484D01*
Y448896D02*
Y450674D01*
Y443816D02*
Y445086D01*
Y441276D02*
Y442546D01*
Y436704D02*
Y437974D01*
Y434418D02*
Y435688D01*
Y387174D02*
Y397080D01*
X249142Y471756D02*
Y473534D01*
Y458802D02*
Y466422D01*
Y453214D02*
Y454738D01*
Y448896D02*
Y450420D01*
Y443816D02*
Y445086D01*
Y441276D02*
Y442546D01*
Y436958D02*
Y438228D01*
Y434418D02*
Y435688D01*
Y387174D02*
Y396826D01*
X249396Y471756D02*
Y473534D01*
Y458802D02*
Y466422D01*
Y453214D02*
Y454738D01*
Y448896D02*
Y450420D01*
Y443816D02*
Y445086D01*
Y441022D02*
Y442546D01*
Y436958D02*
Y438228D01*
Y434418D02*
Y435688D01*
Y387428D02*
Y396826D01*
X249650Y471756D02*
Y473534D01*
Y458802D02*
Y466422D01*
Y453468D02*
Y454992D01*
Y448642D02*
Y450420D01*
Y443816D02*
Y445086D01*
Y441022D02*
Y442292D01*
Y436958D02*
Y438228D01*
Y434418D02*
Y435688D01*
Y387682D02*
Y396572D01*
X249904Y471756D02*
Y473534D01*
Y458802D02*
Y466422D01*
Y453468D02*
Y454992D01*
Y448642D02*
Y450166D01*
Y443816D02*
Y445086D01*
Y441022D02*
Y442292D01*
Y437212D02*
Y438482D01*
Y434418D02*
Y435688D01*
Y387682D02*
Y396318D01*
X250158Y471756D02*
Y473534D01*
Y464898D02*
Y466422D01*
Y453722D02*
Y454992D01*
Y448388D02*
Y450166D01*
Y443816D02*
Y445086D01*
Y440768D02*
Y442292D01*
Y437212D02*
Y438482D01*
Y434418D02*
Y435688D01*
Y387936D02*
Y396064D01*
X250412Y471756D02*
Y473534D01*
Y464898D02*
Y466422D01*
Y453722D02*
Y455246D01*
Y448388D02*
Y450166D01*
Y443816D02*
Y445086D01*
Y440768D02*
Y442038D01*
Y437466D02*
Y438482D01*
Y434418D02*
Y435688D01*
Y388190D02*
Y395810D01*
X250666Y471756D02*
Y473534D01*
Y464898D02*
Y466422D01*
Y453722D02*
Y455246D01*
Y448388D02*
Y449912D01*
Y443816D02*
Y445086D01*
Y440768D02*
Y442038D01*
Y437466D02*
Y438736D01*
Y434418D02*
Y435688D01*
Y388190D02*
Y395556D01*
X250920Y471756D02*
Y473534D01*
Y464898D02*
Y466422D01*
Y448134D02*
Y455500D01*
Y443816D02*
Y445086D01*
Y440514D02*
Y442038D01*
Y437466D02*
Y438736D01*
Y434418D02*
Y435688D01*
Y388444D02*
Y395302D01*
X251174Y471756D02*
Y473534D01*
Y464898D02*
Y466422D01*
Y448134D02*
Y455500D01*
Y443816D02*
Y445086D01*
Y440514D02*
Y441784D01*
Y437720D02*
Y438736D01*
Y434418D02*
Y435688D01*
Y388698D02*
Y395048D01*
X251428Y471756D02*
Y473534D01*
Y464898D02*
Y466422D01*
Y447880D02*
Y455500D01*
Y443816D02*
Y445086D01*
Y440514D02*
Y441784D01*
Y437720D02*
Y438990D01*
Y434418D02*
Y435688D01*
Y388698D02*
Y394794D01*
X251682Y471756D02*
Y473534D01*
Y464898D02*
Y466422D01*
Y447880D02*
Y455754D01*
Y443816D02*
Y445086D01*
Y440260D02*
Y441784D01*
Y437720D02*
Y438990D01*
Y434418D02*
Y435688D01*
Y388952D02*
Y394794D01*
X251936Y471756D02*
Y473534D01*
Y464898D02*
Y466422D01*
Y454230D02*
Y455754D01*
Y447880D02*
Y449404D01*
Y443816D02*
Y445086D01*
Y440260D02*
Y441530D01*
Y437974D02*
Y438990D01*
Y434418D02*
Y435688D01*
Y389206D02*
Y394540D01*
X252190Y471756D02*
Y473534D01*
Y464898D02*
Y466422D01*
Y454230D02*
Y455754D01*
Y447626D02*
Y449404D01*
Y443816D02*
Y445086D01*
Y440260D02*
Y441530D01*
Y437974D02*
Y439244D01*
Y434418D02*
Y435688D01*
Y389206D02*
Y394286D01*
X252444Y471756D02*
Y473534D01*
Y464898D02*
Y466422D01*
Y454484D02*
Y456008D01*
Y447626D02*
Y449150D01*
Y443816D02*
Y445086D01*
Y440006D02*
Y441276D01*
Y437974D02*
Y439244D01*
Y434418D02*
Y435688D01*
Y389460D02*
Y394032D01*
X252698Y471756D02*
Y473534D01*
Y464898D02*
Y466422D01*
Y454484D02*
Y456008D01*
Y447372D02*
Y449150D01*
Y443816D02*
Y445086D01*
Y440006D02*
Y441276D01*
Y438228D02*
Y439244D01*
Y434418D02*
Y435688D01*
Y389460D02*
Y393778D01*
X252952Y471756D02*
Y473534D01*
Y464898D02*
Y466422D01*
Y454738D02*
Y456262D01*
Y447372D02*
Y448896D01*
Y443816D02*
Y445086D01*
Y440006D02*
Y441276D01*
Y438228D02*
Y439498D01*
Y434418D02*
Y435688D01*
Y389714D02*
Y393524D01*
X253206Y471756D02*
Y473534D01*
Y464898D02*
Y466422D01*
Y454738D02*
Y456262D01*
Y447372D02*
Y448896D01*
Y443816D02*
Y445086D01*
Y439752D02*
Y441022D01*
Y438228D02*
Y439498D01*
Y434418D02*
Y435688D01*
Y389968D02*
Y393270D01*
X253460Y471756D02*
Y473534D01*
Y464898D02*
Y466422D01*
Y454738D02*
Y456262D01*
Y447118D02*
Y448896D01*
Y443816D02*
Y445086D01*
Y439752D02*
Y441022D01*
Y438482D02*
Y439498D01*
Y434418D02*
Y435688D01*
Y389968D02*
Y393270D01*
X253714Y471756D02*
Y473534D01*
Y464898D02*
Y466422D01*
Y454992D02*
Y456516D01*
Y447118D02*
Y448642D01*
Y443816D02*
Y445086D01*
Y438482D02*
Y441022D01*
Y434418D02*
Y435688D01*
Y390222D02*
Y393016D01*
X253968Y471756D02*
Y473534D01*
Y464898D02*
Y466422D01*
Y454992D02*
Y456516D01*
Y446864D02*
Y448642D01*
Y443816D02*
Y445086D01*
Y438482D02*
Y440768D01*
Y434418D02*
Y435688D01*
Y390476D02*
Y392762D01*
X254222Y471756D02*
Y473534D01*
Y458040D02*
Y466422D01*
Y454992D02*
Y456770D01*
Y446864D02*
Y448642D01*
Y443816D02*
Y445086D01*
Y438736D02*
Y440768D01*
Y434418D02*
Y435688D01*
Y390476D02*
Y392508D01*
X254476Y471756D02*
Y473534D01*
Y458040D02*
Y466422D01*
Y455246D02*
Y456770D01*
Y446610D02*
Y448388D01*
Y443816D02*
Y445086D01*
Y438736D02*
Y440768D01*
Y434418D02*
Y435688D01*
Y390730D02*
Y392254D01*
X254730Y471756D02*
Y473534D01*
Y458040D02*
Y466422D01*
Y455246D02*
Y457024D01*
Y446610D02*
Y448388D01*
Y443816D02*
Y445086D01*
Y438736D02*
Y440514D01*
Y434418D02*
Y435688D01*
Y390730D02*
Y392000D01*
X254984Y471756D02*
Y473534D01*
Y458040D02*
Y466422D01*
Y455246D02*
Y457024D01*
Y446610D02*
Y448134D01*
Y443816D02*
Y445086D01*
Y438990D02*
Y440514D01*
Y434418D02*
Y435688D01*
Y390984D02*
Y392000D01*
X255238Y471756D02*
Y473534D01*
Y458040D02*
Y466422D01*
Y455500D02*
Y457024D01*
Y446356D02*
Y448134D01*
Y443816D02*
Y445086D01*
Y438990D02*
Y440514D01*
Y434418D02*
Y435688D01*
Y391238D02*
Y391746D01*
D77*
X89482Y427405D02*
X87388Y429500D01*
Y431595D01*
X91577Y435784D01*
X93672D01*
X95767Y433689D01*
X95767Y431595D01*
X91577Y427405D01*
X89482D01*
X98909Y430547D02*
X92625Y424263D01*
X103098Y426358D01*
X96814Y420074D01*
M02*
