%FSLAX44Y44*%
%MOMM*%
G71*
G01*
G75*
G04 Layer_Color=255*
%ADD10C,0.4000*%
%ADD11C,0.2540*%
%ADD12R,1.1500X0.7000*%
%ADD13R,0.7000X1.1500*%
%ADD14R,1.0000X1.1000*%
%ADD15R,5.3300X5.5900*%
%ADD16R,6.3500X5.2800*%
%ADD17R,1.1000X1.0000*%
G04:AMPARAMS|DCode=18|XSize=1mm|YSize=1.1mm|CornerRadius=0mm|HoleSize=0mm|Usage=FLASHONLY|Rotation=45.000|XOffset=0mm|YOffset=0mm|HoleType=Round|Shape=Rectangle|*
%AMROTATEDRECTD18*
4,1,4,0.0354,-0.7425,-0.7425,0.0354,-0.0354,0.7425,0.7425,-0.0354,0.0354,-0.7425,0.0*
%
%ADD18ROTATEDRECTD18*%

G04:AMPARAMS|DCode=19|XSize=1mm|YSize=1.1mm|CornerRadius=0mm|HoleSize=0mm|Usage=FLASHONLY|Rotation=135.000|XOffset=0mm|YOffset=0mm|HoleType=Round|Shape=Rectangle|*
%AMROTATEDRECTD19*
4,1,4,0.7425,0.0354,-0.0354,-0.7425,-0.7425,-0.0354,0.0354,0.7425,0.7425,0.0354,0.0*
%
%ADD19ROTATEDRECTD19*%

G04:AMPARAMS|DCode=20|XSize=0.5mm|YSize=1.2mm|CornerRadius=0mm|HoleSize=0mm|Usage=FLASHONLY|Rotation=135.000|XOffset=0mm|YOffset=0mm|HoleType=Round|Shape=Rectangle|*
%AMROTATEDRECTD20*
4,1,4,0.6010,0.2475,-0.2475,-0.6010,-0.6010,-0.2475,0.2475,0.6010,0.6010,0.2475,0.0*
%
%ADD20ROTATEDRECTD20*%

G04:AMPARAMS|DCode=21|XSize=0.5mm|YSize=1.2mm|CornerRadius=0mm|HoleSize=0mm|Usage=FLASHONLY|Rotation=225.000|XOffset=0mm|YOffset=0mm|HoleType=Round|Shape=Rectangle|*
%AMROTATEDRECTD21*
4,1,4,-0.2475,0.6010,0.6010,-0.2475,0.2475,-0.6010,-0.6010,0.2475,-0.2475,0.6010,0.0*
%
%ADD21ROTATEDRECTD21*%

%ADD22O,0.8000X3.0000*%
%ADD23R,0.7620X1.0100*%
%ADD24R,2.2870X1.0100*%
%ADD25R,1.8000X3.7000*%
%ADD26R,0.6000X1.8000*%
G04:AMPARAMS|DCode=27|XSize=0.6mm|YSize=1.8mm|CornerRadius=0.15mm|HoleSize=0mm|Usage=FLASHONLY|Rotation=0.000|XOffset=0mm|YOffset=0mm|HoleType=Round|Shape=RoundedRectangle|*
%AMROUNDEDRECTD27*
21,1,0.6000,1.5000,0,0,0.0*
21,1,0.3000,1.8000,0,0,0.0*
1,1,0.3000,0.1500,-0.7500*
1,1,0.3000,-0.1500,-0.7500*
1,1,0.3000,-0.1500,0.7500*
1,1,0.3000,0.1500,0.7500*
%
%ADD27ROUNDEDRECTD27*%
%ADD28R,1.1000X1.5000*%
%ADD29R,0.6000X0.9000*%
%ADD30C,0.6000*%
%ADD31C,0.4500*%
%ADD32C,1.0000*%
%ADD33C,0.5000*%
%ADD34C,0.1500*%
%ADD35C,0.8000*%
%ADD36C,1.8000*%
%ADD37R,1.8000X1.8000*%
%ADD38R,1.4000X1.4000*%
%ADD39C,1.4000*%
%ADD40C,1.7000*%
%ADD41R,1.8000X1.8000*%
%ADD42P,1.9799X4X360.0*%
%ADD43P,1.9799X4X90.0*%
%ADD44C,0.6000*%
%ADD45C,1.0000*%
%ADD46C,0.9000*%
%ADD47R,1.4000X1.3900*%
%ADD48R,4.8600X3.3600*%
%ADD49R,1.5000X1.0000*%
%ADD50R,1.0000X0.9000*%
%ADD51R,1.6000X1.8000*%
%ADD52O,1.5500X0.2500*%
%ADD53R,1.5500X0.2500*%
%ADD54R,0.2500X1.5500*%
%ADD55R,4.6000X4.6000*%
G04:AMPARAMS|DCode=56|XSize=0.76mm|YSize=1.27mm|CornerRadius=0mm|HoleSize=0mm|Usage=FLASHONLY|Rotation=315.000|XOffset=0mm|YOffset=0mm|HoleType=Round|Shape=Rectangle|*
%AMROTATEDRECTD56*
4,1,4,-0.7177,-0.1803,0.1803,0.7177,0.7177,0.1803,-0.1803,-0.7177,-0.7177,-0.1803,0.0*
%
%ADD56ROTATEDRECTD56*%

%ADD57R,2.2000X1.6000*%
%ADD58R,2.0000X3.5000*%
%ADD59R,0.9000X0.6900*%
%ADD60R,0.9900X0.6900*%
%ADD61R,0.6900X0.9000*%
%ADD62R,0.6900X0.9900*%
%ADD63R,1.4000X1.4000*%
%ADD64R,1.6000X2.9000*%
%ADD65R,1.5000X1.1000*%
%ADD66R,1.8000X1.6000*%
%ADD67R,2.9000X1.6000*%
%ADD68R,3.8100X4.2400*%
%ADD69C,0.1600*%
%ADD70C,0.1800*%
%ADD71C,0.3000*%
D14*
X280000Y322500D02*
D03*
Y305500D02*
D03*
X82485Y27500D02*
D03*
Y44500D02*
D03*
X292000Y305500D02*
D03*
Y322500D02*
D03*
X304000Y322500D02*
D03*
Y305500D02*
D03*
X316000D02*
D03*
Y322500D02*
D03*
X328000Y305500D02*
D03*
Y322500D02*
D03*
X340000D02*
D03*
Y305500D02*
D03*
X352000D02*
D03*
Y322500D02*
D03*
X417821Y460000D02*
D03*
Y477000D02*
D03*
X430820Y460000D02*
D03*
Y477000D02*
D03*
D17*
X434000Y292000D02*
D03*
X417000D02*
D03*
X434000Y280000D02*
D03*
X417000D02*
D03*
X434000Y268000D02*
D03*
X417000D02*
D03*
X417500Y220000D02*
D03*
X434500D02*
D03*
Y208000D02*
D03*
X417500D02*
D03*
X280500Y188000D02*
D03*
X263500D02*
D03*
X280500Y176000D02*
D03*
X263500D02*
D03*
X263500Y268000D02*
D03*
X280500D02*
D03*
X263500Y256000D02*
D03*
X280500D02*
D03*
X263500Y224000D02*
D03*
X280500D02*
D03*
Y212000D02*
D03*
X263500D02*
D03*
X280500Y200000D02*
D03*
X263500D02*
D03*
X280500Y164000D02*
D03*
X263500D02*
D03*
X446320Y622500D02*
D03*
X463320D02*
D03*
X463320Y608500D02*
D03*
X446320D02*
D03*
D25*
X252500Y66000D02*
D03*
X211500D02*
D03*
D28*
X402320Y438500D02*
D03*
X381320D02*
D03*
X412320Y632500D02*
D03*
X391320D02*
D03*
D35*
X142500Y32000D02*
D03*
X167500D02*
D03*
X37500D02*
D03*
X62500D02*
D03*
X244500D02*
D03*
X219500D02*
D03*
D36*
X142500Y103800D02*
D03*
X167500D02*
D03*
X142500Y128800D02*
D03*
X37500Y103800D02*
D03*
X62500D02*
D03*
X37500Y128800D02*
D03*
X132700Y520000D02*
D03*
X107300D02*
D03*
X64700Y160000D02*
D03*
X39300D02*
D03*
X155400Y160000D02*
D03*
X130000D02*
D03*
X104600D02*
D03*
X32000Y520800D02*
D03*
Y495400D02*
D03*
Y470000D02*
D03*
Y444600D02*
D03*
Y419200D02*
D03*
X219500Y103800D02*
D03*
X102485Y40600D02*
D03*
Y66000D02*
D03*
D37*
X167500Y128800D02*
D03*
X62500D02*
D03*
D38*
X302000Y168000D02*
D03*
X330000D02*
D03*
X459500Y254000D02*
D03*
Y170000D02*
D03*
D39*
X424500Y254000D02*
D03*
Y170000D02*
D03*
X34000Y622000D02*
D03*
X79000D02*
D03*
X249678Y148322D02*
D03*
Y287678D02*
D03*
D40*
X21450Y597100D02*
D03*
X91550D02*
D03*
D41*
X244500Y103800D02*
D03*
D42*
X214322Y183678D02*
D03*
D43*
Y252322D02*
D03*
D47*
X422150Y339200D02*
D03*
Y320800D02*
D03*
D48*
X462000Y330000D02*
D03*
D49*
X84985Y14000D02*
D03*
X119985D02*
D03*
D50*
X102485Y19500D02*
D03*
D51*
X377000Y168000D02*
D03*
X347000D02*
D03*
X437000Y236000D02*
D03*
X407000D02*
D03*
X249000Y240000D02*
D03*
X279000D02*
D03*
X389820Y519500D02*
D03*
X359820D02*
D03*
D52*
X389000Y263500D02*
D03*
D53*
Y258500D02*
D03*
Y253500D02*
D03*
Y248500D02*
D03*
Y243500D02*
D03*
Y238500D02*
D03*
Y233500D02*
D03*
Y228500D02*
D03*
Y223500D02*
D03*
Y218500D02*
D03*
Y213500D02*
D03*
Y208500D02*
D03*
X307000D02*
D03*
Y213500D02*
D03*
Y218500D02*
D03*
Y223500D02*
D03*
Y228500D02*
D03*
Y233500D02*
D03*
Y238500D02*
D03*
Y243500D02*
D03*
Y248500D02*
D03*
Y253500D02*
D03*
Y258500D02*
D03*
Y263500D02*
D03*
D54*
X375500Y195000D02*
D03*
X370500D02*
D03*
X365500D02*
D03*
X360500D02*
D03*
X355500D02*
D03*
X350500D02*
D03*
X345500D02*
D03*
X340500D02*
D03*
X335500D02*
D03*
X330500D02*
D03*
X325500D02*
D03*
X320500D02*
D03*
Y277000D02*
D03*
X325500D02*
D03*
X330500D02*
D03*
X335500D02*
D03*
X340500D02*
D03*
X345500D02*
D03*
X350500D02*
D03*
X355500D02*
D03*
X360500D02*
D03*
X365500D02*
D03*
X370500D02*
D03*
X375500D02*
D03*
D55*
X348000Y236000D02*
D03*
D56*
X134874Y468262D02*
D03*
X143855Y459282D02*
D03*
X152835Y450302D02*
D03*
X161815Y441322D02*
D03*
X98953Y396420D02*
D03*
X107933Y387440D02*
D03*
X89973Y405400D02*
D03*
X80993Y414381D02*
D03*
D57*
X293813Y435505D02*
D03*
Y499505D02*
D03*
D58*
X391820Y583500D02*
D03*
X301820D02*
D03*
D59*
X403320Y477500D02*
D03*
Y457500D02*
D03*
Y467500D02*
D03*
D60*
X378320Y477500D02*
D03*
Y467500D02*
D03*
Y457500D02*
D03*
D61*
X432820Y571000D02*
D03*
X422820D02*
D03*
X412820D02*
D03*
D62*
X432820Y596001D02*
D03*
X422820D02*
D03*
X412820D02*
D03*
D63*
Y518501D02*
D03*
Y546500D02*
D03*
D64*
X355820Y409501D02*
D03*
X325820D02*
D03*
D65*
X360820Y457000D02*
D03*
Y478000D02*
D03*
X433820Y527000D02*
D03*
Y548000D02*
D03*
D66*
X341820Y452500D02*
D03*
Y482500D02*
D03*
D67*
X459820Y516500D02*
D03*
Y546500D02*
D03*
D68*
X346000Y129850D02*
D03*
Y66150D02*
D03*
M02*
