%FSLAX44Y44*%
%MOMM*%
G71*
G01*
G75*
G04 Layer_Physical_Order=1*
G04 Layer_Color=255*
%ADD10C,0.4000*%
%ADD11C,0.2540*%
%ADD12R,1.1500X0.7000*%
%ADD13R,0.7000X1.1500*%
%ADD14R,1.0000X1.1000*%
%ADD15R,5.3300X5.5900*%
%ADD16R,6.3500X5.2800*%
%ADD17R,1.1000X1.0000*%
G04:AMPARAMS|DCode=18|XSize=1mm|YSize=1.1mm|CornerRadius=0mm|HoleSize=0mm|Usage=FLASHONLY|Rotation=45.000|XOffset=0mm|YOffset=0mm|HoleType=Round|Shape=Rectangle|*
%AMROTATEDRECTD18*
4,1,4,0.0354,-0.7425,-0.7425,0.0354,-0.0354,0.7425,0.7425,-0.0354,0.0354,-0.7425,0.0*
%
%ADD18ROTATEDRECTD18*%

G04:AMPARAMS|DCode=19|XSize=1mm|YSize=1.1mm|CornerRadius=0mm|HoleSize=0mm|Usage=FLASHONLY|Rotation=135.000|XOffset=0mm|YOffset=0mm|HoleType=Round|Shape=Rectangle|*
%AMROTATEDRECTD19*
4,1,4,0.7425,0.0354,-0.0354,-0.7425,-0.7425,-0.0354,0.0354,0.7425,0.7425,0.0354,0.0*
%
%ADD19ROTATEDRECTD19*%

G04:AMPARAMS|DCode=20|XSize=0.5mm|YSize=1.2mm|CornerRadius=0mm|HoleSize=0mm|Usage=FLASHONLY|Rotation=135.000|XOffset=0mm|YOffset=0mm|HoleType=Round|Shape=Rectangle|*
%AMROTATEDRECTD20*
4,1,4,0.6010,0.2475,-0.2475,-0.6010,-0.6010,-0.2475,0.2475,0.6010,0.6010,0.2475,0.0*
%
%ADD20ROTATEDRECTD20*%

G04:AMPARAMS|DCode=21|XSize=0.5mm|YSize=1.2mm|CornerRadius=0mm|HoleSize=0mm|Usage=FLASHONLY|Rotation=225.000|XOffset=0mm|YOffset=0mm|HoleType=Round|Shape=Rectangle|*
%AMROTATEDRECTD21*
4,1,4,-0.2475,0.6010,0.6010,-0.2475,0.2475,-0.6010,-0.6010,0.2475,-0.2475,0.6010,0.0*
%
%ADD21ROTATEDRECTD21*%

%ADD22O,0.8000X3.0000*%
%ADD23R,0.7620X1.0100*%
%ADD24R,2.2870X1.0100*%
%ADD25R,1.8000X3.7000*%
%ADD26R,0.6000X1.8000*%
G04:AMPARAMS|DCode=27|XSize=0.6mm|YSize=1.8mm|CornerRadius=0.15mm|HoleSize=0mm|Usage=FLASHONLY|Rotation=0.000|XOffset=0mm|YOffset=0mm|HoleType=Round|Shape=RoundedRectangle|*
%AMROUNDEDRECTD27*
21,1,0.6000,1.5000,0,0,0.0*
21,1,0.3000,1.8000,0,0,0.0*
1,1,0.3000,0.1500,-0.7500*
1,1,0.3000,-0.1500,-0.7500*
1,1,0.3000,-0.1500,0.7500*
1,1,0.3000,0.1500,0.7500*
%
%ADD27ROUNDEDRECTD27*%
%ADD28R,1.1000X1.5000*%
%ADD29R,0.6000X0.9000*%
%ADD30C,0.6000*%
%ADD31C,0.4500*%
%ADD32C,1.0000*%
%ADD33C,0.5000*%
%ADD34C,0.1500*%
%ADD35C,0.8000*%
%ADD36C,1.8000*%
%ADD37R,1.8000X1.8000*%
%ADD38R,1.4000X1.4000*%
%ADD39C,1.4000*%
%ADD40C,1.7000*%
%ADD41R,1.8000X1.8000*%
%ADD42P,1.9799X4X360.0*%
%ADD43P,1.9799X4X90.0*%
%ADD44C,0.6000*%
%ADD45C,1.0000*%
%ADD46C,0.9000*%
G36*
X497451Y360549D02*
Y20000D01*
X497455Y19980D01*
X497122Y16594D01*
X496128Y13319D01*
X494515Y10301D01*
X492344Y7656D01*
X489699Y5485D01*
X486680Y3872D01*
X483406Y2878D01*
X480020Y2545D01*
X480000Y2549D01*
X390000D01*
X390000Y44000D01*
X396000Y50000D01*
X438000Y50000D01*
X442000Y54000D01*
Y304000D01*
X438000Y308000D01*
X438000Y358000D01*
X442000Y362000D01*
X496000D01*
X497451Y360549D01*
D02*
G37*
G36*
X388376Y91327D02*
X388376Y56000D01*
X388376Y56000D01*
X388852Y54852D01*
X388852D01*
X390000Y53704D01*
Y46296D01*
X388852Y45148D01*
X388376Y44000D01*
X388376Y3447D01*
X387478Y2549D01*
X302522D01*
X301624Y3447D01*
X301624Y91327D01*
X308673Y98376D01*
X381327D01*
X388376Y91327D01*
D02*
G37*
G36*
X298000Y342000D02*
Y300000D01*
X242000Y300000D01*
X232000Y290000D01*
X232000Y174000D01*
Y112243D01*
X231912Y111800D01*
X232000Y111357D01*
Y96243D01*
X231912Y95800D01*
X232000Y95357D01*
Y2549D01*
X192549D01*
Y150000D01*
X192355Y150975D01*
X192172Y151250D01*
X191802Y151802D01*
X180549Y163056D01*
Y244000D01*
X180355Y244975D01*
X180000Y245507D01*
Y296000D01*
X180000Y314000D01*
X192000Y326000D01*
X210000Y326000D01*
X211475Y327475D01*
X211756Y327531D01*
X213244Y328526D01*
X214239Y330014D01*
X214295Y330295D01*
X217772Y333772D01*
X219244Y334756D01*
X220228Y336228D01*
X223772Y339772D01*
X225244Y340756D01*
X226228Y342228D01*
X228000Y344000D01*
X296000D01*
X298000Y342000D01*
D02*
G37*
G36*
X320000Y424000D02*
Y424000D01*
Y362000D01*
X318000Y360000D01*
X300000D01*
X299400Y359400D01*
X298030D01*
Y358030D01*
X298000Y358000D01*
Y348000D01*
X296000Y346000D01*
X262000D01*
X260000Y348000D01*
Y424000D01*
X262000Y426000D01*
X318000D01*
X320000Y424000D01*
D02*
G37*
G36*
X430000Y426000D02*
Y317013D01*
X429500Y315950D01*
X415000D01*
Y308194D01*
X414860Y308054D01*
X407000D01*
Y308000D01*
X365000D01*
Y308054D01*
X361517D01*
X361517Y308054D01*
X360436Y307839D01*
X359520Y307227D01*
X358293Y306000D01*
X358000D01*
X356753Y307247D01*
X356878Y308511D01*
X357244Y308755D01*
X358238Y310244D01*
X358587Y311999D01*
X358489Y312495D01*
X361997Y316003D01*
X361997Y316003D01*
X362609Y316919D01*
X362824Y318000D01*
X362824Y318000D01*
Y328475D01*
X363244Y328756D01*
X364239Y330244D01*
X364588Y332000D01*
X364239Y333756D01*
X363244Y335244D01*
X361756Y336239D01*
X360000Y336588D01*
X358244Y336239D01*
X357270Y335588D01*
X356000Y336225D01*
Y426000D01*
X358000Y428000D01*
X428000D01*
X430000Y426000D01*
D02*
G37*
G36*
X440376Y303328D02*
Y270824D01*
X437525D01*
X437244Y271244D01*
X435756Y272239D01*
X434000Y272588D01*
X432244Y272239D01*
X430756Y271244D01*
X429761Y269756D01*
X429412Y268000D01*
X429761Y266244D01*
X430756Y264756D01*
X432244Y263761D01*
X434000Y263412D01*
X435756Y263761D01*
X437244Y264756D01*
X437525Y265176D01*
X440376D01*
Y54672D01*
X437327Y51624D01*
X396000Y51624D01*
X394852Y51148D01*
X390000Y56000D01*
X390000Y92000D01*
X382000Y100000D01*
X308000D01*
X300000Y92000D01*
X300000Y2549D01*
X296898D01*
X296000Y3447D01*
X296000Y31000D01*
X265000Y31000D01*
Y30275D01*
X263960D01*
Y6960D01*
X264102D01*
X265000Y6062D01*
Y2549D01*
X233624D01*
Y28808D01*
X234894Y29061D01*
X235765Y26957D01*
X237368Y24868D01*
X239457Y23265D01*
X241889Y22257D01*
X244500Y21914D01*
X247111Y22257D01*
X249543Y23265D01*
X251632Y24868D01*
X253235Y26957D01*
X254243Y29390D01*
X254586Y32000D01*
X254243Y34611D01*
X253235Y37043D01*
X251632Y39132D01*
X249543Y40735D01*
X247111Y41743D01*
X244500Y42086D01*
X241889Y41743D01*
X239457Y40735D01*
X237368Y39132D01*
X235765Y37043D01*
X234894Y34939D01*
X233624Y35192D01*
Y95357D01*
X233560Y95511D01*
X233592Y95674D01*
X233567Y95800D01*
X233592Y95926D01*
X233560Y96089D01*
X233624Y96243D01*
Y111357D01*
X233560Y111510D01*
X233592Y111673D01*
X233567Y111800D01*
X233592Y111926D01*
X233560Y112090D01*
X233624Y112243D01*
Y174000D01*
X233624Y289327D01*
X242673Y298376D01*
X298000Y298376D01*
X298730Y298679D01*
X300000Y298045D01*
Y295868D01*
X290003Y285870D01*
X289391Y284954D01*
X289176Y283873D01*
X289176Y283873D01*
Y283525D01*
X288756Y283244D01*
X287761Y281756D01*
X287412Y280000D01*
X287761Y278244D01*
X288756Y276756D01*
X290244Y275761D01*
X292000Y275412D01*
X293756Y275761D01*
X295244Y276756D01*
X296455D01*
X297944Y275761D01*
X299425Y275466D01*
X299758Y274378D01*
X299767Y274202D01*
X293923Y268358D01*
X293311Y267441D01*
X293096Y266360D01*
X293096Y266360D01*
Y227250D01*
X290201Y224355D01*
X288566Y224516D01*
X288414Y224744D01*
X286454Y226704D01*
X285213Y227532D01*
X283750Y227823D01*
X265878D01*
X265256Y228239D01*
X263500Y228588D01*
X261744Y228239D01*
X260256Y227244D01*
X259261Y225756D01*
X258912Y224000D01*
X259261Y222244D01*
X260256Y220756D01*
X261744Y219761D01*
X263500Y219412D01*
X265256Y219761D01*
X265878Y220177D01*
X281887D01*
Y214031D01*
X282178Y212568D01*
X283006Y211327D01*
X286177Y208157D01*
Y184454D01*
X286468Y182991D01*
X287296Y181750D01*
X300000Y169047D01*
Y167387D01*
X301173Y167873D01*
X303750Y165296D01*
X304991Y164468D01*
X306454Y164177D01*
X327622D01*
X328244Y163761D01*
X330000Y163412D01*
X331756Y163761D01*
X333244Y164756D01*
X334239Y166244D01*
X334588Y168000D01*
X334239Y169756D01*
X333244Y171244D01*
X331756Y172239D01*
X330000Y172588D01*
X328244Y172239D01*
X327622Y171823D01*
X308037D01*
X303327Y176534D01*
X303647Y177588D01*
X303840Y177817D01*
X305244Y178755D01*
X306129Y180080D01*
X307425Y180581D01*
X309503Y178503D01*
X309503Y178503D01*
X310419Y177891D01*
X311500Y177676D01*
X311500Y177676D01*
X321975D01*
X322256Y177256D01*
X323744Y176261D01*
X325500Y175912D01*
X327256Y176261D01*
X328745Y177256D01*
X329739Y178744D01*
X329742Y178757D01*
X331055Y179379D01*
X331159Y179375D01*
X332160Y179176D01*
X332160Y179176D01*
X348475D01*
X348756Y178756D01*
X350244Y177761D01*
X352000Y177412D01*
X353756Y177761D01*
X355244Y178756D01*
X356239Y180244D01*
X356588Y182000D01*
X356239Y183756D01*
X355244Y185244D01*
X353756Y186239D01*
X352000Y186588D01*
X350244Y186239D01*
X348756Y185244D01*
X348475Y184824D01*
X333330D01*
X328657Y189497D01*
X327741Y190109D01*
X326660Y190324D01*
X326660Y190324D01*
X318388D01*
X318272Y190461D01*
X318244Y191756D01*
X319239Y193244D01*
X319588Y195000D01*
X319239Y196756D01*
X318244Y198244D01*
X316756Y199239D01*
X315000Y199588D01*
X314904Y199667D01*
Y203562D01*
X316078Y204048D01*
X316759Y203367D01*
X316759Y203367D01*
X317308Y203000D01*
X317675Y202755D01*
X318756Y202540D01*
X326975D01*
X327256Y202120D01*
X328744Y201125D01*
X330500Y200776D01*
X332256Y201125D01*
X333744Y202120D01*
X334739Y203608D01*
X334853Y204179D01*
X336148D01*
X336261Y203608D01*
X337256Y202120D01*
X338744Y201125D01*
X340500Y200776D01*
X342256Y201125D01*
X343744Y202120D01*
X344739Y203608D01*
X345088Y205364D01*
X344739Y207120D01*
X343744Y208608D01*
X342256Y209603D01*
X340500Y209952D01*
X340005Y209853D01*
X336727Y213131D01*
X335811Y213743D01*
X334730Y213958D01*
X334730Y213958D01*
X328110D01*
X327029Y213743D01*
X326113Y213131D01*
X325210Y212228D01*
X323170D01*
X322984Y212414D01*
Y255150D01*
X330444Y262610D01*
X342447D01*
X342447Y262610D01*
X343528Y262824D01*
X344444Y263437D01*
X360847Y279839D01*
X360847Y279839D01*
X361214Y280389D01*
X361459Y280756D01*
X361674Y281836D01*
Y295680D01*
X363994Y298000D01*
X400000D01*
Y284000D01*
X410000D01*
Y284500D01*
X410050D01*
Y299000D01*
X410000D01*
Y302000D01*
X410406Y302406D01*
X416030D01*
X416030Y302406D01*
X417111Y302621D01*
X418027Y303233D01*
X418794Y304000D01*
X439704D01*
X440376Y303328D01*
D02*
G37*
%LPC*%
G36*
X219500Y42086D02*
X216889Y41743D01*
X214457Y40735D01*
X212368Y39132D01*
X210765Y37043D01*
X209757Y34611D01*
X209414Y32000D01*
X209757Y29390D01*
X210765Y26957D01*
X212368Y24868D01*
X214457Y23265D01*
X216889Y22257D01*
X219500Y21914D01*
X222111Y22257D01*
X224543Y23265D01*
X226632Y24868D01*
X228235Y26957D01*
X229243Y29390D01*
X229586Y32000D01*
X229243Y34611D01*
X228235Y37043D01*
X226632Y39132D01*
X224543Y40735D01*
X222111Y41743D01*
X219500Y42086D01*
D02*
G37*
%LPD*%
D10*
X20000Y641138D02*
G03*
X12119Y637874I0J-11145D01*
G01*
X11674Y637428D02*
G03*
X8707Y630266I7162J-7162D01*
G01*
X20000Y641138D02*
X59862D01*
X11674Y637428D02*
X12119Y637874D01*
X8707Y611556D02*
Y630266D01*
X59862Y641138D02*
X79000Y622000D01*
X8614Y611463D02*
X8707Y611556D01*
X8614Y544186D02*
X32000Y520800D01*
X8614Y544186D02*
Y611463D01*
D11*
X496230Y629720D02*
G03*
X491394Y641394I-16509J0D01*
G01*
X21182Y646230D02*
G03*
X8235Y640867I0J-18311D01*
G01*
D02*
G03*
X3844Y630266I10601J-10601D01*
G01*
X491394Y641394D02*
G03*
X479719Y646230I-11675J-11675D01*
G01*
X368230Y337770D02*
X370000Y336000D01*
X310000Y280440D02*
Y287420D01*
X315770Y280497D02*
Y295770D01*
X295920Y266360D02*
X310000Y280440D01*
X299960Y264687D02*
X315770Y280497D01*
X304000Y263014D02*
X322580Y281594D01*
X308040Y261340D02*
X324254Y277554D01*
X325927Y273514D02*
X339100D01*
X312080Y259667D02*
X325284Y272870D01*
X292000Y280000D02*
Y283873D01*
X299700Y285860D02*
X314040Y300200D01*
X299700Y280000D02*
Y285860D01*
X308040Y183960D02*
Y261340D01*
X312080Y197920D02*
Y259667D01*
X316120Y208000D02*
Y257993D01*
X320160Y211244D02*
Y256320D01*
X295920Y226080D02*
Y266360D01*
X290730Y220890D02*
X295920Y226080D01*
X299960Y221960D02*
Y264687D01*
X304000Y184000D02*
Y263014D01*
X322580Y281594D02*
X335754D01*
X342447Y265434D02*
X358850Y281836D01*
X325230Y295500D02*
X330730Y290000D01*
X331000Y297000D02*
Y305500D01*
Y297000D02*
X332230Y295770D01*
X330730Y290000D02*
X336000D01*
X340254Y295770D02*
X342230Y293794D01*
Y288070D02*
Y293794D01*
X335754Y281594D02*
X342230Y288070D01*
X343000Y298737D02*
Y305500D01*
Y298737D02*
X346270Y295467D01*
Y286397D02*
Y295467D01*
X337427Y277554D02*
X346270Y286397D01*
X350770Y285183D02*
Y300197D01*
X339100Y273514D02*
X350770Y285183D01*
X354810Y283510D02*
Y298523D01*
X340774Y269474D02*
X354810Y283510D01*
X332230Y295770D02*
X340254D01*
X318780Y298780D02*
Y344780D01*
X315770Y295770D02*
X318780Y298780D01*
X314040Y300200D02*
Y341360D01*
X310000Y301873D02*
Y339687D01*
X292000Y283873D02*
X310000Y301873D01*
X313010Y342390D02*
X314040Y341360D01*
X308970Y340717D02*
X310000Y339687D01*
X308970Y340717D02*
Y341030D01*
X85500Y348000D02*
X98000Y360500D01*
X85500Y332000D02*
Y348000D01*
X42500Y348000D02*
Y360000D01*
X42649Y348149D02*
X55119D01*
X73315Y374674D02*
X93067Y394427D01*
X73315Y366345D02*
Y374674D01*
X55119Y348149D02*
X73315Y366345D01*
X72119Y338881D02*
Y348149D01*
X92000Y366500D02*
X98000Y360500D01*
X134000Y596500D02*
X166000D01*
X98000Y343500D02*
X131500D01*
X70500Y496000D02*
X77969D01*
X51969Y470000D02*
X61955Y479986D01*
X496230Y543230D02*
Y629720D01*
X21182Y646230D02*
X297250D01*
X3844Y363926D02*
Y630266D01*
X37230Y162070D02*
X39300Y160000D01*
X37230Y162070D02*
Y223580D01*
X37650Y224000D01*
X53770Y170930D02*
X64700Y160000D01*
X53770Y170930D02*
Y210148D01*
X290730Y216110D02*
Y220890D01*
Y216110D02*
X298000Y208840D01*
X50350Y213568D02*
X53770Y210148D01*
X50350Y213568D02*
Y224000D01*
X166281Y434436D02*
Y437560D01*
X85500Y332000D02*
X85500Y332000D01*
Y320000D02*
Y332000D01*
X102500Y320000D02*
X106000Y316500D01*
X122000Y360500D02*
X136512D01*
X110000Y360500D02*
Y364000D01*
X334730Y211134D02*
X340500Y205364D01*
X332160Y182000D02*
X352000D01*
X318756Y205364D02*
X330500D01*
X312080Y197920D02*
X315000Y195000D01*
X298000Y190000D02*
Y208840D01*
X350000Y204864D02*
X350500Y205364D01*
X308040Y183960D02*
X311500Y180500D01*
X325500D01*
X314750Y187500D02*
X326660D01*
X302000Y182000D02*
X304000Y184000D01*
X360000Y318000D02*
Y332000D01*
X351770Y337770D02*
X368230D01*
X343000Y329000D02*
X351770Y337770D01*
X343000Y322500D02*
Y329000D01*
X320160Y211244D02*
X322000Y209404D01*
X326380D01*
X328110Y211134D01*
X316120Y208000D02*
X318756Y205364D01*
X296500Y218500D02*
X299960Y221960D01*
X328110Y211134D02*
X334730D01*
X326660Y187500D02*
X332160Y182000D01*
X495000Y542000D02*
X496230Y543230D01*
X434000Y268000D02*
X444000D01*
X332000Y314000D02*
X342000D01*
X343000Y313000D01*
Y305500D02*
Y313000D01*
X331000Y315000D02*
X332000Y314000D01*
X331000Y315000D02*
Y322500D01*
X77828Y526070D02*
X110838Y493060D01*
X106798Y487851D02*
Y491387D01*
X97397Y500788D02*
X106798Y491387D01*
X95102Y500788D02*
X97397D01*
X106798Y487851D02*
X117324Y477324D01*
X110838Y489525D02*
Y493060D01*
X122283Y477716D02*
Y478079D01*
X110838Y489525D02*
X122283Y478079D01*
X112956Y461960D02*
X116199D01*
X111283Y466000D02*
X117872D01*
X94000Y443004D02*
X112956Y461960D01*
X119284Y470302D02*
Y470717D01*
X74062Y428779D02*
X111283Y466000D01*
X63853Y490230D02*
X84544D01*
X95102Y500788D01*
X49930Y526070D02*
X77828D01*
X62230Y491853D02*
X63853Y490230D01*
X62230Y491853D02*
Y495770D01*
X60000Y498000D02*
X62230Y495770D01*
X7770Y360000D02*
X25500D01*
Y338500D02*
Y348000D01*
X3844Y363926D02*
X7770Y360000D01*
X16000Y568000D02*
X25500D01*
X16000Y556000D02*
X25500D01*
X108500Y596500D02*
X118000D01*
X180000Y362054D02*
Y417095D01*
Y362054D02*
X186284Y355770D01*
X169789Y427307D02*
X180000Y417095D01*
X153172Y400083D02*
X172000Y381255D01*
X43770Y532230D02*
X49930Y526070D01*
X43770Y532230D02*
Y554730D01*
X164485Y443217D02*
X189426Y468157D01*
X154278Y536000D02*
X185386Y504892D01*
Y475431D02*
Y504892D01*
X158828Y448873D02*
X185386Y475431D01*
X152795Y531770D02*
X181346Y503219D01*
Y482705D02*
Y503219D01*
X153172Y454531D02*
X181346Y482705D01*
X158851Y520000D02*
X177306Y501545D01*
Y489978D02*
Y501545D01*
X147515Y460187D02*
X177306Y489978D01*
X157178Y515960D02*
X173266Y499872D01*
Y497253D02*
Y499872D01*
X141858Y465844D02*
X173266Y497253D01*
X156000Y505442D02*
X163071Y498371D01*
X145305Y515960D02*
X157178D01*
X166281Y437560D02*
X170142D01*
X157960Y423522D02*
Y426327D01*
X157930Y426357D02*
X157960Y426327D01*
X153920Y421849D02*
Y424239D01*
X154000Y416000D02*
Y421769D01*
X153920Y421849D02*
X154000Y421769D01*
X42500Y556000D02*
X43770Y554730D01*
X77969Y496000D02*
X84582Y502614D01*
X158000Y338000D02*
X158230Y338230D01*
X134160Y338000D02*
X158000D01*
X131390Y335230D02*
X134160Y338000D01*
X121230Y335230D02*
X131390D01*
X138700Y298000D02*
Y329617D01*
X140852Y331770D01*
X168000D01*
X172000Y335770D01*
Y338000D01*
X156000Y352000D02*
X164000Y344000D01*
X156794Y362195D02*
X187218Y331770D01*
X158467Y366235D02*
X186702Y338000D01*
X141858Y388769D02*
X186628Y344000D01*
X154000Y382341D02*
X186341Y350000D01*
X186284Y355770D02*
X233770D01*
X113300Y327300D02*
X121230Y335230D01*
X113300Y298000D02*
Y327300D01*
X106000Y284726D02*
X112726Y278000D01*
X106000Y284726D02*
Y316500D01*
X186341Y350000D02*
X228000D01*
X160000Y415882D02*
X164485Y411397D01*
X160000Y415882D02*
Y421483D01*
X157960Y423522D02*
X160000Y421483D01*
X162000Y425196D02*
X170142Y417054D01*
X162000Y425196D02*
Y428000D01*
X94000Y436627D02*
Y443004D01*
X186628Y344000D02*
X222000D01*
X186702Y338000D02*
X216000D01*
X187218Y331770D02*
X210000D01*
X308000Y342000D02*
X308970Y341030D01*
X309673Y346040D02*
X313010Y342703D01*
Y342390D02*
Y342703D01*
X64392Y454922D02*
X76097Y443217D01*
X64392Y454922D02*
Y457102D01*
X67283Y406000D02*
X70287D01*
X75683Y411397D01*
X76097D01*
X56014Y405574D02*
X60440Y410000D01*
X63283D01*
X67283Y406000D01*
X64499Y397089D02*
X69370Y401960D01*
X71960D01*
X73920Y400000D01*
X76013D01*
X81754Y405740D01*
X72984Y388603D02*
X75930D01*
X72984D02*
X78381Y394000D01*
X81327D01*
X87411Y400083D01*
X52900Y495400D02*
X53500Y496000D01*
X141858Y465844D02*
Y466169D01*
X107300Y520000D02*
X119070Y508230D01*
X137575D01*
X118000Y540000D02*
Y547500D01*
X137575Y508230D02*
X145305Y515960D01*
X132700Y520000D02*
X158851D01*
X138000Y536000D02*
X154278D01*
X134000Y540000D02*
X138000Y536000D01*
X134000Y540000D02*
Y547500D01*
X155951Y540040D02*
X189426Y506566D01*
X151960Y540040D02*
X155951D01*
X150000Y542000D02*
X151960Y540040D01*
X150000Y542000D02*
Y547500D01*
X118000Y540000D02*
X126230Y531770D01*
X152795D01*
X42500Y556000D02*
Y568000D01*
X34000Y622000D02*
X42500Y613500D01*
Y568000D02*
Y613500D01*
X118000Y564500D02*
Y579500D01*
X134000Y564500D02*
Y579500D01*
X150000Y564500D02*
Y579500D01*
X166000Y564499D02*
Y579500D01*
X166000Y579500D01*
X110000Y360500D02*
X121999D01*
X122000Y360500D01*
X91509Y394427D02*
X93067D01*
X60963Y376582D02*
Y376583D01*
X43993Y393553D02*
X52478Y385068D01*
X60963Y376583D01*
X110038Y377456D02*
X115494Y372000D01*
X34000Y296000D02*
X45500D01*
X24950Y276000D02*
Y289050D01*
X32000Y470000D02*
X51969D01*
X32000Y495400D02*
X52900D01*
X42500Y360000D02*
X42649Y360149D01*
X98000Y343500D02*
X100000D01*
X92000Y382045D02*
X98724Y388769D01*
X98000Y343500D02*
X98000Y343500D01*
X100000Y374000D02*
X110000Y364000D01*
X100000Y374000D02*
Y378731D01*
X104382Y383113D01*
X60963Y376582D02*
X67545Y370000D01*
X20230Y430970D02*
X32000Y419200D01*
X20230Y430970D02*
Y449476D01*
X56506Y417054D02*
X70440D01*
X45222Y405770D02*
X56506Y417054D01*
X37546Y400000D02*
X43993Y393553D01*
X18230Y405770D02*
X45222D01*
X18000Y406000D02*
X18230Y405770D01*
X20230Y449476D02*
X27125Y456370D01*
X50685D01*
X47821Y428779D02*
X74062D01*
X32000Y444600D02*
X47821Y428779D01*
X68000Y440000D02*
X70440Y437560D01*
X46000Y440000D02*
X68000D01*
X36000Y256000D02*
X37650Y257650D01*
X49770Y261770D02*
X50350Y262350D01*
Y276000D01*
X158828Y405740D02*
X166000Y398569D01*
X25500Y556000D02*
Y568000D01*
X50685Y456370D02*
X72475Y478160D01*
X75094D01*
X93067Y460187D01*
X53500Y496000D02*
Y498000D01*
Y510000D01*
X136201Y471501D02*
X136202D01*
X151050Y486350D01*
X53500Y498000D02*
X60000D01*
X147500Y314500D02*
Y324000D01*
X189426Y468157D02*
Y506566D01*
X303340Y346660D02*
Y352850D01*
Y346660D02*
X303960Y346040D01*
X309673D01*
X303340Y335150D02*
Y341340D01*
X304000Y342000D01*
X308000D01*
X136512Y360500D02*
X143185Y353826D01*
X146130D01*
X154499Y362195D01*
X156794D01*
X136201Y383113D02*
X153079Y366235D01*
X158467D01*
X147515Y394427D02*
X154000Y387941D01*
Y382341D02*
Y387941D01*
X166000Y596500D02*
X166000Y596500D01*
X118000Y596500D02*
X134000D01*
X37650Y257650D02*
Y276000D01*
X130544Y477158D02*
X138000Y484614D01*
X157516Y426357D02*
X157930D01*
X124650Y470650D02*
X160863Y434436D01*
X166281D01*
X119284Y470302D02*
X159189Y430396D01*
X159604D01*
X162000Y428000D01*
X117872Y466000D02*
X157516Y426357D01*
X116199Y461960D02*
X153920Y424239D01*
X92000Y366500D02*
Y382045D01*
X112726Y278000D02*
X224000D01*
X83230Y111230D02*
Y169516D01*
X75800Y103800D02*
X83230Y111230D01*
X62500Y103800D02*
X75800D01*
X79190Y121190D02*
Y171190D01*
X73570Y115570D02*
X79190Y121190D01*
X49270Y115570D02*
X73570D01*
X37500Y103800D02*
X49270Y115570D01*
X62500Y103800D02*
X83715Y82585D01*
Y68125D02*
Y82585D01*
Y68125D02*
X97610Y54230D01*
X107360D01*
X121255Y68125D01*
Y99200D01*
X137625Y115570D01*
X155730D01*
X167500Y103800D01*
X131568D02*
X142500D01*
X125295Y97527D02*
X131568Y103800D01*
X125295Y46765D02*
Y97527D01*
X107360Y28830D02*
X125295Y46765D01*
X97610Y28830D02*
X107360D01*
X79675Y46765D02*
X97610Y28830D01*
X79675Y46765D02*
Y80912D01*
X68557Y92030D02*
X79675Y80912D01*
X49270Y92030D02*
X68557D01*
X37500Y103800D02*
X49270Y92030D01*
X83230Y169516D02*
X93713Y180000D01*
X79190Y171190D02*
X92040Y184040D01*
X93713Y180000D02*
X132000D01*
X138700Y186700D02*
Y202000D01*
X132000Y180000D02*
X134230Y182230D01*
Y182390D01*
X137610Y185770D01*
X137770D01*
X138700Y186700D01*
X113300Y185300D02*
Y202000D01*
X112040Y184040D02*
X113300Y185300D01*
X92040Y184040D02*
X112040D01*
X324254Y277554D02*
X337427D01*
X325284Y272870D02*
X325927Y273514D01*
X316120Y257993D02*
X327600Y269474D01*
X340774D01*
X320160Y256320D02*
X329274Y265434D01*
X342447D01*
X353999Y311999D02*
X360000Y318000D01*
X350770Y300197D02*
X359843Y309270D01*
X358850Y281836D02*
Y296850D01*
X405050Y291750D02*
Y298950D01*
X358850Y296850D02*
X363190Y301190D01*
X402810D01*
X405050Y298950D01*
X359843Y309270D02*
X367270D01*
X370000Y312000D01*
X416030Y305230D02*
X421750Y310950D01*
X354810Y298523D02*
X361517Y305230D01*
X416030D01*
X305480Y590553D02*
X307103Y588930D01*
X372897D01*
X374520Y590553D01*
Y638000D01*
X382750Y646230D01*
X479719D01*
X305480Y590553D02*
Y638000D01*
X297250Y646230D02*
X305480Y638000D01*
X268000Y11000D02*
X273078D01*
X270539D01*
Y26235D01*
X268000Y23696D01*
D12*
X422250Y310950D02*
D03*
Y323650D02*
D03*
Y336350D02*
D03*
Y349050D02*
D03*
X460500Y330000D02*
D03*
D13*
X405050Y291750D02*
D03*
X392350D02*
D03*
X379650D02*
D03*
X366950D02*
D03*
X386000Y330000D02*
D03*
X346000Y20000D02*
D03*
X442000D02*
D03*
D14*
X110000Y343500D02*
D03*
Y360500D02*
D03*
X150000Y564500D02*
D03*
Y547500D02*
D03*
X134000Y564500D02*
D03*
Y547500D02*
D03*
X118000Y564500D02*
D03*
Y547500D02*
D03*
X122000Y343500D02*
D03*
Y360500D02*
D03*
X98000Y360500D02*
D03*
Y343500D02*
D03*
X343000Y305500D02*
D03*
Y322500D02*
D03*
X331000Y322500D02*
D03*
Y305500D02*
D03*
X118000Y596500D02*
D03*
Y579500D02*
D03*
X134000Y596500D02*
D03*
Y579500D02*
D03*
X150000Y596500D02*
D03*
Y579500D02*
D03*
X166000Y547500D02*
D03*
Y564499D02*
D03*
X166000Y579500D02*
D03*
Y596500D02*
D03*
D15*
X289250Y397350D02*
D03*
X390750D02*
D03*
D16*
X340000Y618100D02*
D03*
D17*
X53500Y498000D02*
D03*
X70500D02*
D03*
X147500Y324000D02*
D03*
X164500D02*
D03*
X55119Y348149D02*
D03*
X72119D02*
D03*
X42500Y360000D02*
D03*
X25500D02*
D03*
Y348000D02*
D03*
X42500D02*
D03*
X102500Y332000D02*
D03*
X85500D02*
D03*
X85500Y320000D02*
D03*
X102500D02*
D03*
X45500Y296000D02*
D03*
X62500D02*
D03*
X45500Y204000D02*
D03*
X62500D02*
D03*
X147500Y180000D02*
D03*
X164500D02*
D03*
X70500Y510000D02*
D03*
X53500D02*
D03*
X42500Y568000D02*
D03*
X25500D02*
D03*
Y556000D02*
D03*
X42500D02*
D03*
D18*
X84582Y502614D02*
D03*
X96603Y490593D02*
D03*
X61955Y479986D02*
D03*
X73976Y467966D02*
D03*
X156000Y352000D02*
D03*
X143979Y364021D02*
D03*
X51990Y470010D02*
D03*
X64011Y457989D02*
D03*
D19*
X163071Y498371D02*
D03*
X151050Y486350D02*
D03*
X43993Y393553D02*
D03*
X56014Y405574D02*
D03*
X52478Y385068D02*
D03*
X64499Y397089D02*
D03*
X60963Y376582D02*
D03*
X72984Y388603D02*
D03*
D20*
X70440Y417054D02*
D03*
X76097Y411397D02*
D03*
X81754Y405740D02*
D03*
X87411Y400083D02*
D03*
X93067Y394427D02*
D03*
X98724Y388769D02*
D03*
X104382Y383113D02*
D03*
X110038Y377456D02*
D03*
X130544Y477158D02*
D03*
X136201Y471501D02*
D03*
X141858Y465844D02*
D03*
X147515Y460187D02*
D03*
X153172Y454531D02*
D03*
X158828Y448873D02*
D03*
X164485Y443217D02*
D03*
X170142Y437560D02*
D03*
D21*
X130544Y377456D02*
D03*
X136201Y383113D02*
D03*
X141858Y388769D02*
D03*
X147515Y394427D02*
D03*
X153172Y400083D02*
D03*
X158828Y405740D02*
D03*
X164485Y411397D02*
D03*
X170142Y417054D02*
D03*
X70440Y437560D02*
D03*
X76097Y443217D02*
D03*
X81754Y448873D02*
D03*
X87411Y454531D02*
D03*
X93067Y460187D02*
D03*
X98724Y465844D02*
D03*
X104382Y471501D02*
D03*
X110038Y477158D02*
D03*
D22*
X164100Y298000D02*
D03*
X138700D02*
D03*
X113300D02*
D03*
X87900D02*
D03*
X164100Y202000D02*
D03*
X138700D02*
D03*
X113300D02*
D03*
X87900D02*
D03*
D23*
X303340Y352850D02*
D03*
Y335150D02*
D03*
D24*
X284285Y352850D02*
D03*
Y335150D02*
D03*
D25*
X421500Y110000D02*
D03*
X462500D02*
D03*
X421500Y72000D02*
D03*
X462500D02*
D03*
D26*
X63050Y224000D02*
D03*
X50350D02*
D03*
X37650D02*
D03*
X24950D02*
D03*
Y276000D02*
D03*
X37650D02*
D03*
X50350D02*
D03*
D27*
X63050D02*
D03*
D28*
X112985Y84000D02*
D03*
X91985D02*
D03*
X112500Y138500D02*
D03*
X91500D02*
D03*
D29*
X92985Y124950D02*
D03*
Y99050D02*
D03*
X102485D02*
D03*
X111985D02*
D03*
Y124950D02*
D03*
D30*
X164500Y180000D02*
X166100Y181600D01*
X164100D02*
Y202000D01*
X92985Y81000D02*
Y99050D01*
Y124950D02*
X94035Y126000D01*
X102485D01*
X102485Y94500D02*
X112985Y84000D01*
X102485Y94500D02*
Y99050D01*
X421820Y505500D02*
X422820Y506499D01*
X63050Y267900D02*
Y276000D01*
X156000Y298000D02*
X164100D01*
X78000Y202000D02*
X87900D01*
X16000Y224000D02*
X24950D01*
X45500Y194500D02*
Y204000D01*
X164100Y202000D02*
Y217900D01*
X160500Y221500D02*
X164100Y217900D01*
X65550Y221500D02*
X160500D01*
X92985Y108500D02*
X96485Y112000D01*
X63050Y204550D02*
Y224000D01*
X62500Y204000D02*
X63050Y204550D01*
Y224000D02*
X65550Y221500D01*
X92985Y99050D02*
Y108500D01*
X91985Y80000D02*
X92985Y81000D01*
X63050Y276000D02*
Y295450D01*
X62500Y296000D02*
X63050Y295450D01*
X164100Y298000D02*
Y323600D01*
X164500Y324000D01*
X78000Y298000D02*
X87900D01*
X96485Y112000D02*
X111985D01*
Y124950D01*
X162500Y167100D02*
Y180000D01*
X155400Y160000D02*
X162500Y167100D01*
X91100Y138399D02*
X91500Y138000D01*
X91100Y138399D02*
Y165592D01*
X99008Y173500D01*
X147500Y180000D02*
X147500Y180000D01*
X140000Y180000D02*
X147500D01*
X99008Y173500D02*
X135894D01*
X138894Y170500D01*
X144900D01*
X155400Y160000D01*
X92985Y124950D02*
Y136515D01*
X111985Y124950D02*
X113035Y126000D01*
X119864D01*
X122664Y128800D01*
X142500D01*
X112500Y138000D02*
X124000D01*
X130000Y144000D01*
Y160000D01*
D31*
X285710Y214031D02*
X290000Y209741D01*
Y184454D02*
Y209741D01*
Y184454D02*
X306454Y168000D01*
X283750Y224000D02*
X285710Y222040D01*
Y214031D02*
Y222040D01*
X306454Y168000D02*
X330000D01*
X263500Y224000D02*
X283750D01*
D32*
X422820Y506499D02*
Y584500D01*
X348142Y431822D02*
X421820Y505500D01*
X348000Y431680D02*
X348142Y431822D01*
X348000Y378000D02*
Y431680D01*
D33*
X495000Y344000D02*
Y542000D01*
Y550000D01*
X466000D02*
X474000D01*
X460000D02*
X466000D01*
X110000Y503999D02*
X126000Y487999D01*
Y483999D02*
Y487999D01*
X96603Y490593D02*
X110038Y477158D01*
X53500Y305000D02*
X62500Y296000D01*
X16000Y305000D02*
X53500D01*
X5000Y316000D02*
X16000Y305000D01*
X5000Y316000D02*
Y343000D01*
X14000Y352000D01*
X9114Y370886D02*
X14000Y366000D01*
X9114Y370886D02*
Y497914D01*
X32000Y520800D01*
X126191Y383931D02*
Y388191D01*
Y383931D02*
X130544Y379578D01*
Y377456D02*
Y379578D01*
X70500Y510000D02*
Y517500D01*
X67200Y520800D02*
X70500Y517500D01*
X32000Y520800D02*
X67200D01*
X166000Y537445D02*
Y547500D01*
Y537445D02*
X194696Y508748D01*
Y465974D02*
Y508748D01*
X183322Y454600D02*
X194696Y465974D01*
X183322Y441322D02*
Y454600D01*
X73976Y467966D02*
X87411Y454531D01*
X130544Y377456D02*
X143979Y364021D01*
X130544Y377456D02*
X130544D01*
X126191Y388191D02*
X144493Y406493D01*
Y424000D01*
X474000Y550000D02*
X495000D01*
X183322Y441322D02*
X280000D01*
D34*
X122283Y473751D02*
Y477716D01*
X119284Y470717D02*
Y475365D01*
X117324Y477324D02*
X119284Y475365D01*
X124650Y470650D02*
Y471385D01*
X122283Y473751D02*
X124650Y471385D01*
D35*
X142500Y32000D02*
D03*
X167500D02*
D03*
X37500D02*
D03*
X62500D02*
D03*
X244500D02*
D03*
X219500D02*
D03*
D36*
X142500Y103800D02*
D03*
X167500D02*
D03*
X142500Y128800D02*
D03*
X37500Y103800D02*
D03*
X62500D02*
D03*
X37500Y128800D02*
D03*
X132700Y520000D02*
D03*
X107300D02*
D03*
X64700Y160000D02*
D03*
X39300D02*
D03*
X155400Y160000D02*
D03*
X130000D02*
D03*
X104600D02*
D03*
X32000Y520800D02*
D03*
Y495400D02*
D03*
Y470000D02*
D03*
Y444600D02*
D03*
Y419200D02*
D03*
X219500Y103800D02*
D03*
X102485Y40600D02*
D03*
Y66000D02*
D03*
D37*
X167500Y128800D02*
D03*
X62500D02*
D03*
D38*
X459500Y254000D02*
D03*
Y170000D02*
D03*
D39*
X424500Y254000D02*
D03*
Y170000D02*
D03*
X34000Y622000D02*
D03*
X79000D02*
D03*
X249678Y148322D02*
D03*
Y287678D02*
D03*
D40*
X21450Y597100D02*
D03*
X91550D02*
D03*
D41*
X244500Y103800D02*
D03*
D42*
X214322Y183678D02*
D03*
D43*
Y252322D02*
D03*
D44*
X458000Y330000D02*
D03*
X386000Y344000D02*
D03*
Y336000D02*
D03*
Y328000D02*
D03*
Y320000D02*
D03*
Y312000D02*
D03*
X402000Y344000D02*
D03*
X394000D02*
D03*
X378000D02*
D03*
X370000D02*
D03*
X394000Y336000D02*
D03*
X402000D02*
D03*
Y328000D02*
D03*
X394000D02*
D03*
Y320000D02*
D03*
X402000D02*
D03*
Y312000D02*
D03*
X394000D02*
D03*
X370000Y336000D02*
D03*
X310000Y287420D02*
D03*
X328000Y256000D02*
D03*
X292000Y280000D02*
D03*
X299700D02*
D03*
X336000Y256000D02*
D03*
X328000Y248000D02*
D03*
X336000D02*
D03*
X325230Y295500D02*
D03*
X336000Y290000D02*
D03*
X72119Y338881D02*
D03*
X112985Y84000D02*
D03*
X102485Y126000D02*
D03*
X250000Y54000D02*
D03*
Y70000D02*
D03*
X258000Y78000D02*
D03*
Y70000D02*
D03*
Y62000D02*
D03*
X250000Y78000D02*
D03*
X258000Y54000D02*
D03*
X250000Y62000D02*
D03*
X206000Y54000D02*
D03*
Y70000D02*
D03*
X214000Y78000D02*
D03*
Y70000D02*
D03*
Y62000D02*
D03*
X206000Y78000D02*
D03*
X214000Y54000D02*
D03*
X206000Y62000D02*
D03*
X322000Y46000D02*
D03*
X330000D02*
D03*
X338000D02*
D03*
X346000D02*
D03*
X354000D02*
D03*
X362000D02*
D03*
X370000D02*
D03*
X314000Y44000D02*
D03*
X310000Y38000D02*
D03*
X308000Y30000D02*
D03*
X307000Y22000D02*
D03*
X308000Y14000D02*
D03*
X310000Y6000D02*
D03*
X382000D02*
D03*
X384000Y14000D02*
D03*
X385000Y22000D02*
D03*
X384000Y30000D02*
D03*
X382000Y38000D02*
D03*
X378000Y44000D02*
D03*
X474000D02*
D03*
X478000Y38000D02*
D03*
X480000Y30000D02*
D03*
X481000Y22000D02*
D03*
X480000Y14000D02*
D03*
X478000Y6000D02*
D03*
X406000D02*
D03*
X404000Y14000D02*
D03*
X403000Y22000D02*
D03*
X404000Y30000D02*
D03*
X406000Y38000D02*
D03*
X410000Y44000D02*
D03*
X466000Y46000D02*
D03*
X458000D02*
D03*
X450000D02*
D03*
X442000D02*
D03*
X434000D02*
D03*
X426000D02*
D03*
X418000D02*
D03*
X468000Y76000D02*
D03*
X460000Y84000D02*
D03*
X468000Y60000D02*
D03*
X460000Y76000D02*
D03*
Y68000D02*
D03*
Y60000D02*
D03*
X468000Y68000D02*
D03*
Y84000D02*
D03*
Y114000D02*
D03*
X460000Y122000D02*
D03*
X468000Y98000D02*
D03*
X460000Y114000D02*
D03*
Y106000D02*
D03*
Y98000D02*
D03*
X468000Y106000D02*
D03*
Y122000D02*
D03*
X424000Y114000D02*
D03*
X416000Y122000D02*
D03*
X424000Y98000D02*
D03*
X416000Y114000D02*
D03*
Y106000D02*
D03*
Y98000D02*
D03*
X424000Y106000D02*
D03*
Y122000D02*
D03*
Y76000D02*
D03*
X416000Y84000D02*
D03*
X424000Y60000D02*
D03*
X416000Y76000D02*
D03*
Y68000D02*
D03*
Y60000D02*
D03*
X424000Y68000D02*
D03*
Y84000D02*
D03*
X249678Y160322D02*
D03*
X237678Y148322D02*
D03*
X241678Y156322D02*
D03*
X241678Y140322D02*
D03*
X249678Y136322D02*
D03*
X257678Y140322D02*
D03*
X261678Y148322D02*
D03*
X257678Y156322D02*
D03*
X240506Y279192D02*
D03*
X237678Y287678D02*
D03*
X248991Y276364D02*
D03*
X257477Y279192D02*
D03*
X260305Y287678D02*
D03*
X214322Y264322D02*
D03*
X222322Y260322D02*
D03*
X206322Y260322D02*
D03*
X202322Y252322D02*
D03*
X206322Y244322D02*
D03*
X214322Y240322D02*
D03*
X222322Y244322D02*
D03*
X214322Y195678D02*
D03*
X222322Y191678D02*
D03*
X206322Y191678D02*
D03*
X202322Y183678D02*
D03*
X206322Y175678D02*
D03*
X214322Y171678D02*
D03*
X222322Y175678D02*
D03*
X252500Y95800D02*
D03*
X244500Y91800D02*
D03*
X236500Y95800D02*
D03*
X236500Y111800D02*
D03*
X256500Y103800D02*
D03*
X252500Y111800D02*
D03*
X244500Y115800D02*
D03*
X227500Y95800D02*
D03*
X219500Y91800D02*
D03*
X211500Y95800D02*
D03*
X207500Y103800D02*
D03*
X211500Y111800D02*
D03*
X227500Y111800D02*
D03*
X219500Y115800D02*
D03*
X373000Y195000D02*
D03*
X434000Y268000D02*
D03*
X354000Y144000D02*
D03*
X346000D02*
D03*
X338000D02*
D03*
X330000Y136000D02*
D03*
X346000D02*
D03*
X362000D02*
D03*
Y128000D02*
D03*
X354000D02*
D03*
X346000D02*
D03*
X338000D02*
D03*
X330000D02*
D03*
Y120000D02*
D03*
X346000D02*
D03*
X362000D02*
D03*
X354000Y112000D02*
D03*
X346000D02*
D03*
X338000D02*
D03*
X362000Y60000D02*
D03*
Y68000D02*
D03*
Y76000D02*
D03*
X354000Y84000D02*
D03*
Y68000D02*
D03*
Y52000D02*
D03*
X346000D02*
D03*
Y60000D02*
D03*
Y68000D02*
D03*
Y76000D02*
D03*
Y84000D02*
D03*
X338000D02*
D03*
Y68000D02*
D03*
Y52000D02*
D03*
X330000Y60000D02*
D03*
Y68000D02*
D03*
Y76000D02*
D03*
X424500Y182000D02*
D03*
X432500Y178000D02*
D03*
X436500Y170000D02*
D03*
X416500Y178000D02*
D03*
X412500Y170000D02*
D03*
X416500Y162000D02*
D03*
X424500Y158000D02*
D03*
X432500Y162000D02*
D03*
X459500Y182000D02*
D03*
X467500Y178000D02*
D03*
X451500Y178000D02*
D03*
X447500Y170000D02*
D03*
X451500Y162000D02*
D03*
X459500Y158000D02*
D03*
X467500Y162000D02*
D03*
X471500Y170000D02*
D03*
X459500Y266000D02*
D03*
X467500Y262000D02*
D03*
X471500Y254000D02*
D03*
X459500Y242000D02*
D03*
X467500Y246000D02*
D03*
X102500Y332000D02*
D03*
X280000Y441322D02*
D03*
X365500Y266600D02*
D03*
X360000Y256000D02*
D03*
X352000D02*
D03*
X340500Y205364D02*
D03*
X330500D02*
D03*
X352000Y216000D02*
D03*
X360000D02*
D03*
X344000D02*
D03*
X368000D02*
D03*
Y224000D02*
D03*
X350500Y205364D02*
D03*
X314750Y187500D02*
D03*
X325500Y180500D02*
D03*
X298000Y190000D02*
D03*
X302000Y182000D02*
D03*
X315000Y195000D02*
D03*
X344000Y256000D02*
D03*
X360000Y332000D02*
D03*
X378000Y320000D02*
D03*
Y312000D02*
D03*
X328000Y224000D02*
D03*
Y240000D02*
D03*
Y232000D02*
D03*
X352000Y224000D02*
D03*
X296500Y218500D02*
D03*
X352000Y182000D02*
D03*
X474000Y550000D02*
D03*
X466000D02*
D03*
X458000D02*
D03*
X263500Y224000D02*
D03*
X330000Y168000D02*
D03*
X110000Y503999D02*
D03*
X126000Y483999D02*
D03*
X70500Y498000D02*
D03*
Y510000D02*
D03*
X63050Y267900D02*
D03*
X156000Y298000D02*
D03*
X14000Y352000D02*
D03*
X25500Y338500D02*
D03*
X14000Y366000D02*
D03*
X16000Y568000D02*
D03*
X16000Y556000D02*
D03*
X108500Y596500D02*
D03*
X172000Y381255D02*
D03*
X96603Y490593D02*
D03*
X73976Y467966D02*
D03*
X156000Y505442D02*
D03*
X183322Y441322D02*
D03*
X158230Y338230D02*
D03*
X164000Y344000D02*
D03*
X370000Y352000D02*
D03*
X378000D02*
D03*
X386000D02*
D03*
X394000D02*
D03*
X402000D02*
D03*
X378000Y336000D02*
D03*
Y328000D02*
D03*
X233770Y355770D02*
D03*
X169789Y427307D02*
D03*
X154000Y416000D02*
D03*
X94000Y436627D02*
D03*
X81754Y448873D02*
D03*
X222000Y344000D02*
D03*
X216000Y338000D02*
D03*
X210000Y331770D02*
D03*
X318780Y344780D02*
D03*
X482000Y314000D02*
D03*
Y322000D02*
D03*
Y330000D02*
D03*
Y338000D02*
D03*
Y346000D02*
D03*
X474000D02*
D03*
Y338000D02*
D03*
Y330000D02*
D03*
Y322000D02*
D03*
Y314000D02*
D03*
X466000D02*
D03*
Y322000D02*
D03*
Y330000D02*
D03*
Y338000D02*
D03*
Y346000D02*
D03*
X458000D02*
D03*
Y338000D02*
D03*
Y322000D02*
D03*
Y314000D02*
D03*
X450000D02*
D03*
Y322000D02*
D03*
Y330000D02*
D03*
Y338000D02*
D03*
Y346000D02*
D03*
X442000D02*
D03*
Y338000D02*
D03*
Y330000D02*
D03*
Y322000D02*
D03*
Y314000D02*
D03*
X336000Y232000D02*
D03*
Y224000D02*
D03*
Y240000D02*
D03*
X344000Y232000D02*
D03*
Y224000D02*
D03*
Y240000D02*
D03*
Y248000D02*
D03*
X78000Y202000D02*
D03*
X16000Y224000D02*
D03*
X45500Y194500D02*
D03*
X56014Y405574D02*
D03*
X64499Y397089D02*
D03*
X72984Y388603D02*
D03*
X131500Y343500D02*
D03*
X115494Y372000D02*
D03*
X34000Y296000D02*
D03*
X24950Y289050D02*
D03*
X67545Y370000D02*
D03*
X64011Y457989D02*
D03*
X37546Y400000D02*
D03*
X18000Y406000D02*
D03*
X46000Y440000D02*
D03*
X36000Y256000D02*
D03*
X49770Y261770D02*
D03*
X166000Y398569D02*
D03*
X172000Y338000D02*
D03*
X78000Y298000D02*
D03*
X147500Y314500D02*
D03*
X352000Y248000D02*
D03*
Y240000D02*
D03*
Y232000D02*
D03*
X360000Y224000D02*
D03*
Y232000D02*
D03*
Y240000D02*
D03*
Y248000D02*
D03*
X368000D02*
D03*
Y240000D02*
D03*
Y232000D02*
D03*
X228000Y350000D02*
D03*
X368000Y256000D02*
D03*
X138000Y484614D02*
D03*
X144493Y424000D02*
D03*
X386000Y390000D02*
D03*
Y398000D02*
D03*
Y406000D02*
D03*
Y414000D02*
D03*
X394000D02*
D03*
Y406000D02*
D03*
Y398000D02*
D03*
Y390000D02*
D03*
X402000D02*
D03*
Y398000D02*
D03*
Y406000D02*
D03*
Y414000D02*
D03*
X410000D02*
D03*
Y406000D02*
D03*
Y390000D02*
D03*
Y398000D02*
D03*
X330000Y144000D02*
D03*
X338000Y136000D02*
D03*
Y120000D02*
D03*
X330000Y112000D02*
D03*
X362000D02*
D03*
X354000Y120000D02*
D03*
Y136000D02*
D03*
X362000Y144000D02*
D03*
X338000Y60000D02*
D03*
X330000Y52000D02*
D03*
Y84000D02*
D03*
X338000Y76000D02*
D03*
X354000D02*
D03*
X362000Y84000D02*
D03*
X354000Y60000D02*
D03*
X362000Y52000D02*
D03*
X402000Y264000D02*
D03*
X140000Y180000D02*
D03*
X353999Y311999D02*
D03*
D45*
X422820Y506499D02*
D03*
X348142Y431822D02*
D03*
X348000Y378000D02*
D03*
D46*
X422820Y584500D02*
D03*
M02*
