%FSLAX44Y44*%
%MOMM*%
G71*
G01*
G75*
G04 Layer_Color=8388736*
%ADD10C,0.4000*%
%ADD11C,0.2540*%
%ADD12R,1.1500X0.7000*%
%ADD13R,0.7000X1.1500*%
%ADD14R,1.0000X1.1000*%
%ADD15R,5.3300X5.5900*%
%ADD16R,6.3500X5.2800*%
%ADD17R,1.1000X1.0000*%
G04:AMPARAMS|DCode=18|XSize=1mm|YSize=1.1mm|CornerRadius=0mm|HoleSize=0mm|Usage=FLASHONLY|Rotation=45.000|XOffset=0mm|YOffset=0mm|HoleType=Round|Shape=Rectangle|*
%AMROTATEDRECTD18*
4,1,4,0.0354,-0.7425,-0.7425,0.0354,-0.0354,0.7425,0.7425,-0.0354,0.0354,-0.7425,0.0*
%
%ADD18ROTATEDRECTD18*%

G04:AMPARAMS|DCode=19|XSize=1mm|YSize=1.1mm|CornerRadius=0mm|HoleSize=0mm|Usage=FLASHONLY|Rotation=135.000|XOffset=0mm|YOffset=0mm|HoleType=Round|Shape=Rectangle|*
%AMROTATEDRECTD19*
4,1,4,0.7425,0.0354,-0.0354,-0.7425,-0.7425,-0.0354,0.0354,0.7425,0.7425,0.0354,0.0*
%
%ADD19ROTATEDRECTD19*%

G04:AMPARAMS|DCode=20|XSize=0.5mm|YSize=1.2mm|CornerRadius=0mm|HoleSize=0mm|Usage=FLASHONLY|Rotation=135.000|XOffset=0mm|YOffset=0mm|HoleType=Round|Shape=Rectangle|*
%AMROTATEDRECTD20*
4,1,4,0.6010,0.2475,-0.2475,-0.6010,-0.6010,-0.2475,0.2475,0.6010,0.6010,0.2475,0.0*
%
%ADD20ROTATEDRECTD20*%

G04:AMPARAMS|DCode=21|XSize=0.5mm|YSize=1.2mm|CornerRadius=0mm|HoleSize=0mm|Usage=FLASHONLY|Rotation=225.000|XOffset=0mm|YOffset=0mm|HoleType=Round|Shape=Rectangle|*
%AMROTATEDRECTD21*
4,1,4,-0.2475,0.6010,0.6010,-0.2475,0.2475,-0.6010,-0.6010,0.2475,-0.2475,0.6010,0.0*
%
%ADD21ROTATEDRECTD21*%

%ADD22O,0.8000X3.0000*%
%ADD23R,0.7620X1.0100*%
%ADD24R,2.2870X1.0100*%
%ADD25R,1.8000X3.7000*%
%ADD26R,0.6000X1.8000*%
G04:AMPARAMS|DCode=27|XSize=0.6mm|YSize=1.8mm|CornerRadius=0.15mm|HoleSize=0mm|Usage=FLASHONLY|Rotation=0.000|XOffset=0mm|YOffset=0mm|HoleType=Round|Shape=RoundedRectangle|*
%AMROUNDEDRECTD27*
21,1,0.6000,1.5000,0,0,0.0*
21,1,0.3000,1.8000,0,0,0.0*
1,1,0.3000,0.1500,-0.7500*
1,1,0.3000,-0.1500,-0.7500*
1,1,0.3000,-0.1500,0.7500*
1,1,0.3000,0.1500,0.7500*
%
%ADD27ROUNDEDRECTD27*%
%ADD28R,1.1000X1.5000*%
%ADD29R,0.6000X0.9000*%
%ADD30C,0.6000*%
%ADD31C,0.4500*%
%ADD32C,1.0000*%
%ADD33C,0.5000*%
%ADD34C,0.1500*%
%ADD35C,0.8000*%
%ADD36C,1.8000*%
%ADD37R,1.8000X1.8000*%
%ADD38R,1.4000X1.4000*%
%ADD39C,1.4000*%
%ADD40C,1.7000*%
%ADD41R,1.8000X1.8000*%
%ADD42P,1.9799X4X360.0*%
%ADD43P,1.9799X4X90.0*%
%ADD44C,0.6000*%
%ADD45C,1.0000*%
%ADD46C,0.9000*%
%ADD47R,1.4000X1.3900*%
%ADD48R,4.8600X3.3600*%
%ADD49R,1.5000X1.0000*%
%ADD50R,1.0000X0.9000*%
%ADD51R,1.6000X1.8000*%
%ADD52O,1.5500X0.2500*%
%ADD53R,1.5500X0.2500*%
%ADD54R,0.2500X1.5500*%
%ADD55R,4.6000X4.6000*%
G04:AMPARAMS|DCode=56|XSize=0.76mm|YSize=1.27mm|CornerRadius=0mm|HoleSize=0mm|Usage=FLASHONLY|Rotation=315.000|XOffset=0mm|YOffset=0mm|HoleType=Round|Shape=Rectangle|*
%AMROTATEDRECTD56*
4,1,4,-0.7177,-0.1803,0.1803,0.7177,0.7177,0.1803,-0.1803,-0.7177,-0.7177,-0.1803,0.0*
%
%ADD56ROTATEDRECTD56*%

%ADD57R,2.2000X1.6000*%
%ADD58R,2.0000X3.5000*%
%ADD59R,0.9000X0.6900*%
%ADD60R,0.9900X0.6900*%
%ADD61R,0.6900X0.9000*%
%ADD62R,0.6900X0.9900*%
%ADD63R,1.4000X1.4000*%
%ADD64R,1.6000X2.9000*%
%ADD65R,1.5000X1.1000*%
%ADD66R,1.8000X1.6000*%
%ADD67R,2.9000X1.6000*%
%ADD68R,3.8100X4.2400*%
%ADD69C,0.1600*%
%ADD70C,0.1800*%
%ADD71C,0.3000*%
%ADD72C,0.2000*%
%ADD73C,0.2500*%
%ADD74C,0.1000*%
%ADD75C,0.1270*%
G36*
X473282Y35939D02*
X475390Y30849D01*
X476676Y25492D01*
X477108Y20000D01*
X476676Y14508D01*
X475390Y9151D01*
X473282Y4061D01*
X472831Y3327D01*
X472790Y3350D01*
X411212D01*
X411167Y3326D01*
X410718Y4059D01*
X408609Y9149D01*
X407323Y14506D01*
X406891Y19998D01*
X407323Y25490D01*
X408609Y30847D01*
X410718Y35937D01*
X411169Y36674D01*
X411214Y36650D01*
X472788D01*
X472786Y36649D01*
X472790Y36650D01*
X472788D01*
X472831Y36674D01*
X473282Y35939D01*
D02*
G37*
G36*
X377282D02*
X379390Y30849D01*
X380676Y25492D01*
X381108Y20000D01*
X380676Y14508D01*
X379390Y9151D01*
X377282Y4061D01*
X376832Y3327D01*
X376790Y3350D01*
X315212D01*
X315167Y3326D01*
X314718Y4059D01*
X312609Y9149D01*
X311323Y14506D01*
X310891Y19998D01*
X311323Y25490D01*
X312609Y30847D01*
X314718Y35937D01*
X315169Y36674D01*
X315214Y36650D01*
X376788D01*
X376786Y36649D01*
X376790Y36650D01*
X376788D01*
X376832Y36674D01*
X377282Y35939D01*
D02*
G37*
G36*
X410000Y338500D02*
X407500D01*
Y307500D01*
X364500D01*
Y338500D01*
X362000D01*
Y359500D01*
X410000D01*
Y338500D01*
D02*
G37*
G36*
X490000Y306000D02*
X469000D01*
Y308500D01*
X438000D01*
Y351500D01*
X469000D01*
Y354000D01*
X490000D01*
Y306000D01*
D02*
G37*
D12*
X422250Y310950D02*
D03*
Y323650D02*
D03*
Y336350D02*
D03*
Y349050D02*
D03*
X460500Y330000D02*
D03*
D13*
X405050Y291750D02*
D03*
X392350D02*
D03*
X379650D02*
D03*
X366950D02*
D03*
X386000Y330000D02*
D03*
X346000Y20000D02*
D03*
X442000D02*
D03*
D14*
X110000Y343500D02*
D03*
Y360500D02*
D03*
X150000Y564500D02*
D03*
Y547500D02*
D03*
X134000Y564500D02*
D03*
Y547500D02*
D03*
X118000Y564500D02*
D03*
Y547500D02*
D03*
X122000Y343500D02*
D03*
Y360500D02*
D03*
X98000Y360500D02*
D03*
Y343500D02*
D03*
X343000Y305500D02*
D03*
Y322500D02*
D03*
X331000Y322500D02*
D03*
Y305500D02*
D03*
X118000Y596500D02*
D03*
Y579500D02*
D03*
X134000Y596500D02*
D03*
Y579500D02*
D03*
X150000Y596500D02*
D03*
Y579500D02*
D03*
X166000Y547500D02*
D03*
Y564499D02*
D03*
X166000Y579500D02*
D03*
Y596500D02*
D03*
D15*
X289250Y397350D02*
D03*
X390750D02*
D03*
D16*
X340000Y618100D02*
D03*
D17*
X53500Y498000D02*
D03*
X70500D02*
D03*
X147500Y324000D02*
D03*
X164500D02*
D03*
X55119Y348149D02*
D03*
X72119D02*
D03*
X42500Y360000D02*
D03*
X25500D02*
D03*
Y348000D02*
D03*
X42500D02*
D03*
X102500Y332000D02*
D03*
X85500D02*
D03*
X85500Y320000D02*
D03*
X102500D02*
D03*
X45500Y296000D02*
D03*
X62500D02*
D03*
X45500Y204000D02*
D03*
X62500D02*
D03*
X147500Y180000D02*
D03*
X164500D02*
D03*
X70500Y510000D02*
D03*
X53500D02*
D03*
X42500Y568000D02*
D03*
X25500D02*
D03*
Y556000D02*
D03*
X42500D02*
D03*
D18*
X84582Y502614D02*
D03*
X96603Y490593D02*
D03*
X61955Y479986D02*
D03*
X73976Y467966D02*
D03*
X156000Y352000D02*
D03*
X143979Y364021D02*
D03*
X51990Y470010D02*
D03*
X64011Y457989D02*
D03*
D19*
X163071Y498371D02*
D03*
X151050Y486350D02*
D03*
X43993Y393553D02*
D03*
X56014Y405574D02*
D03*
X52478Y385068D02*
D03*
X64499Y397089D02*
D03*
X60963Y376582D02*
D03*
X72984Y388603D02*
D03*
D20*
X70440Y417054D02*
D03*
X76097Y411397D02*
D03*
X81754Y405740D02*
D03*
X87411Y400083D02*
D03*
X93067Y394427D02*
D03*
X98724Y388769D02*
D03*
X104382Y383113D02*
D03*
X110038Y377456D02*
D03*
X130544Y477158D02*
D03*
X136201Y471501D02*
D03*
X141858Y465844D02*
D03*
X147515Y460187D02*
D03*
X153172Y454531D02*
D03*
X158828Y448873D02*
D03*
X164485Y443217D02*
D03*
X170142Y437560D02*
D03*
D21*
X130544Y377456D02*
D03*
X136201Y383113D02*
D03*
X141858Y388769D02*
D03*
X147515Y394427D02*
D03*
X153172Y400083D02*
D03*
X158828Y405740D02*
D03*
X164485Y411397D02*
D03*
X170142Y417054D02*
D03*
X70440Y437560D02*
D03*
X76097Y443217D02*
D03*
X81754Y448873D02*
D03*
X87411Y454531D02*
D03*
X93067Y460187D02*
D03*
X98724Y465844D02*
D03*
X104382Y471501D02*
D03*
X110038Y477158D02*
D03*
D22*
X164100Y298000D02*
D03*
X138700D02*
D03*
X113300D02*
D03*
X87900D02*
D03*
X164100Y202000D02*
D03*
X138700D02*
D03*
X113300D02*
D03*
X87900D02*
D03*
D23*
X303340Y352850D02*
D03*
Y335150D02*
D03*
D24*
X284285Y352850D02*
D03*
Y335150D02*
D03*
D25*
X421500Y110000D02*
D03*
X462500D02*
D03*
X421500Y72000D02*
D03*
X462500D02*
D03*
D26*
X63050Y224000D02*
D03*
X50350D02*
D03*
X37650D02*
D03*
X24950D02*
D03*
Y276000D02*
D03*
X37650D02*
D03*
X50350D02*
D03*
D27*
X63050D02*
D03*
D28*
X112985Y84000D02*
D03*
X91985D02*
D03*
X112500Y138500D02*
D03*
X91500D02*
D03*
D29*
X92985Y124950D02*
D03*
Y99050D02*
D03*
X102485D02*
D03*
X111985D02*
D03*
Y124950D02*
D03*
D35*
X142500Y32000D02*
D03*
X167500D02*
D03*
X37500D02*
D03*
X62500D02*
D03*
X244500D02*
D03*
X219500D02*
D03*
D36*
X142500Y103800D02*
D03*
X167500D02*
D03*
X142500Y128800D02*
D03*
X37500Y103800D02*
D03*
X62500D02*
D03*
X37500Y128800D02*
D03*
X132700Y520000D02*
D03*
X107300D02*
D03*
X64700Y160000D02*
D03*
X39300D02*
D03*
X155400Y160000D02*
D03*
X130000D02*
D03*
X104600D02*
D03*
X32000Y520800D02*
D03*
Y495400D02*
D03*
Y470000D02*
D03*
Y444600D02*
D03*
Y419200D02*
D03*
X219500Y103800D02*
D03*
X102485Y40600D02*
D03*
Y66000D02*
D03*
D37*
X167500Y128800D02*
D03*
X62500D02*
D03*
D38*
X459500Y254000D02*
D03*
Y170000D02*
D03*
D39*
X424500Y254000D02*
D03*
Y170000D02*
D03*
X34000Y622000D02*
D03*
X79000D02*
D03*
X249678Y148322D02*
D03*
Y287678D02*
D03*
D40*
X21450Y597100D02*
D03*
X91550D02*
D03*
D41*
X244500Y103800D02*
D03*
D42*
X214322Y183678D02*
D03*
D43*
Y252322D02*
D03*
D44*
X458000Y330000D02*
D03*
X386000Y344000D02*
D03*
Y336000D02*
D03*
Y328000D02*
D03*
Y320000D02*
D03*
Y312000D02*
D03*
X402000Y344000D02*
D03*
X394000D02*
D03*
X378000D02*
D03*
X370000D02*
D03*
X394000Y336000D02*
D03*
X402000D02*
D03*
Y328000D02*
D03*
X394000D02*
D03*
Y320000D02*
D03*
X402000D02*
D03*
Y312000D02*
D03*
X394000D02*
D03*
X370000Y336000D02*
D03*
X310000Y287420D02*
D03*
X328000Y256000D02*
D03*
X292000Y280000D02*
D03*
X299700D02*
D03*
X336000Y256000D02*
D03*
X328000Y248000D02*
D03*
X336000D02*
D03*
X325230Y295500D02*
D03*
X336000Y290000D02*
D03*
X72119Y338881D02*
D03*
X112985Y84000D02*
D03*
X102485Y126000D02*
D03*
X250000Y54000D02*
D03*
Y70000D02*
D03*
X258000Y78000D02*
D03*
Y70000D02*
D03*
Y62000D02*
D03*
X250000Y78000D02*
D03*
X258000Y54000D02*
D03*
X250000Y62000D02*
D03*
X206000Y54000D02*
D03*
Y70000D02*
D03*
X214000Y78000D02*
D03*
Y70000D02*
D03*
Y62000D02*
D03*
X206000Y78000D02*
D03*
X214000Y54000D02*
D03*
X206000Y62000D02*
D03*
X322000Y46000D02*
D03*
X330000D02*
D03*
X338000D02*
D03*
X346000D02*
D03*
X354000D02*
D03*
X362000D02*
D03*
X370000D02*
D03*
X314000Y44000D02*
D03*
X310000Y38000D02*
D03*
X308000Y30000D02*
D03*
X307000Y22000D02*
D03*
X308000Y14000D02*
D03*
X310000Y6000D02*
D03*
X382000D02*
D03*
X384000Y14000D02*
D03*
X385000Y22000D02*
D03*
X384000Y30000D02*
D03*
X382000Y38000D02*
D03*
X378000Y44000D02*
D03*
X474000D02*
D03*
X478000Y38000D02*
D03*
X480000Y30000D02*
D03*
X481000Y22000D02*
D03*
X480000Y14000D02*
D03*
X478000Y6000D02*
D03*
X406000D02*
D03*
X404000Y14000D02*
D03*
X403000Y22000D02*
D03*
X404000Y30000D02*
D03*
X406000Y38000D02*
D03*
X410000Y44000D02*
D03*
X466000Y46000D02*
D03*
X458000D02*
D03*
X450000D02*
D03*
X442000D02*
D03*
X434000D02*
D03*
X426000D02*
D03*
X418000D02*
D03*
X468000Y76000D02*
D03*
X460000Y84000D02*
D03*
X468000Y60000D02*
D03*
X460000Y76000D02*
D03*
Y68000D02*
D03*
Y60000D02*
D03*
X468000Y68000D02*
D03*
Y84000D02*
D03*
Y114000D02*
D03*
X460000Y122000D02*
D03*
X468000Y98000D02*
D03*
X460000Y114000D02*
D03*
Y106000D02*
D03*
Y98000D02*
D03*
X468000Y106000D02*
D03*
Y122000D02*
D03*
X424000Y114000D02*
D03*
X416000Y122000D02*
D03*
X424000Y98000D02*
D03*
X416000Y114000D02*
D03*
Y106000D02*
D03*
Y98000D02*
D03*
X424000Y106000D02*
D03*
Y122000D02*
D03*
Y76000D02*
D03*
X416000Y84000D02*
D03*
X424000Y60000D02*
D03*
X416000Y76000D02*
D03*
Y68000D02*
D03*
Y60000D02*
D03*
X424000Y68000D02*
D03*
Y84000D02*
D03*
X249678Y160322D02*
D03*
X237678Y148322D02*
D03*
X241678Y156322D02*
D03*
X241678Y140322D02*
D03*
X249678Y136322D02*
D03*
X257678Y140322D02*
D03*
X261678Y148322D02*
D03*
X257678Y156322D02*
D03*
X240506Y279192D02*
D03*
X237678Y287678D02*
D03*
X248991Y276364D02*
D03*
X257477Y279192D02*
D03*
X260305Y287678D02*
D03*
X214322Y264322D02*
D03*
X222322Y260322D02*
D03*
X206322Y260322D02*
D03*
X202322Y252322D02*
D03*
X206322Y244322D02*
D03*
X214322Y240322D02*
D03*
X222322Y244322D02*
D03*
X214322Y195678D02*
D03*
X222322Y191678D02*
D03*
X206322Y191678D02*
D03*
X202322Y183678D02*
D03*
X206322Y175678D02*
D03*
X214322Y171678D02*
D03*
X222322Y175678D02*
D03*
X252500Y95800D02*
D03*
X244500Y91800D02*
D03*
X236500Y95800D02*
D03*
X236500Y111800D02*
D03*
X256500Y103800D02*
D03*
X252500Y111800D02*
D03*
X244500Y115800D02*
D03*
X227500Y95800D02*
D03*
X219500Y91800D02*
D03*
X211500Y95800D02*
D03*
X207500Y103800D02*
D03*
X211500Y111800D02*
D03*
X227500Y111800D02*
D03*
X219500Y115800D02*
D03*
X373000Y195000D02*
D03*
X434000Y268000D02*
D03*
X354000Y144000D02*
D03*
X346000D02*
D03*
X338000D02*
D03*
X330000Y136000D02*
D03*
X346000D02*
D03*
X362000D02*
D03*
Y128000D02*
D03*
X354000D02*
D03*
X346000D02*
D03*
X338000D02*
D03*
X330000D02*
D03*
Y120000D02*
D03*
X346000D02*
D03*
X362000D02*
D03*
X354000Y112000D02*
D03*
X346000D02*
D03*
X338000D02*
D03*
X362000Y60000D02*
D03*
Y68000D02*
D03*
Y76000D02*
D03*
X354000Y84000D02*
D03*
Y68000D02*
D03*
Y52000D02*
D03*
X346000D02*
D03*
Y60000D02*
D03*
Y68000D02*
D03*
Y76000D02*
D03*
Y84000D02*
D03*
X338000D02*
D03*
Y68000D02*
D03*
Y52000D02*
D03*
X330000Y60000D02*
D03*
Y68000D02*
D03*
Y76000D02*
D03*
X424500Y182000D02*
D03*
X432500Y178000D02*
D03*
X436500Y170000D02*
D03*
X416500Y178000D02*
D03*
X412500Y170000D02*
D03*
X416500Y162000D02*
D03*
X424500Y158000D02*
D03*
X432500Y162000D02*
D03*
X459500Y182000D02*
D03*
X467500Y178000D02*
D03*
X451500Y178000D02*
D03*
X447500Y170000D02*
D03*
X451500Y162000D02*
D03*
X459500Y158000D02*
D03*
X467500Y162000D02*
D03*
X471500Y170000D02*
D03*
X459500Y266000D02*
D03*
X467500Y262000D02*
D03*
X471500Y254000D02*
D03*
X459500Y242000D02*
D03*
X467500Y246000D02*
D03*
X102500Y332000D02*
D03*
X280000Y441322D02*
D03*
X365500Y266600D02*
D03*
X360000Y256000D02*
D03*
X352000D02*
D03*
X340500Y205364D02*
D03*
X330500D02*
D03*
X352000Y216000D02*
D03*
X360000D02*
D03*
X344000D02*
D03*
X368000D02*
D03*
Y224000D02*
D03*
X350500Y205364D02*
D03*
X314750Y187500D02*
D03*
X325500Y180500D02*
D03*
X298000Y190000D02*
D03*
X302000Y182000D02*
D03*
X315000Y195000D02*
D03*
X344000Y256000D02*
D03*
X360000Y332000D02*
D03*
X378000Y320000D02*
D03*
Y312000D02*
D03*
X328000Y224000D02*
D03*
Y240000D02*
D03*
Y232000D02*
D03*
X352000Y224000D02*
D03*
X296500Y218500D02*
D03*
X352000Y182000D02*
D03*
X474000Y550000D02*
D03*
X466000D02*
D03*
X458000D02*
D03*
X263500Y224000D02*
D03*
X330000Y168000D02*
D03*
X110000Y503999D02*
D03*
X126000Y483999D02*
D03*
X70500Y498000D02*
D03*
Y510000D02*
D03*
X63050Y267900D02*
D03*
X156000Y298000D02*
D03*
X14000Y352000D02*
D03*
X25500Y338500D02*
D03*
X14000Y366000D02*
D03*
X16000Y568000D02*
D03*
X16000Y556000D02*
D03*
X108500Y596500D02*
D03*
X172000Y381255D02*
D03*
X96603Y490593D02*
D03*
X73976Y467966D02*
D03*
X156000Y505442D02*
D03*
X183322Y441322D02*
D03*
X158230Y338230D02*
D03*
X164000Y344000D02*
D03*
X370000Y352000D02*
D03*
X378000D02*
D03*
X386000D02*
D03*
X394000D02*
D03*
X402000D02*
D03*
X378000Y336000D02*
D03*
Y328000D02*
D03*
X233770Y355770D02*
D03*
X169789Y427307D02*
D03*
X154000Y416000D02*
D03*
X94000Y436627D02*
D03*
X81754Y448873D02*
D03*
X222000Y344000D02*
D03*
X216000Y338000D02*
D03*
X210000Y331770D02*
D03*
X318780Y344780D02*
D03*
X482000Y314000D02*
D03*
Y322000D02*
D03*
Y330000D02*
D03*
Y338000D02*
D03*
Y346000D02*
D03*
X474000D02*
D03*
Y338000D02*
D03*
Y330000D02*
D03*
Y322000D02*
D03*
Y314000D02*
D03*
X466000D02*
D03*
Y322000D02*
D03*
Y330000D02*
D03*
Y338000D02*
D03*
Y346000D02*
D03*
X458000D02*
D03*
Y338000D02*
D03*
Y322000D02*
D03*
Y314000D02*
D03*
X450000D02*
D03*
Y322000D02*
D03*
Y330000D02*
D03*
Y338000D02*
D03*
Y346000D02*
D03*
X442000D02*
D03*
Y338000D02*
D03*
Y330000D02*
D03*
Y322000D02*
D03*
Y314000D02*
D03*
X336000Y232000D02*
D03*
Y224000D02*
D03*
Y240000D02*
D03*
X344000Y232000D02*
D03*
Y224000D02*
D03*
Y240000D02*
D03*
Y248000D02*
D03*
X78000Y202000D02*
D03*
X16000Y224000D02*
D03*
X45500Y194500D02*
D03*
X56014Y405574D02*
D03*
X64499Y397089D02*
D03*
X72984Y388603D02*
D03*
X131500Y343500D02*
D03*
X115494Y372000D02*
D03*
X34000Y296000D02*
D03*
X24950Y289050D02*
D03*
X67545Y370000D02*
D03*
X64011Y457989D02*
D03*
X37546Y400000D02*
D03*
X18000Y406000D02*
D03*
X46000Y440000D02*
D03*
X36000Y256000D02*
D03*
X49770Y261770D02*
D03*
X166000Y398569D02*
D03*
X172000Y338000D02*
D03*
X78000Y298000D02*
D03*
X147500Y314500D02*
D03*
X352000Y248000D02*
D03*
Y240000D02*
D03*
Y232000D02*
D03*
X360000Y224000D02*
D03*
Y232000D02*
D03*
Y240000D02*
D03*
Y248000D02*
D03*
X368000D02*
D03*
Y240000D02*
D03*
Y232000D02*
D03*
X228000Y350000D02*
D03*
X368000Y256000D02*
D03*
X138000Y484614D02*
D03*
X144493Y424000D02*
D03*
X386000Y390000D02*
D03*
Y398000D02*
D03*
Y406000D02*
D03*
Y414000D02*
D03*
X394000D02*
D03*
Y406000D02*
D03*
Y398000D02*
D03*
Y390000D02*
D03*
X402000D02*
D03*
Y398000D02*
D03*
Y406000D02*
D03*
Y414000D02*
D03*
X410000D02*
D03*
Y406000D02*
D03*
Y390000D02*
D03*
Y398000D02*
D03*
X330000Y144000D02*
D03*
X338000Y136000D02*
D03*
Y120000D02*
D03*
X330000Y112000D02*
D03*
X362000D02*
D03*
X354000Y120000D02*
D03*
Y136000D02*
D03*
X362000Y144000D02*
D03*
X338000Y60000D02*
D03*
X330000Y52000D02*
D03*
Y84000D02*
D03*
X338000Y76000D02*
D03*
X354000D02*
D03*
X362000Y84000D02*
D03*
X354000Y60000D02*
D03*
X362000Y52000D02*
D03*
X402000Y264000D02*
D03*
X140000Y180000D02*
D03*
X353999Y311999D02*
D03*
D45*
X422820Y506499D02*
D03*
X348142Y431822D02*
D03*
X348000Y378000D02*
D03*
D46*
X422820Y584500D02*
D03*
M02*
